<svg width="96" height="55" viewBox="0 0 96 55" fill="none" xmlns="http://www.w3.org/2000/svg">
<path d="M27.7842 1.13517C27.7842 1.21707 27.7623 1.29748 27.7208 1.36807C27.6792 1.43867 27.6196 1.49688 27.548 1.53668C27.5338 1.54494 27.5191 1.55231 27.5039 1.55873C25.6433 2.53601 23.9193 3.75373 22.3762 5.18057L22.3404 5.21273C22.2583 5.27983 22.1556 5.31648 22.0496 5.31648C21.9436 5.31648 21.8408 5.27983 21.7588 5.21273L21.7193 5.17598C20.1685 3.74362 18.435 2.52269 16.564 1.54495L16.5438 1.53392C16.4559 1.48364 16.3871 1.40573 16.348 1.31229C16.309 1.21886 16.3019 1.11515 16.3279 1.01728C16.3539 0.919408 16.4115 0.832866 16.4917 0.771109C16.572 0.709351 16.6704 0.675838 16.7716 0.675781H27.3248C27.4466 0.675781 27.5635 0.724181 27.6496 0.810334C27.7358 0.896487 27.7842 1.01333 27.7842 1.13517Z" fill="#04BFBF"/>
<path d="M82.6997 33.9899V44.3179C82.6997 44.4398 82.6513 44.5566 82.5651 44.6428C82.479 44.7289 82.3621 44.7773 82.2403 44.7773H71.9123C71.811 44.7773 71.7126 44.7438 71.6323 44.682C71.5521 44.6202 71.4945 44.5337 71.4685 44.4358C71.4425 44.338 71.4496 44.2342 71.4886 44.1408C71.5277 44.0474 71.5965 43.9695 71.6844 43.9192H71.6899C71.6945 43.9159 71.6994 43.9131 71.7046 43.9109C76.0321 41.6439 79.5647 38.1104 81.8305 33.7822C81.8327 33.7771 81.8355 33.7721 81.8388 33.7675V33.762C81.8891 33.6741 81.967 33.6053 82.0604 33.5663C82.1538 33.5272 82.2576 33.5202 82.3554 33.5461C82.4533 33.5721 82.5398 33.6297 82.6016 33.71C82.6634 33.7902 82.6969 33.8886 82.6969 33.9899H82.6997Z" fill="#04BFBF"/>
<path d="M47.7727 22.7284C47.7727 25.1651 46.8047 27.5021 45.0817 29.2251C43.3586 30.9482 41.0216 31.9162 38.5849 31.9162H38.5785C36.1417 31.9162 33.8047 30.9482 32.0817 29.2251C30.3586 27.5021 29.3906 25.1651 29.3906 22.7284C29.3906 20.2916 30.3586 17.9546 32.0817 16.2316C33.8047 14.5085 36.1417 13.5405 38.5785 13.5405H38.5858C41.0224 13.5408 43.3591 14.5089 45.082 16.2319C46.8048 17.9549 47.7727 20.2918 47.7727 22.7284Z" fill="#04BFBF"/>
<path d="M47.7741 30.1915V44.3178C47.7741 44.4396 47.7257 44.5565 47.6395 44.6426C47.5534 44.7288 47.4365 44.7772 47.3147 44.7772H29.8578C29.736 44.7772 29.6191 44.7288 29.533 44.6426C29.4468 44.5565 29.3984 44.4396 29.3984 44.3178V30.1915C29.3984 30.0968 29.4276 30.0045 29.4821 29.9271C29.5365 29.8496 29.6135 29.7909 29.7026 29.7589C29.7917 29.727 29.8885 29.7233 29.9798 29.7484C30.071 29.7735 30.1523 29.8263 30.2125 29.8993C31.2465 31.109 32.5307 32.08 33.9764 32.7452C35.4221 33.4105 36.9949 33.7542 38.5863 33.7527C38.868 33.7527 39.147 33.7423 39.4233 33.7215C40.869 33.6124 42.2789 33.2185 43.5719 32.5626C44.8649 31.9066 46.0154 31.0015 46.9573 29.8993C47.0175 29.8263 47.0987 29.7735 47.19 29.7484C47.2813 29.7233 47.378 29.727 47.4671 29.7589C47.5562 29.7909 47.6333 29.8496 47.6877 29.9271C47.7422 30.0045 47.7714 30.0968 47.7713 30.1915H47.7741Z" fill="#04BFBF"/>
<path d="M69.8375 1.13517V22.7266C69.838 24.7378 69.1785 26.6936 67.9603 28.2939C66.7421 29.8941 65.0324 31.0505 63.0937 31.5855L63.0395 31.6002C63.0093 31.6065 62.9785 31.6096 62.9476 31.6094C62.8258 31.6094 62.7089 31.561 62.6228 31.4748C62.5366 31.3887 62.4882 31.2718 62.4882 31.15V22.7266C62.4915 18.3645 61.2992 14.0849 59.0408 10.3529C56.7824 6.62098 53.5444 3.5794 49.6785 1.55873C49.6594 1.55072 49.641 1.54119 49.6234 1.53025C49.5368 1.47885 49.4695 1.40041 49.4318 1.30699C49.3941 1.21357 49.3882 1.11037 49.4149 1.01325C49.4416 0.916138 49.4996 0.830501 49.5797 0.769524C49.6599 0.708548 49.7579 0.67561 49.8586 0.675782H69.3791C69.5008 0.676025 69.6174 0.724533 69.7033 0.810659C69.7893 0.896785 69.8375 1.01349 69.8375 1.13517Z" fill="#04BFBF"/>
<path d="M7.35026 30.1448C7.35127 32.5882 6.74572 34.9937 5.58793 37.1454C4.43014 39.297 2.75633 41.1277 0.71665 42.473C0.647506 42.5198 0.566937 42.5468 0.483595 42.5512C0.400254 42.5556 0.31729 42.5372 0.243612 42.498C0.169934 42.4588 0.108327 42.4003 0.0654072 42.3287C0.0224869 42.2571 -0.000125345 42.1752 5.22607e-07 42.0917L5.22607e-07 18.197C-4.36347e-05 18.1174 0.0205916 18.0391 0.0598835 17.9699C0.0991754 17.9007 0.155776 17.8429 0.224139 17.8021C0.292502 17.7614 0.370279 17.7391 0.449853 17.7374C0.529427 17.7358 0.608067 17.7548 0.678063 17.7927L0.687251 17.7982C0.703789 17.8083 0.719408 17.8184 0.735947 17.8304C2.77063 19.1761 4.43984 21.0054 5.59415 23.1545C6.74846 25.3036 7.35184 27.7053 7.35026 30.1448Z" fill="#04BFBF"/>
<path d="M14.7094 22.7255V44.3169C14.7094 44.4387 14.661 44.5555 14.5749 44.6417C14.4887 44.7279 14.3719 44.7762 14.25 44.7762H2.0982C1.99966 44.7765 1.90366 44.745 1.82438 44.6865C1.74509 44.628 1.68672 44.5455 1.65789 44.4513C1.62905 44.3571 1.63128 44.2561 1.66424 44.1632C1.6972 44.0703 1.75915 43.9905 1.84094 43.9356C3.96244 42.5142 5.72715 40.6223 6.9976 38.4071C8.26805 36.1919 9.00994 33.7134 9.16548 31.1645C9.1863 30.8282 9.19672 30.4895 9.19672 30.1483C9.19585 27.2138 8.41785 24.3319 6.94185 21.7956C5.46585 19.2593 3.3445 17.1592 0.79353 15.7087L0.701652 15.6563C0.641736 15.6139 0.592864 15.5577 0.559138 15.4925C0.525412 15.4273 0.507812 15.3549 0.507812 15.2815C0.507812 15.2081 0.525412 15.1357 0.559138 15.0705C0.592864 15.0052 0.641736 14.9491 0.701652 14.9066C0.703158 14.9062 0.704738 14.9062 0.706245 14.9066L0.75586 14.8772C2.14914 14.033 3.74182 13.5745 5.37069 13.5485C6.99955 13.5226 8.60603 13.9302 10.0255 14.7296C11.4449 15.529 12.6263 16.6914 13.4486 18.0977C14.2708 19.5041 14.7044 21.1037 14.7048 22.7328L14.7094 22.7255Z" fill="#04BFBF"/>
<path d="M95.5534 2.05396V43.3992C95.5534 43.7647 95.4082 44.1153 95.1498 44.3737C94.8913 44.6322 94.5408 44.7774 94.1753 44.7774H85.9062C85.5407 44.7774 85.1901 44.6322 84.9317 44.3737C84.6732 44.1153 84.528 43.7647 84.528 43.3992V12.62C84.528 12.3763 84.4312 12.1426 84.2589 11.9703C84.0866 11.798 83.8529 11.7012 83.6092 11.7012C83.3656 11.7012 83.1319 11.798 82.9596 11.9703C82.7873 12.1426 82.6905 12.3763 82.6905 12.62V22.869C82.6565 28.669 80.3374 34.2217 76.2361 38.323C72.1348 42.4243 66.5821 44.7434 60.7821 44.7774H50.9925C50.6331 44.7775 50.2878 44.6372 50.0304 44.3865C49.7729 44.1357 49.6236 43.7943 49.6143 43.435V22.7266C49.6205 19.8025 48.4649 16.9956 46.4016 14.9236C44.3383 12.8515 41.5364 11.684 38.6123 11.6777C35.6882 11.6715 32.8814 12.8272 30.8093 14.8904C28.7373 16.9537 27.5697 19.7556 27.5635 22.6797C27.5635 22.6476 27.5635 22.6154 27.5635 22.5878V43.3992C27.5635 43.7647 27.4183 44.1153 27.1598 44.3737C26.9014 44.6322 26.5508 44.7774 26.1853 44.7774H17.9163C17.5508 44.7774 17.2002 44.6322 16.9418 44.3737C16.6833 44.1153 16.5381 43.7647 16.5381 43.3992V22.394C16.5381 22.4574 16.5381 22.5208 16.5381 22.5842C16.5159 20.8353 16.0779 19.1167 15.2603 17.5705C14.4428 16.0243 13.2691 14.6948 11.8362 13.6918C10.4033 12.6888 8.75237 12.0411 7.01972 11.8021C5.28706 11.5632 3.52243 11.7399 1.87156 12.3177L1.78795 12.3471C1.65516 12.3878 1.51706 12.4085 1.37817 12.4086C1.01266 12.4086 0.662116 12.2634 0.403658 12.005C0.1452 11.7465 6.22697e-08 11.396 6.22697e-08 11.0305L6.22697e-08 2.46649C-9.31835e-05 2.15618 0.104539 1.85492 0.296961 1.61147C0.489384 1.36803 0.758335 1.19664 1.06028 1.12507C1.08968 1.11863 1.12 1.1122 1.15215 1.10761H1.17145C2.55499 0.830375 3.96202 0.686996 5.37304 0.679456H5.65786C11.4379 0.708246 16.9742 3.0118 21.0686 7.09164L21.1072 7.12931C21.3587 7.36646 21.6901 7.50044 22.0357 7.5047C22.3814 7.50895 22.716 7.38317 22.9732 7.15228C23.0082 7.12104 23.0412 7.08797 23.0734 7.05305C27.164 2.99592 32.6833 0.706028 38.4446 0.675781H38.7295C42.5523 0.694095 46.304 1.71042 49.6134 3.62416C52.9669 5.55922 55.7515 8.34349 57.687 11.6967C59.6225 15.05 60.6406 18.8539 60.6388 22.7257V32.2764C60.6388 32.6419 60.784 32.9925 61.0424 33.2509C61.3009 33.5094 61.6514 33.6546 62.0169 33.6546C62.0647 33.6546 62.1088 33.6546 62.1575 33.6472C62.1642 33.6482 62.171 33.6482 62.1777 33.6472L62.2549 33.6371C64.8707 33.2495 67.26 31.9347 68.9872 29.9324C70.7145 27.9301 71.6645 25.3737 71.6642 22.7293V2.05671C71.6642 1.6912 71.8093 1.34065 72.0678 1.0822C72.3263 0.823738 72.6768 0.678538 73.0423 0.678538H94.1743C94.5395 0.678294 94.8899 0.823008 95.1485 1.0809C95.4071 1.33878 95.5527 1.68876 95.5534 2.05396Z" fill="#04BFBF"/>
<path d="M6.3273 48.8278C6.39102 48.829 6.45372 48.8441 6.51105 48.8719C6.57093 48.8988 6.62192 48.9421 6.65806 48.9969L8.52503 51.8451L8.20896 51.8304L10.1127 49.0005C10.1443 48.949 10.1886 48.9064 10.2414 48.8768C10.2941 48.8472 10.3536 48.8316 10.414 48.8315C10.5116 48.8316 10.6052 48.8699 10.675 48.9381C10.7118 48.9722 10.7411 49.0137 10.7607 49.06C10.7803 49.1062 10.7899 49.1561 10.7889 49.2063V53.6092C10.7907 53.6585 10.7824 53.7077 10.7648 53.7538C10.7471 53.7999 10.7203 53.8419 10.686 53.8774C10.6502 53.9137 10.6071 53.9419 10.5596 53.9603C10.5121 53.9787 10.4612 53.9868 10.4104 53.984C10.3584 53.9866 10.3065 53.9785 10.2578 53.9601C10.2091 53.9418 10.1647 53.9136 10.1274 53.8774C10.0921 53.8425 10.0644 53.8006 10.046 53.7544C10.0277 53.7083 10.0191 53.6588 10.0208 53.6092V49.8789L10.256 49.9303L8.63895 52.3927C8.60233 52.4386 8.55746 52.4772 8.50665 52.5066C8.45488 52.5331 8.39757 52.5469 8.33943 52.5469C8.28129 52.5469 8.22398 52.5331 8.17221 52.5066C8.11946 52.4785 8.07315 52.4397 8.03623 52.3927L6.4743 49.9671L6.65071 49.6731V53.6055C6.65419 53.7045 6.61854 53.8009 6.55148 53.8738C6.51821 53.9093 6.47768 53.9371 6.43265 53.9555C6.38762 53.9739 6.33915 53.9824 6.29055 53.9803C6.24309 53.9819 6.19585 53.9732 6.15208 53.9548C6.1083 53.9364 6.06903 53.9088 6.03696 53.8738C5.9699 53.8009 5.93425 53.7045 5.93773 53.6055V49.2027C5.9371 49.153 5.94691 49.1038 5.96654 49.0582C5.98617 49.0126 6.01517 48.9717 6.05166 48.9381C6.08758 48.9017 6.13059 48.8732 6.17801 48.8543C6.22543 48.8353 6.27625 48.8263 6.3273 48.8278Z" fill="#04BFBF"/>
<path d="M17.7956 49.7914L16.1418 53.7605C16.1166 53.8334 16.0706 53.8973 16.0095 53.9443C15.9525 53.9878 15.8827 54.0111 15.811 54.0105C15.7663 54.014 15.7213 54.0076 15.6794 53.9918C15.6375 53.9759 15.5996 53.9509 15.5684 53.9186C15.5114 53.8547 15.4788 53.7727 15.4766 53.687C15.4777 53.647 15.4849 53.6074 15.4977 53.5694L17.3656 49.0564C17.3953 48.9789 17.4479 48.9123 17.5163 48.8653C17.5799 48.8219 17.6563 48.8012 17.7331 48.8065C17.8069 48.8067 17.8788 48.8298 17.9389 48.8726C18.0033 48.918 18.0521 48.9822 18.0786 49.0564L19.9235 53.5033C19.9424 53.55 19.9523 53.5999 19.9529 53.6503C19.954 53.6967 19.9459 53.7428 19.9291 53.786C19.9123 53.8292 19.8871 53.8687 19.855 53.9022C19.8229 53.9357 19.7845 53.9625 19.742 53.981C19.6995 53.9996 19.6538 54.0096 19.6074 54.0105C19.5341 54.0108 19.4628 53.9861 19.4053 53.9406C19.3434 53.8933 19.296 53.8297 19.2684 53.7569L17.6045 49.8125L17.7956 49.7914ZM16.4358 52.7168L16.7665 52.0112H18.8467L18.9716 52.7168H16.4358Z" fill="#04BFBF"/>
<path d="M25.8548 54.0551C25.5775 54.058 25.3042 53.9896 25.0609 53.8567C24.8229 53.7263 24.6229 53.5363 24.4803 53.3054C24.4398 53.2441 24.417 53.173 24.4141 53.0996C24.4133 53.0507 24.4235 53.0022 24.4438 52.9577C24.4642 52.9132 24.4942 52.8738 24.5317 52.8423C24.5952 52.7809 24.6787 52.7444 24.7669 52.7394C24.8322 52.7395 24.8961 52.7587 24.9507 52.7946C25.009 52.8329 25.0621 52.8786 25.1087 52.9306C25.1972 53.0496 25.31 53.1485 25.4395 53.2209C25.5662 53.288 25.7077 53.3221 25.8511 53.3201C26.0182 53.3226 26.1831 53.2807 26.3288 53.1988C26.4688 53.1205 26.5855 53.0063 26.667 52.8681C26.7502 52.7294 26.7935 52.5704 26.7919 52.4087V49.2113C26.7909 49.1608 26.8009 49.1106 26.8212 49.0642C26.8415 49.0179 26.8716 48.9766 26.9095 48.943C26.9841 48.8732 27.0829 48.835 27.1851 48.8365C27.236 48.8337 27.2869 48.8418 27.3344 48.8602C27.3819 48.8785 27.425 48.9068 27.4608 48.943C27.4951 48.9786 27.5219 49.0206 27.5395 49.0667C27.5572 49.1128 27.5654 49.162 27.5637 49.2113V52.4087C27.5671 52.6998 27.4894 52.9861 27.3395 53.2356C27.1915 53.4847 26.9812 53.6912 26.7294 53.8346C26.4631 53.9856 26.1609 54.0618 25.8548 54.0551Z" fill="#04BFBF"/>
<path d="M33.5063 53.6066C33.5022 53.6817 33.4767 53.7542 33.4329 53.8154C33.3891 53.8766 33.3288 53.9241 33.259 53.9522C33.1892 53.9804 33.1128 53.9881 33.0388 53.9744C32.9648 53.9607 32.8962 53.9262 32.8411 53.8749C32.8061 53.8397 32.7787 53.7977 32.7603 53.7516C32.742 53.7055 32.7332 53.6562 32.7345 53.6066V49.2111C32.7332 49.1612 32.7424 49.1116 32.7613 49.0654C32.7803 49.0192 32.8087 48.9774 32.8447 48.9428C32.8831 48.907 32.9282 48.8791 32.9774 48.8608C33.0266 48.8425 33.0789 48.8341 33.1314 48.8363C33.1798 48.836 33.2277 48.8453 33.2725 48.8635C33.3173 48.8818 33.358 48.9088 33.3923 48.9428C33.4294 48.9768 33.4587 49.0184 33.4784 49.0646C33.498 49.1109 33.5075 49.1609 33.5063 49.2111V53.6066Z" fill="#04BFBF"/>
<path d="M46.8638 48.8363C47.1912 48.8299 47.5157 48.8991 47.812 49.0385C48.0811 49.1692 48.3163 49.3604 48.4992 49.5971C48.6877 49.8446 48.8286 50.125 48.9145 50.424C49.0092 50.7449 49.0563 51.078 49.0542 51.4126C49.0605 51.8576 48.9754 52.2991 48.8043 52.7099C48.6514 53.0827 48.3967 53.4049 48.0692 53.6397C47.7142 53.8798 47.2921 54.0007 46.8638 53.9852H45.0703C45.0213 53.986 44.9727 53.9769 44.9273 53.9586C44.8818 53.9403 44.8405 53.9131 44.8057 53.8786C44.7696 53.8441 44.7411 53.8024 44.7221 53.7562C44.7031 53.71 44.694 53.6603 44.6955 53.6103V49.2112C44.6942 49.1613 44.7033 49.1116 44.7223 49.0654C44.7413 49.0193 44.7697 48.9775 44.8057 48.9429C44.8405 48.9084 44.8818 48.8812 44.9273 48.8629C44.9727 48.8446 45.0213 48.8356 45.0703 48.8363H46.8638ZM46.7903 53.2759C47.0933 53.2903 47.392 53.1994 47.6356 53.0186C47.8555 52.8422 48.0201 52.6062 48.1097 52.3387C48.2142 52.04 48.2662 51.7254 48.2631 51.4089C48.2647 51.1699 48.2363 50.9316 48.1786 50.6996C48.1268 50.4869 48.0372 50.2852 47.914 50.1043C47.7956 49.9326 47.6382 49.7915 47.4546 49.6927C47.2491 49.5872 47.0203 49.5354 46.7894 49.542H45.4011L45.4672 49.4758V53.3494L45.4231 53.2759H46.7903Z" fill="#04BFBF"/>
<path d="M54.3125 48.8365H56.8557C56.9529 48.8349 57.0467 48.8719 57.1166 48.9394C57.1513 48.9725 57.1787 49.0125 57.1971 49.0568C57.2154 49.1011 57.2243 49.1487 57.2232 49.1966C57.2248 49.2436 57.2161 49.2903 57.1977 49.3334C57.1793 49.3766 57.1516 49.4152 57.1166 49.4465C57.0447 49.5095 56.9512 49.5424 56.8557 49.5384H54.6359L54.7094 49.4135V51.0599L54.6433 50.9864H56.5249C56.6221 50.9849 56.7159 51.0219 56.7859 51.0893C56.821 51.1236 56.8487 51.1649 56.867 51.2104C56.8854 51.256 56.894 51.3049 56.8925 51.3539C56.8941 51.4009 56.8854 51.4476 56.8669 51.4907C56.8485 51.5339 56.8209 51.5725 56.7859 51.6038C56.7139 51.6668 56.6205 51.6997 56.5249 51.6957H54.658L54.7094 51.6296V53.3275L54.658 53.2687H56.8557C56.9042 53.2677 56.9523 53.2767 56.9972 53.295C57.0421 53.3133 57.0827 53.3407 57.1166 53.3753C57.1501 53.407 57.1769 53.4451 57.1952 53.4875C57.2135 53.5298 57.223 53.5754 57.2232 53.6215C57.2246 53.6689 57.2158 53.7161 57.1974 53.7598C57.179 53.8036 57.1515 53.8429 57.1166 53.8751C57.0461 53.9412 56.9524 53.9768 56.8557 53.9743H54.3125C54.2635 53.9751 54.2149 53.966 54.1694 53.9477C54.124 53.9294 54.0827 53.9022 54.0479 53.8677C54.0118 53.8332 53.9833 53.7915 53.9643 53.7453C53.9453 53.6991 53.9362 53.6494 53.9377 53.5994V49.2113C53.9364 49.1614 53.9455 49.1118 53.9645 49.0656C53.9835 49.0194 54.0119 48.9777 54.0479 48.9431C54.0827 48.9085 54.124 48.8813 54.1694 48.863C54.2149 48.8447 54.2635 48.8357 54.3125 48.8365Z" fill="#04BFBF"/>
<path d="M63.6937 54.0549C63.374 54.0604 63.0557 54.0106 62.7529 53.9079C62.4611 53.8 62.1937 53.6351 61.9664 53.4228C61.9142 53.3863 61.8724 53.3369 61.8451 53.2795C61.8189 53.2256 61.8051 53.1666 61.8047 53.1067C61.8048 53.0131 61.8417 52.9233 61.9076 52.8568C61.9401 52.8211 61.9799 52.7929 62.0243 52.7738C62.0686 52.7548 62.1166 52.7455 62.1648 52.7466C62.2454 52.7478 62.3231 52.7763 62.3854 52.8274C62.5569 52.9892 62.7544 53.1209 62.9697 53.217C63.197 53.3098 63.4409 53.3549 63.6864 53.3493C63.8706 53.3528 64.0539 53.3216 64.2266 53.2574C64.3761 53.2038 64.5108 53.1156 64.6198 53.0002C64.7156 52.899 64.7683 52.7646 64.7668 52.6253C64.7726 52.4659 64.7189 52.31 64.6162 52.188C64.496 52.0598 64.3475 51.9616 64.1825 51.9013C63.962 51.8165 63.7345 51.7513 63.5026 51.7065C63.2775 51.6683 63.057 51.6067 62.8448 51.5228C62.6637 51.4524 62.4959 51.3517 62.3486 51.2251C62.2126 51.107 62.1046 50.9601 62.0325 50.7951C61.9557 50.6113 61.9181 50.4135 61.9223 50.2144C61.9152 49.9385 61.9977 49.6677 62.1575 49.4426C62.3229 49.2211 62.5451 49.0484 62.8006 48.9428C63.0889 48.8215 63.3993 48.7614 63.7121 48.7664C64.0073 48.7641 64.3007 48.8125 64.5794 48.9097C64.8228 48.9897 65.0459 49.1213 65.2336 49.2956C65.2855 49.3344 65.3282 49.3842 65.3587 49.4413C65.3892 49.4985 65.4067 49.5617 65.41 49.6264C65.408 49.7192 65.3697 49.8076 65.3034 49.8726C65.2729 49.9081 65.2351 49.9367 65.1927 49.9563C65.1502 49.976 65.104 49.9863 65.0572 49.9866C64.9933 49.988 64.931 49.9672 64.8808 49.9277C64.7893 49.8352 64.6823 49.7593 64.5647 49.7036C64.429 49.636 64.2876 49.5807 64.1421 49.5382C64.0027 49.4957 63.8578 49.4734 63.7121 49.472C63.5194 49.4677 63.3275 49.4988 63.1461 49.5639C63.0058 49.6135 62.8812 49.6994 62.785 49.8129C62.7025 49.9174 62.6583 50.0472 62.6601 50.1804C62.6542 50.3308 62.7054 50.4778 62.8034 50.592C62.9139 50.7101 63.0513 50.7997 63.204 50.853C63.3958 50.9269 63.5922 50.9883 63.792 51.0367C64.037 51.0888 64.2787 51.1551 64.516 51.2352C64.7105 51.299 64.8931 51.3946 65.0563 51.5182C65.202 51.6321 65.318 51.7796 65.3944 51.9482C65.479 52.1517 65.5191 52.371 65.512 52.5913C65.517 52.8692 65.4291 53.1409 65.2621 53.3631C65.0904 53.588 64.8639 53.7652 64.6042 53.8776C64.317 54.0015 64.0064 54.062 63.6937 54.0549Z" fill="#04BFBF"/>
<path d="M71.1781 53.6066C71.1772 53.6572 71.1659 53.7071 71.1451 53.7532C71.1242 53.7993 71.0942 53.8407 71.0569 53.8749C70.9851 53.9445 70.8886 53.9829 70.7886 53.9814C70.7378 53.9837 70.687 53.9754 70.6396 53.9571C70.5921 53.9387 70.549 53.9107 70.513 53.8749C70.478 53.8397 70.4505 53.7977 70.4322 53.7516C70.4139 53.7055 70.4051 53.6562 70.4064 53.6066V49.2111C70.4051 49.1612 70.4142 49.1116 70.4332 49.0654C70.4522 49.0192 70.4806 48.9774 70.5166 48.9428C70.5549 48.907 70.6 48.8791 70.6492 48.8608C70.6985 48.8425 70.7508 48.8341 70.8033 48.8363C70.9009 48.8362 70.9946 48.8745 71.0642 48.9428C71.1013 48.9768 71.1306 49.0184 71.1503 49.0646C71.1699 49.1109 71.1794 49.1609 71.1781 49.2111V53.6066Z" fill="#04BFBF"/>
<path d="M78.7228 54.0549C78.3649 54.0579 78.0101 53.9892 77.6791 53.8528C77.3615 53.7222 77.0729 53.5298 76.8302 53.2868C76.588 53.0455 76.3946 52.7597 76.2605 52.4452C75.9861 51.7816 75.9861 51.0361 76.2605 50.3725C76.3949 50.0582 76.5883 49.7725 76.8302 49.5309C77.0731 49.2882 77.3616 49.0958 77.6791 48.9649C78.0102 48.829 78.365 48.7603 78.7228 48.7628C78.958 48.7625 79.1923 48.7896 79.4211 48.8436C79.6345 48.893 79.8399 48.9722 80.0312 49.0788C80.0903 49.1092 80.1389 49.1565 80.1709 49.2148C80.1986 49.2656 80.2138 49.3223 80.215 49.3802C80.2166 49.4789 80.1812 49.5746 80.1157 49.6485C80.0859 49.6848 80.0483 49.7138 80.0056 49.7336C79.963 49.7533 79.9165 49.7631 79.8695 49.7624C79.8335 49.7623 79.7976 49.7574 79.7629 49.7477C79.7286 49.7391 79.6953 49.7268 79.6637 49.7109C79.5233 49.6414 79.3753 49.5883 79.2227 49.5529C79.0587 49.5154 78.891 49.4969 78.7228 49.4978C78.3872 49.4934 78.0567 49.5811 77.7673 49.7514C77.4867 49.9174 77.2547 50.1545 77.0948 50.4386C76.9332 50.7358 76.8486 51.0687 76.8486 51.407C76.8486 51.7453 76.9332 52.0782 77.0948 52.3754C77.2553 52.6654 77.4915 52.9064 77.7782 53.0727C78.0649 53.2391 78.3914 53.3245 78.7228 53.3199C78.9059 53.3189 79.0883 53.298 79.2668 53.2574C79.4351 53.224 79.5982 53.1684 79.7519 53.0921L79.6931 53.2905V51.894L79.8107 51.9969H78.8478C78.7985 51.9986 78.7493 51.9904 78.7032 51.9727C78.6571 51.9551 78.615 51.9283 78.5795 51.894C78.5112 51.8228 78.4731 51.728 78.4731 51.6294C78.4731 51.5307 78.5112 51.4359 78.5795 51.3648C78.6152 51.3307 78.6573 51.3041 78.7034 51.2864C78.7494 51.2688 78.7985 51.2604 78.8478 51.2619H80.1194C80.1679 51.2609 80.216 51.2699 80.2609 51.2882C80.3058 51.3065 80.3464 51.3338 80.3803 51.3684C80.4153 51.4036 80.4427 51.4456 80.4611 51.4917C80.4794 51.5378 80.4882 51.5871 80.4869 51.6367V53.2685C80.4896 53.3393 80.4689 53.409 80.4281 53.4669C80.3917 53.5181 80.347 53.5628 80.2958 53.5992C80.0662 53.741 79.8191 53.8522 79.5608 53.93C79.2894 54.0139 79.0069 54.056 78.7228 54.0549Z" fill="#04BFBF"/>
<path d="M89.2932 48.8362C89.3378 48.8346 89.3822 48.8427 89.4234 48.8598C89.4647 48.8769 89.5017 48.9027 89.532 48.9355C89.5937 49.0024 89.6266 49.0908 89.6239 49.1817V53.6066C89.6249 53.6561 89.6159 53.7053 89.5974 53.7512C89.5789 53.7971 89.5514 53.8388 89.5163 53.8739C89.4813 53.9089 89.4396 53.9364 89.3937 53.9549C89.3478 53.9734 89.2986 53.9824 89.2491 53.9814C89.1951 53.9808 89.1416 53.9709 89.091 53.952C89.0416 53.9372 88.9972 53.9093 88.9624 53.8712L85.9414 49.9535L86.1105 49.8616V53.647C86.1117 53.6909 86.1042 53.7346 86.0885 53.7756C86.0727 53.8166 86.0489 53.8541 86.0186 53.8859C85.9531 53.9494 85.8655 53.9849 85.7742 53.9849C85.683 53.9849 85.5953 53.9494 85.5298 53.8859C85.469 53.8214 85.436 53.7356 85.4379 53.647V49.2111C85.4354 49.1599 85.4439 49.1088 85.4629 49.0612C85.482 49.0137 85.511 48.9708 85.5482 48.9355C85.6196 48.868 85.7146 48.831 85.8128 48.8326C85.8719 48.8335 85.9303 48.8447 85.9855 48.8656C86.0405 48.8829 86.0883 48.9178 86.1215 48.9649L89.069 52.8017L88.9587 52.9046V49.1817C88.9555 49.0907 88.9886 49.0021 89.0506 48.9355C89.0818 48.9028 89.1195 48.8771 89.1613 48.86C89.2031 48.8429 89.248 48.8348 89.2932 48.8362Z" fill="#04BFBF"/>
</svg>
