<svg width="60" height="28" viewBox="0 0 60 28" fill="none" xmlns="http://www.w3.org/2000/svg">
<path d="M17.2408 0.284956C17.2408 0.335756 17.2272 0.385633 17.2014 0.429422C17.1757 0.473211 17.1387 0.50932 17.0943 0.534008C17.0855 0.539133 17.0763 0.543701 17.0669 0.547686C15.9128 1.15389 14.8434 1.90923 13.8863 2.79428L13.864 2.81423C13.8131 2.85585 13.7494 2.87859 13.6837 2.87859C13.6179 2.87859 13.5542 2.85585 13.5033 2.81423L13.4788 2.79143C12.5168 1.90295 11.4416 1.14562 10.281 0.539138L10.2685 0.532298C10.2139 0.501108 10.1713 0.452779 10.147 0.394824C10.1228 0.336868 10.1184 0.272536 10.1345 0.211828C10.1507 0.15112 10.1864 0.0974384 10.2362 0.0591307C10.2859 0.0208231 10.347 3.54205e-05 10.4098 0L16.9558 0C17.0314 0 17.1039 0.0300221 17.1573 0.0834618C17.2107 0.136901 17.2408 0.209381 17.2408 0.284956Z" fill="#F29727"/>
<path d="M51.2964 20.6642V27.0706C51.2964 27.1462 51.2664 27.2186 51.213 27.2721C51.1596 27.3255 51.0871 27.3555 51.0115 27.3555H44.6051C44.5423 27.3555 44.4813 27.3347 44.4315 27.2964C44.3817 27.2581 44.346 27.2044 44.3299 27.1437C44.3137 27.083 44.3181 27.0187 44.3423 26.9607C44.3666 26.9028 44.4092 26.8544 44.4638 26.8232H44.4672C44.47 26.8212 44.4731 26.8195 44.4763 26.8181C47.1606 25.4119 49.3519 23.2201 50.7573 20.5354C50.7587 20.5322 50.7604 20.5291 50.7624 20.5263V20.5229C50.7936 20.4683 50.842 20.4256 50.8999 20.4014C50.9579 20.3772 51.0222 20.3728 51.0829 20.3889C51.1436 20.4051 51.1973 20.4408 51.2356 20.4906C51.2739 20.5403 51.2947 20.6014 51.2947 20.6642H51.2964Z" fill="#04BFBF"/>
<path d="M29.6366 13.6781C29.6366 15.1896 29.0362 16.6392 27.9674 17.708C26.8986 18.7768 25.449 19.3773 23.9375 19.3773H23.9335C22.422 19.3773 20.9724 18.7768 19.9036 17.708C18.8348 16.6392 18.2344 15.1896 18.2344 13.6781C18.2344 12.1666 18.8348 10.717 19.9036 9.64824C20.9724 8.57945 22.422 7.979 23.9335 7.979H23.9381C25.4495 7.97916 26.8989 8.57966 27.9676 9.64844C29.0363 10.7172 29.6366 12.1667 29.6366 13.6781Z" fill="#04BFBF"/>
<path d="M29.6404 18.3085V27.0709C29.6404 27.1465 29.6104 27.219 29.557 27.2724C29.5035 27.3258 29.4311 27.3559 29.3555 27.3559H18.5271C18.4516 27.3559 18.3791 27.3258 18.3256 27.2724C18.2722 27.219 18.2422 27.1465 18.2422 27.0709V18.3085C18.2422 18.2498 18.2603 18.1925 18.2941 18.1445C18.3278 18.0964 18.3756 18.06 18.4309 18.0402C18.4861 18.0204 18.5462 18.0181 18.6028 18.0337C18.6594 18.0492 18.7098 18.0819 18.7471 18.1273C19.3885 18.8776 20.1851 19.4799 21.0818 19.8926C21.9786 20.3052 22.9542 20.5184 23.9413 20.5175C24.1161 20.5175 24.2892 20.511 24.4605 20.4981C25.3573 20.4304 26.2318 20.1861 27.0339 19.7793C27.8359 19.3724 28.5495 18.811 29.1338 18.1273C29.1711 18.0819 29.2215 18.0492 29.2781 18.0337C29.3347 18.0181 29.3948 18.0204 29.45 18.0402C29.5053 18.06 29.5531 18.0964 29.5869 18.1445C29.6206 18.1925 29.6388 18.2498 29.6387 18.3085H29.6404Z" fill="#04BFBF"/>
<path d="M43.3188 0.284957V13.6779C43.3191 14.9254 42.91 16.1386 42.1544 17.1312C41.3987 18.1239 40.3382 18.8412 39.1357 19.173L39.102 19.1821C39.0833 19.186 39.0642 19.188 39.045 19.1878C38.9695 19.1878 38.897 19.1578 38.8435 19.1044C38.7901 19.0509 38.7601 18.9784 38.7601 18.9029V13.6779C38.7622 10.9721 38.0226 8.31756 36.6217 6.00266C35.2209 3.68775 33.2123 1.80108 30.8144 0.547687C30.8025 0.542714 30.7911 0.536806 30.7802 0.530019C30.7264 0.498137 30.6847 0.449478 30.6613 0.391533C30.6379 0.333588 30.6343 0.269569 30.6508 0.20933C30.6674 0.149091 30.7033 0.0959715 30.7531 0.0581481C30.8028 0.0203246 30.8636 -0.000106325 30.9261 4.16135e-07L43.0344 4.16135e-07C43.1099 0.000151369 43.1822 0.0302402 43.2356 0.0836635C43.2889 0.137087 43.3188 0.20948 43.3188 0.284957Z" fill="#F29727"/>
<path d="M4.5593 18.2795C4.55993 19.7951 4.18431 21.2872 3.46614 22.6219C2.74798 23.9566 1.70973 25.0921 0.444532 25.9266C0.401642 25.9556 0.351666 25.9723 0.29997 25.9751C0.248274 25.9778 0.196812 25.9664 0.15111 25.9421C0.105408 25.9178 0.0671945 25.8815 0.0405715 25.8371C0.0139484 25.7927 -7.77501e-05 25.7419 3.24168e-07 25.6901L3.24168e-07 10.8684C-2.70662e-05 10.819 0.0127728 10.7705 0.0371452 10.7275C0.0615176 10.6846 0.0966265 10.6487 0.139031 10.6235C0.181436 10.5982 0.229681 10.5843 0.27904 10.5833C0.328399 10.5823 0.377178 10.5941 0.420596 10.6176L0.426296 10.621C0.436554 10.6273 0.446242 10.6336 0.456501 10.641C1.71859 11.4757 2.75399 12.6104 3.47 13.9435C4.18601 15.2765 4.56028 16.7663 4.5593 18.2795Z" fill="#04BFBF"/>
<path d="M9.11381 13.677V27.0699C9.11381 27.1455 9.08379 27.218 9.03035 27.2714C8.97691 27.3249 8.90443 27.3549 8.82886 27.3549H1.29119C1.23007 27.355 1.17052 27.3355 1.12134 27.2992C1.07216 27.2629 1.03595 27.2118 1.01807 27.1533C1.00018 27.0949 1.00156 27.0322 1.02201 26.9746C1.04246 26.917 1.08088 26.8675 1.13162 26.8334C2.44756 25.9518 3.54219 24.7782 4.33024 23.4041C5.11829 22.0301 5.57848 20.4927 5.67496 18.9116C5.68788 18.703 5.69434 18.4929 5.69434 18.2813C5.6938 16.4611 5.21121 14.6734 4.29566 13.1002C3.38012 11.527 2.06426 10.2243 0.481916 9.32455L0.424924 9.29207C0.387759 9.26574 0.357444 9.23089 0.336524 9.19043C0.315604 9.14997 0.304688 9.10509 0.304688 9.05954C0.304688 9.014 0.315604 8.96911 0.336524 8.92866C0.357444 8.8882 0.387759 8.85335 0.424924 8.82702C0.425859 8.82678 0.426839 8.82678 0.427773 8.82702L0.458549 8.80878C1.32279 8.28514 2.31071 8.0007 3.32108 7.98461C4.33145 7.96852 5.32794 8.22136 6.20841 8.71721C7.08889 9.21306 7.82169 9.93411 8.33173 10.8064C8.84177 11.6788 9.1107 12.671 9.11096 13.6815L9.11381 13.677Z" fill="#04BFBF"/>
<path d="M59.2709 0.854869V26.5009C59.2709 26.7277 59.1809 26.9451 59.0205 27.1054C58.8602 27.2657 58.6428 27.3558 58.416 27.3558H53.2868C53.0601 27.3558 52.8427 27.2657 52.6824 27.1054C52.522 26.9451 52.432 26.7277 52.432 26.5009V7.40886C52.432 7.25771 52.3719 7.11275 52.265 7.00588C52.1582 6.899 52.0132 6.83895 51.862 6.83895C51.7109 6.83895 51.5659 6.899 51.4591 7.00588C51.3522 7.11275 51.2921 7.25771 51.2921 7.40886V13.7662C51.271 17.3639 49.8325 20.8082 47.2886 23.3522C44.7446 25.8962 41.3002 27.3347 37.7026 27.3558H31.6302C31.4072 27.3559 31.1931 27.2689 31.0334 27.1133C30.8737 26.9578 30.7811 26.746 30.7753 26.5232V13.6779C30.7791 11.8641 30.0623 10.1231 28.7825 8.83778C27.5027 7.5525 25.7647 6.82827 23.9509 6.82442C22.1371 6.82056 20.396 7.5374 19.1107 8.81722C17.8255 10.0971 17.1012 11.835 17.0974 13.6488C17.0974 13.6289 17.0974 13.6089 17.0974 13.5918V26.5009C17.0974 26.7277 17.0073 26.9451 16.847 27.1054C16.6867 27.2657 16.4692 27.3558 16.2425 27.3558H11.1133C10.8866 27.3558 10.6691 27.2657 10.5088 27.1054C10.3485 26.9451 10.2584 26.7277 10.2584 26.5009V13.4716C10.2584 13.5109 10.2584 13.5502 10.2584 13.5896C10.2447 12.5047 9.97298 11.4387 9.46585 10.4796C8.95872 9.52055 8.23069 8.69586 7.34189 8.07371C6.45308 7.45155 5.42902 7.04978 4.35427 6.90157C3.27952 6.75337 2.18493 6.86298 1.16091 7.22136L1.10905 7.2396C1.02668 7.26483 0.941018 7.2777 0.854869 7.27778C0.628144 7.27778 0.410705 7.18772 0.250386 7.0274C0.0900665 6.86708 3.86253e-08 6.64964 3.86253e-08 6.42292L3.86253e-08 1.11076C-5.78009e-05 0.918278 0.0648447 0.731408 0.184202 0.580401C0.30356 0.429394 0.470388 0.323087 0.65768 0.278687C0.675917 0.274698 0.694724 0.270709 0.714671 0.267859H0.726639C1.58484 0.0958931 2.4576 0.00695635 3.33285 0.0022797H3.50952C7.09483 0.0201378 10.5289 1.44901 13.0687 3.9797L13.0926 4.00307C13.2486 4.15017 13.4542 4.23327 13.6686 4.23591C13.883 4.23855 14.0905 4.16053 14.2501 4.01731C14.2718 3.99794 14.2923 3.97742 14.3122 3.95576C16.8496 1.43916 20.2732 0.0187615 23.8469 0L24.0235 0C26.3948 0.0113598 28.722 0.641776 30.7747 1.82885C32.8549 3.02915 34.5821 4.75621 35.7827 6.8362C36.9833 8.91619 37.6148 11.2757 37.6137 13.6773V19.6016C37.6137 19.8283 37.7037 20.0457 37.8641 20.2061C38.0244 20.3664 38.2418 20.4564 38.4685 20.4564C38.4982 20.4564 38.5255 20.4564 38.5557 20.4519C38.5599 20.4525 38.5641 20.4525 38.5683 20.4519L38.6161 20.4456C40.2387 20.2052 41.7208 19.3896 42.7921 18.1476C43.8635 16.9056 44.4528 15.3199 44.4526 13.6796V0.856579C44.4526 0.629853 44.5427 0.412414 44.703 0.252095C44.8633 0.0917762 45.0808 0.00170989 45.3075 0.00170989H58.4155C58.642 0.00155841 58.8593 0.0913233 59.0197 0.251289C59.1801 0.411255 59.2705 0.628341 59.2709 0.854869Z" fill="#025959"/>
</svg>
