<svg width="117" height="287" viewBox="0 0 117 287" fill="none" xmlns="http://www.w3.org/2000/svg">
<g opacity="0.97">
<path d="M117 279.68L117 7.92023C116.952 6.04266 116.199 4.25455 114.894 2.92178C113.589 1.58902 111.831 0.812358 109.98 0.750732L7.8608 0.750732C5.9762 0.812472 4.1892 1.61539 2.87794 2.98959C1.56669 4.36379 0.834038 6.20147 0.835014 8.11377L0.835014 279.494C0.835014 281.447 1.59992 283.32 2.96146 284.701C4.32301 286.082 6.16968 286.858 8.0952 286.858H109.738C111.632 286.859 113.452 286.109 114.809 284.768C116.166 283.426 116.952 281.6 117 279.68ZM12.246 232.188C10.3204 232.188 8.47377 231.412 7.11222 230.031C5.75067 228.651 4.98577 226.778 4.98577 224.825L4.98577 8.10957C4.98577 7.27265 5.31358 6.47002 5.8971 5.87823C6.48062 5.28644 7.27206 4.95398 8.09727 4.95398L109.74 4.95398C110.552 4.95371 111.331 5.27518 111.913 5.84979C112.494 6.42439 112.831 7.20664 112.851 8.02962L112.851 224.825C112.851 226.778 112.086 228.651 110.725 230.031C109.363 231.412 107.517 232.188 105.591 232.188H12.246Z" fill="#FFF9F1"/>
<path d="M107.65 72.7846C107.465 72.7846 107.284 72.7345 107.125 72.6394C106.965 72.5444 106.834 72.4078 106.744 72.2439C106.725 72.2114 106.709 72.1776 106.694 72.143C104.488 67.8827 101.738 63.9353 98.517 60.4021L98.4444 60.32C98.2929 60.1321 98.2102 59.8969 98.2102 59.6542C98.2102 59.4115 98.2929 59.1763 98.4444 58.9884L98.5274 58.8979C101.761 55.347 104.518 51.3779 106.725 47.0939L106.75 47.0476C106.864 46.8464 107.039 46.6888 107.25 46.5994C107.461 46.51 107.696 46.4938 107.917 46.5533C108.137 46.6128 108.333 46.7447 108.472 46.9284C108.612 47.1122 108.687 47.3375 108.688 47.5693V71.7327C108.688 72.0117 108.578 72.2793 108.384 72.4765C108.189 72.6738 107.925 72.7846 107.65 72.7846Z" fill="#FFF9F1"/>
<path d="M33.479 198.495H10.1614C9.88634 198.495 9.62253 198.384 9.42803 198.187C9.23352 197.99 9.12424 197.722 9.12424 197.443V173.795C9.12437 173.563 9.20004 173.338 9.33946 173.154C9.4789 172.97 9.67427 172.839 9.89523 172.779C10.1162 172.72 10.3504 172.736 10.5613 172.825C10.7722 172.915 10.9481 173.072 11.0617 173.273V173.286C11.0691 173.297 11.0754 173.308 11.0803 173.32C16.1985 183.228 24.1763 191.317 33.9478 196.505C33.9596 196.51 33.9707 196.516 33.981 196.524H33.9935C34.1919 196.639 34.3473 196.817 34.4354 197.031C34.5236 197.245 34.5396 197.483 34.4809 197.707C34.4222 197.931 34.2922 198.129 34.111 198.27C33.9298 198.412 33.7077 198.489 33.479 198.489V198.495Z" fill="#FFF9F1"/>
<path d="M58.9129 118.554C53.4114 118.554 48.1352 116.338 44.2451 112.393C40.3549 108.447 38.1695 103.097 38.1695 97.5171V97.5024C38.1695 91.9229 40.3549 86.572 44.2451 82.6268C48.1352 78.6815 53.4114 76.4651 58.9129 76.4651C64.4144 76.4651 69.6905 78.6815 73.5807 82.6268C77.4708 86.572 79.6562 91.9229 79.6562 97.5024V97.5192C79.6557 103.098 77.47 108.449 73.5799 112.393C69.6898 116.338 64.414 118.554 58.9129 118.554Z" fill="#FFF9F1"/>
<path d="M42.0562 118.556H10.1632C9.88818 118.556 9.62437 118.445 9.42986 118.248C9.23536 118.051 9.12608 117.783 9.12608 117.504V77.5333C9.12608 77.2543 9.23536 76.9868 9.42986 76.7895C9.62437 76.5923 9.88818 76.4814 10.1632 76.4814H42.0562C42.2699 76.4814 42.4784 76.5482 42.6532 76.6729C42.828 76.7976 42.9606 76.974 43.0328 77.178C43.105 77.382 43.1133 77.6036 43.0565 77.8125C42.9998 78.0215 42.8808 78.2076 42.7158 78.3453C39.9847 80.713 37.7926 83.6533 36.2906 86.9635C34.7887 90.2737 34.0126 93.8749 34.0161 97.5187C34.0161 98.1638 34.0396 98.8027 34.0866 99.4352C34.3329 102.745 35.222 105.974 36.703 108.934C38.1839 111.895 40.2274 114.529 42.7158 116.686C42.8808 116.824 42.9998 117.01 43.0565 117.219C43.1133 117.428 43.105 117.649 43.0328 117.853C42.9606 118.057 42.828 118.234 42.6532 118.358C42.4784 118.483 42.2699 118.55 42.0562 118.55V118.556Z" fill="#FFF9F1"/>
<path d="M107.65 169.046H58.9034C54.3627 169.047 49.9471 167.537 46.3341 164.748C42.7212 161.958 40.1105 158.044 38.9026 153.605L38.8694 153.481C38.8551 153.411 38.8482 153.341 38.8487 153.27C38.8487 152.991 38.958 152.724 39.1525 152.526C39.347 152.329 39.6108 152.218 39.8859 152.218H58.9034C68.7517 152.226 78.4137 149.496 86.8394 144.325C95.265 139.154 102.132 131.74 106.694 122.888C106.712 122.844 106.734 122.802 106.758 122.762C106.874 122.564 107.052 122.409 107.262 122.323C107.473 122.237 107.706 122.223 107.926 122.285C108.145 122.346 108.338 122.478 108.476 122.662C108.614 122.845 108.688 123.07 108.687 123.3V167.996C108.687 168.275 108.577 168.542 108.383 168.739C108.189 168.935 107.925 169.046 107.65 169.046Z" fill="#FFF9F1"/>
<path d="M42.1673 25.9929C36.6508 25.9952 31.22 24.6087 26.3621 21.9577C21.5042 19.3067 17.3712 15.4742 14.3338 10.804C14.2283 10.6457 14.1673 10.4612 14.1574 10.2704C14.1474 10.0795 14.1889 9.88958 14.2774 9.72088C14.3659 9.55218 14.4981 9.41112 14.6597 9.31285C14.8213 9.21457 15.0062 9.1628 15.1946 9.16309L69.1419 9.16309C69.3216 9.16299 69.4983 9.21023 69.6545 9.3002C69.8108 9.39017 69.9414 9.51976 70.0334 9.67629C70.1254 9.83282 70.1757 10.0109 70.1795 10.1931C70.1832 10.3753 70.1402 10.5554 70.0547 10.7156L70.0422 10.7367C70.0194 10.7745 69.9966 10.8103 69.9696 10.8482C66.9313 15.507 62.8013 19.3289 57.9493 21.9719C53.0973 24.615 47.6748 25.9965 42.1673 25.9929Z" fill="#FFF9F1"/>
<path d="M58.8958 42.8258L10.1489 42.8258C9.87378 42.8258 9.60996 42.715 9.41546 42.5177C9.22095 42.3205 9.11169 42.0529 9.11169 41.774V13.9501C9.11119 13.7245 9.18224 13.5047 9.31435 13.3231C9.44646 13.1416 9.63261 13.0079 9.84535 12.9419C10.0581 12.8759 10.2861 12.881 10.4958 12.9565C10.7054 13.0319 10.8856 13.1738 11.0097 13.361C14.2187 18.2186 18.4902 22.2592 23.4913 25.1682C28.4925 28.0771 34.0884 29.7758 39.843 30.132C40.6022 30.1796 41.3669 30.2035 42.1372 30.2035C48.7624 30.2015 55.269 28.4201 60.9951 25.0405C66.7213 21.661 71.4628 16.8037 74.7375 10.9628L74.8557 10.7524C74.9516 10.6152 75.0784 10.5033 75.2257 10.4261C75.3729 10.3489 75.5363 10.3086 75.7021 10.3086C75.8678 10.3086 76.0312 10.3489 76.1785 10.4261C76.3257 10.5033 76.4526 10.6152 76.5484 10.7524C76.5493 10.7559 76.5493 10.7595 76.5484 10.7629L76.6148 10.8765C78.5207 14.0667 79.556 17.7135 79.6146 21.4431C79.6731 25.1727 78.7529 28.851 76.9481 32.1011C75.1433 35.3512 72.5189 38.0562 69.3438 39.9389C66.1687 41.8216 62.5572 42.8144 58.8792 42.8153L58.8958 42.8258Z" fill="#FFF9F1"/>
<path d="M105.576 227.951H12.2308C11.4056 227.951 10.6141 227.618 10.0306 227.026C9.4471 226.435 9.11929 225.632 9.11929 224.795V205.861C9.11929 205.025 9.4471 204.222 10.0306 203.63C10.6141 203.038 11.4056 202.706 12.2308 202.706H81.7211C82.2713 202.706 82.7989 202.484 83.1879 202.09C83.5769 201.695 83.7954 201.16 83.7954 200.602C83.7954 200.044 83.5769 199.509 83.1879 199.115C82.7989 198.72 82.2713 198.498 81.7211 198.498H58.5819C45.4873 198.421 32.9508 193.111 23.6914 183.72C14.4319 174.329 9.19604 161.615 9.11929 148.335L9.11929 125.92C9.11901 125.097 9.43571 124.307 10.0018 123.717C10.568 123.128 11.3388 122.786 12.1499 122.764H58.9034C65.5052 122.779 71.8421 120.132 76.5202 115.408C81.1983 110.684 83.8343 104.269 83.8483 97.5732C83.8624 90.8779 81.2533 84.4512 76.595 79.7068C71.9368 74.9625 65.611 72.2891 59.0092 72.2749C59.0818 72.2749 59.1544 72.2749 59.2166 72.2749H12.2308C11.4056 72.2749 10.6141 71.9424 10.0306 71.3506C9.4471 70.7588 9.11929 69.9562 9.11929 69.1193V50.1857C9.11929 49.3488 9.4471 48.5462 10.0306 47.9544C10.6141 47.3626 11.4056 47.0302 12.2308 47.0302L59.6543 47.0302C59.5112 47.0302 59.368 47.0302 59.2249 47.0302C63.1734 46.9793 67.0534 45.9765 70.5442 44.1045C74.0351 42.2325 77.0368 39.5451 79.3012 36.2643C81.5657 32.9834 83.0281 29.2033 83.5675 25.236C84.107 21.2688 83.708 17.2283 82.4036 13.4484L82.3372 13.2569C82.2454 12.9529 82.1985 12.6367 82.1982 12.3187C82.1982 11.4818 82.526 10.6791 83.1095 10.0873C83.6931 9.49555 84.4845 9.16309 85.3097 9.16309L104.645 9.16309C105.345 9.16287 106.025 9.40245 106.575 9.84303C107.125 10.2836 107.512 10.8994 107.673 11.5908C107.688 11.6581 107.702 11.7275 107.713 11.8012V11.8453C108.338 15.0132 108.662 18.2349 108.679 21.4657V22.1178C108.614 35.3523 103.413 48.0286 94.2024 57.4036L94.1174 57.492C93.5819 58.0678 93.2795 58.8267 93.2698 59.6181C93.2602 60.4095 93.5442 61.1756 94.0655 61.7647C94.136 61.8446 94.2107 61.9203 94.2895 61.994C103.449 71.3602 108.619 83.9977 108.688 97.1893V97.8415C108.646 106.594 106.352 115.185 102.031 122.762C97.6621 130.441 91.3761 136.817 83.8055 141.248C76.2348 145.68 67.6467 148.011 58.9055 148.007H37.3427C36.5175 148.007 35.7261 148.339 35.1426 148.931C34.559 149.523 34.2312 150.326 34.2312 151.163C34.2312 151.272 34.2312 151.373 34.2478 151.484C34.2457 151.5 34.2457 151.515 34.2478 151.531L34.2706 151.707C35.1458 157.697 38.1143 163.168 42.6349 167.122C47.1555 171.077 52.927 173.252 58.8972 173.252H105.57C106.395 173.252 107.186 173.584 107.77 174.176C108.353 174.768 108.681 175.57 108.681 176.407V224.793C108.682 225.629 108.355 226.431 107.773 227.023C107.191 227.615 106.4 227.949 105.576 227.951Z" fill="#FFF9F1"/>
<path d="M30.123 241.289C30.2798 241.292 30.4342 241.329 30.5752 241.399C30.7228 241.465 30.8483 241.573 30.9362 241.71L35.5205 248.793L34.7447 248.756L39.4181 241.71C39.4955 241.581 39.6043 241.475 39.734 241.401C39.8637 241.328 40.01 241.289 40.1587 241.289C40.3977 241.289 40.6273 241.384 40.7976 241.555C40.8885 241.639 40.9606 241.742 41.0089 241.857C41.0572 241.972 41.0806 242.096 41.0776 242.221V253.186C41.0817 253.309 41.0614 253.431 41.0179 253.546C40.9744 253.66 40.9087 253.765 40.8245 253.853C40.7379 253.942 40.6339 254.011 40.5192 254.057C40.4046 254.102 40.2818 254.123 40.1587 254.118C40.0312 254.124 39.9038 254.104 39.7843 254.058C39.6648 254.013 39.5557 253.943 39.4638 253.853C39.377 253.766 39.3088 253.662 39.2635 253.547C39.2181 253.433 39.1966 253.31 39.2003 253.186V243.906L39.7791 244.035L35.8088 250.165C35.7185 250.279 35.6081 250.376 35.4831 250.449C35.3551 250.517 35.2127 250.552 35.0683 250.552C34.9238 250.552 34.7814 250.517 34.6534 250.449C34.5252 250.377 34.4119 250.28 34.3194 250.165L30.4943 244.125L30.9279 243.393V253.186C30.936 253.432 30.8481 253.672 30.6831 253.853C30.6016 253.941 30.5024 254.01 30.3921 254.056C30.2819 254.102 30.1632 254.123 30.0442 254.118C29.928 254.12 29.8125 254.098 29.7053 254.052C29.5981 254.007 29.5015 253.939 29.4219 253.853C29.2583 253.671 29.1712 253.432 29.1792 253.186V242.221C29.178 242.098 29.2024 241.976 29.2506 241.862C29.2988 241.749 29.3699 241.647 29.4592 241.563C29.546 241.474 29.6496 241.405 29.7636 241.358C29.8777 241.311 29.9999 241.287 30.123 241.289Z" fill="black"/>
<path d="M55.5545 243.684L51.4929 253.571C51.4308 253.753 51.3185 253.912 51.1694 254.03C51.0292 254.138 50.8578 254.195 50.6819 254.194C50.5718 254.203 50.4613 254.187 50.358 254.147C50.2548 254.107 50.1614 254.045 50.0845 253.965C49.9524 253.802 49.8792 253.599 49.877 253.388C49.88 253.289 49.8982 253.19 49.931 253.096L54.5153 241.858C54.5887 241.665 54.7173 241.5 54.8845 241.382C55.0411 241.275 55.2289 241.224 55.4176 241.237C55.599 241.238 55.7758 241.295 55.9237 241.401C56.0814 241.514 56.201 241.674 56.266 241.858L60.7964 252.932C60.8426 253.048 60.8666 253.172 60.8669 253.298C60.8699 253.413 60.8504 253.528 60.8094 253.636C60.7684 253.743 60.7067 253.842 60.628 253.925C60.5493 254.008 60.4551 254.075 60.3509 254.121C60.2466 254.167 60.1343 254.192 60.0206 254.194C59.8403 254.194 59.6651 254.134 59.5227 254.022C59.3731 253.905 59.2576 253.749 59.1887 253.571L55.0919 243.743L55.5545 243.684ZM52.2148 250.969L53.028 249.212H58.1246L58.4316 250.969H52.2148Z" fill="black"/>
<path d="M72.6104 254.298C71.9297 254.305 71.2585 254.136 70.6605 253.806C70.0766 253.48 69.5857 253.007 69.2354 252.432C69.1367 252.279 69.0807 252.102 69.0736 251.919C69.0728 251.798 69.0982 251.679 69.148 251.57C69.1979 251.461 69.2709 251.365 69.362 251.288C69.5168 251.133 69.722 251.042 69.9386 251.031C70.1021 251.03 70.2623 251.077 70.3991 251.168C70.5417 251.264 70.672 251.378 70.787 251.506C71.0043 251.803 71.2815 252.05 71.6002 252.23C71.9112 252.397 72.2586 252.481 72.6104 252.476C73.0211 252.483 73.4261 252.379 73.7845 252.175C74.1276 251.979 74.4138 251.695 74.6142 251.351C74.8179 251.005 74.9241 250.609 74.9212 250.206V242.246C74.9183 242.12 74.9426 241.995 74.9924 241.88C75.0422 241.765 75.1163 241.662 75.2095 241.579C75.3901 241.406 75.6293 241.31 75.8775 241.312C76.001 241.307 76.1241 241.328 76.2391 241.374C76.3541 241.42 76.4584 241.49 76.5454 241.579C76.6288 241.668 76.6939 241.772 76.737 241.887C76.7801 242.001 76.8003 242.123 76.7964 242.246V250.206C76.8029 250.928 76.6126 251.638 76.2467 252.257C75.8827 252.877 75.3668 253.391 74.749 253.749C74.0975 254.123 73.3589 254.313 72.6104 254.298Z" fill="black"/>
<path d="M88.656 253.185C88.6537 253.311 88.6262 253.435 88.5752 253.55C88.5242 253.664 88.4508 253.767 88.3594 253.852C88.1823 254.025 87.9454 254.12 87.6997 254.117C87.5752 254.122 87.4509 254.101 87.3347 254.055C87.2184 254.01 87.1125 253.941 87.0235 253.852C86.9374 253.765 86.8698 253.661 86.8248 253.546C86.7799 253.431 86.7585 253.309 86.7621 253.185V242.246C86.7586 242.122 86.7808 241.998 86.8272 241.883C86.8737 241.769 86.9434 241.665 87.0318 241.579C87.1259 241.489 87.2368 241.419 87.3579 241.373C87.479 241.328 87.6079 241.307 87.7371 241.312C87.9764 241.312 88.2059 241.408 88.376 241.579C88.4669 241.663 88.5389 241.767 88.5873 241.882C88.6356 241.997 88.659 242.121 88.656 242.246V253.185Z" fill="black"/>
<path d="M15.9645 265.622C16.7684 265.606 17.565 265.779 18.292 266.127C18.9532 266.452 19.5312 266.928 19.9805 267.518C20.4419 268.131 20.7872 268.826 20.999 269.567C21.2312 270.366 21.3472 271.196 21.3433 272.03C21.3548 273.138 21.143 274.237 20.721 275.259C20.3446 276.187 19.7194 276.988 18.9163 277.573C18.1212 278.146 17.1345 278.432 15.9563 278.432H11.5607C11.4405 278.434 11.3212 278.411 11.2097 278.366C11.0981 278.32 10.9968 278.253 10.9115 278.167C10.8228 278.081 10.7528 277.977 10.706 277.862C10.6591 277.748 10.6366 277.624 10.6397 277.5V266.56C10.6366 266.436 10.6591 266.313 10.706 266.198C10.7528 266.083 10.8228 265.979 10.9115 265.894C10.9966 265.807 11.098 265.739 11.2095 265.693C11.321 265.648 11.4404 265.625 11.5607 265.626L15.9645 265.622ZM15.7841 276.677C16.6387 276.677 17.3301 276.467 17.8584 276.046C18.3969 275.609 18.8013 275.025 19.0242 274.363C19.2767 273.619 19.4016 272.836 19.3934 272.049C19.3971 271.454 19.3274 270.86 19.186 270.282C19.0575 269.756 18.8376 269.257 18.5367 268.809C18.2483 268.383 17.8645 268.032 17.4166 267.785C16.9124 267.522 16.3507 267.393 15.7841 267.41H12.3739L12.5357 267.244V276.89L12.4278 276.707L15.7841 276.677Z" fill="black"/>
<path d="M31.5094 265.621H37.7531C37.8714 265.619 37.989 265.64 38.099 265.684C38.2091 265.728 38.3094 265.794 38.3941 265.878C38.478 265.959 38.5445 266.057 38.5895 266.166C38.6345 266.275 38.6569 266.391 38.6555 266.509C38.6607 266.627 38.64 266.745 38.5948 266.854C38.5496 266.964 38.481 267.061 38.3941 267.14C38.2178 267.299 37.9887 267.384 37.7531 267.378H32.3018L32.4822 267.067V271.167L32.3204 270.984H36.94C37.0582 270.981 37.1757 271.002 37.2858 271.045C37.3958 271.089 37.4962 271.155 37.581 271.238C37.6674 271.324 37.7353 271.427 37.7803 271.541C37.8253 271.654 37.8464 271.776 37.8423 271.899C37.8478 272.017 37.8272 272.135 37.782 272.244C37.7368 272.354 37.6681 272.451 37.581 272.53C37.4055 272.69 37.1761 272.776 36.94 272.77H32.3578L32.4822 272.604V276.826L32.3578 276.678H37.7511C37.87 276.676 37.9883 276.698 38.0985 276.744C38.2087 276.79 38.3086 276.858 38.392 276.944C38.4747 277.022 38.5405 277.118 38.5855 277.223C38.6304 277.329 38.6535 277.443 38.6534 277.558C38.6571 277.676 38.6356 277.793 38.5905 277.902C38.5454 278.011 38.4777 278.109 38.392 278.189C38.2181 278.353 37.9882 278.441 37.7511 278.435H31.5073C31.3868 278.437 31.2671 278.415 31.1552 278.369C31.0434 278.324 30.9416 278.256 30.8559 278.17C30.7675 278.084 30.6978 277.98 30.6514 277.866C30.6049 277.751 30.5828 277.627 30.5863 277.503V266.564C30.5828 266.44 30.6049 266.316 30.6514 266.201C30.6978 266.086 30.7675 265.983 30.8559 265.897C30.9411 265.809 31.0428 265.739 31.155 265.692C31.2673 265.644 31.3878 265.62 31.5094 265.621Z" fill="black"/>
<path d="M51.8066 278.61C51.022 278.622 50.2412 278.498 49.4978 278.244C48.7829 277.971 48.128 277.558 47.5708 277.028C47.4433 276.937 47.3406 276.815 47.2721 276.673C47.2086 276.541 47.1746 276.398 47.1725 276.252C47.1712 276.016 47.2622 275.789 47.4256 275.621C47.5056 275.532 47.6035 275.461 47.7126 275.414C47.8218 275.367 47.9396 275.344 48.0582 275.347C48.2572 275.352 48.4484 275.426 48.5996 275.558C49.0208 275.96 49.5052 276.287 50.033 276.527C50.5918 276.757 51.1911 276.869 51.7941 276.856C52.2467 276.861 52.6964 276.781 53.1196 276.618C53.4854 276.486 53.8161 276.27 54.0863 275.987C54.3205 275.734 54.4498 275.399 54.4472 275.053C54.4612 274.655 54.3288 274.267 54.0759 273.963C53.7811 273.644 53.4166 273.4 53.0118 273.25C52.4742 273.038 51.9187 272.876 51.3523 272.766C50.7997 272.669 50.2583 272.515 49.7364 272.307C49.2927 272.131 48.8812 271.881 48.5187 271.567C48.1855 271.272 47.9206 270.906 47.7429 270.496C47.5545 270.038 47.4627 269.545 47.4733 269.049C47.4554 268.362 47.6577 267.688 48.0499 267.128C48.4536 266.577 48.996 266.147 49.6202 265.882C50.3282 265.58 51.0904 265.431 51.8584 265.443C52.5828 265.438 53.3027 265.559 53.9867 265.8C54.5848 265.999 55.1332 266.327 55.5943 266.762C55.7214 266.858 55.8259 266.982 55.9005 267.124C55.9751 267.266 56.0178 267.424 56.0258 267.584C56.0212 267.816 55.9274 268.036 55.7644 268.199C55.6897 268.287 55.5971 268.358 55.493 268.407C55.3888 268.456 55.2756 268.482 55.1608 268.483C55.0037 268.487 54.8502 268.435 54.7272 268.335C54.5032 268.104 54.2405 267.916 53.9514 267.778C53.619 267.606 53.2718 267.465 52.9143 267.357C52.5718 267.252 52.2163 267.196 51.8584 267.193C51.3853 267.181 50.9141 267.258 50.4686 267.42C50.1237 267.547 49.8185 267.765 49.5849 268.051C49.3797 268.314 49.2711 268.642 49.2779 268.977C49.2637 269.351 49.3889 269.717 49.6285 270.002C49.9008 270.294 50.2378 270.517 50.6117 270.652C51.086 270.832 51.571 270.981 52.0638 271.1C52.6655 271.229 53.2591 271.394 53.8415 271.594C54.3199 271.752 54.7687 271.99 55.1691 272.299C55.5272 272.582 55.812 272.95 55.9988 273.37C56.2061 273.873 56.3044 274.417 56.2871 274.962C56.2982 275.655 56.079 276.332 55.6648 276.883C55.2434 277.442 54.6878 277.884 54.051 278.164C53.3431 278.474 52.5776 278.627 51.8066 278.61Z" fill="black"/>
<path d="M67.3904 277.495C67.3876 277.621 67.3599 277.745 67.3089 277.859C67.258 277.974 67.1848 278.077 67.0937 278.162C66.9167 278.335 66.6798 278.43 66.4341 278.427C66.3095 278.432 66.1853 278.411 66.0691 278.365C65.9528 278.32 65.8469 278.251 65.7579 278.162C65.6717 278.075 65.6041 277.971 65.5592 277.856C65.5142 277.741 65.4929 277.619 65.4965 277.495V266.556C65.493 266.432 65.5151 266.308 65.5616 266.193C65.608 266.079 65.6777 265.975 65.7662 265.889C65.86 265.799 65.9705 265.73 66.0913 265.684C66.212 265.638 66.3405 265.617 66.4694 265.622C66.7093 265.622 66.9395 265.718 67.1103 265.889C67.2013 265.973 67.2733 266.077 67.3216 266.192C67.3699 266.307 67.3934 266.431 67.3904 266.556V277.495Z" fill="black"/>
<path d="M83.2074 278.617C82.3287 278.624 81.4576 278.452 80.6456 278.112C79.8693 277.785 79.1643 277.306 78.5712 276.702C77.9763 276.099 77.5017 275.384 77.1731 274.599C76.8385 273.781 76.6662 272.904 76.6662 272.018C76.6662 271.133 76.8385 270.256 77.1731 269.438C77.5017 268.652 77.9763 267.938 78.5712 267.335C79.1643 266.731 79.8693 266.252 80.6456 265.925C81.4576 265.585 82.3287 265.413 83.2074 265.42C83.7853 265.423 84.361 265.493 84.9228 265.631C85.4467 265.754 85.9509 265.952 86.4205 266.217C86.5656 266.292 86.6849 266.409 86.7628 266.554C86.8327 266.683 86.8698 266.828 86.8706 266.975C86.8746 267.221 86.788 267.459 86.6279 267.644C86.5544 267.734 86.4618 267.806 86.3569 267.856C86.2521 267.905 86.1377 267.929 86.0222 267.928C85.9338 267.927 85.8459 267.914 85.7609 267.89C85.6772 267.868 85.5959 267.838 85.5182 267.799C85.1736 267.626 84.8102 267.494 84.4354 267.406C84.0327 267.312 83.6206 267.265 83.2074 267.267C82.3949 267.258 81.595 267.47 80.8916 267.883C80.1882 268.295 79.6073 268.892 79.2101 269.611C78.8136 270.351 78.6059 271.179 78.6059 272.022C78.6059 272.864 78.8136 273.693 79.2101 274.432C79.604 275.155 80.1839 275.755 80.8879 276.169C81.5919 276.584 82.3936 276.796 83.2074 276.784C83.6568 276.782 84.1046 276.73 84.5432 276.631C84.9564 276.543 85.3566 276.402 85.7339 276.21L85.5908 276.705V273.227L85.8791 273.482H83.5144C83.3936 273.486 83.2732 273.465 83.1604 273.421C83.0475 273.378 82.9443 273.312 82.8568 273.227C82.6891 273.05 82.5954 272.813 82.5954 272.568C82.5954 272.322 82.6891 272.085 82.8568 271.908C82.9441 271.823 83.0472 271.757 83.1601 271.713C83.273 271.669 83.3934 271.648 83.5144 271.651H86.6362C86.7554 271.649 86.8737 271.672 86.984 271.718C87.0942 271.764 87.194 271.832 87.2772 271.919C87.3633 272.006 87.4309 272.11 87.4759 272.225C87.5208 272.339 87.5422 272.462 87.5386 272.585V276.648C87.5446 276.824 87.4944 276.997 87.3955 277.142C87.3058 277.27 87.1957 277.381 87.0698 277.472C86.5083 277.824 85.9046 278.101 85.2734 278.297C84.6046 278.509 83.908 278.617 83.2074 278.617Z" fill="black"/>
<path d="M106.384 265.621C106.494 265.618 106.603 265.638 106.704 265.681C106.805 265.724 106.896 265.788 106.971 265.87C107.121 266.037 107.202 266.256 107.195 266.482V277.501C107.198 277.625 107.177 277.747 107.132 277.862C107.087 277.977 107.019 278.081 106.933 278.168C106.847 278.255 106.745 278.324 106.632 278.369C106.519 278.415 106.398 278.437 106.276 278.433C106.143 278.432 106.011 278.407 105.886 278.362C105.764 278.322 105.655 278.249 105.571 278.151L98.155 268.411L98.5698 268.173V277.598C98.5718 277.708 98.5521 277.817 98.5118 277.92C98.4716 278.022 98.4116 278.115 98.3354 278.193C98.2582 278.274 98.1652 278.338 98.0623 278.38C97.9594 278.423 97.849 278.443 97.738 278.44C97.6259 278.445 97.514 278.425 97.4098 278.383C97.3057 278.34 97.2118 278.276 97.1344 278.193C96.9849 278.033 96.9037 277.819 96.9083 277.598V266.562C96.9035 266.436 96.9253 266.31 96.9722 266.193C97.019 266.077 97.0899 265.971 97.18 265.884C97.3548 265.716 97.588 265.624 97.8293 265.628C97.9714 265.631 98.1118 265.659 98.2442 265.712C98.3793 265.754 98.4967 265.841 98.5781 265.958L105.815 275.511L105.546 275.768V266.488C105.542 266.375 105.561 266.263 105.602 266.158C105.642 266.053 105.703 265.957 105.78 265.876C105.857 265.793 105.951 265.727 106.055 265.683C106.159 265.639 106.271 265.618 106.384 265.621Z" fill="black"/>
</g>
</svg>
