<svg width="234" height="130" viewBox="0 0 234 130" fill="none" xmlns="http://www.w3.org/2000/svg">
<path d="M68.4251 1.11642C68.4251 1.31545 68.3719 1.51086 68.271 1.68242C68.1701 1.85398 68.0252 1.99545 67.8512 2.09218C67.8167 2.11225 67.7809 2.13015 67.7441 2.14576C63.2227 4.5187 59.033 7.47576 55.2826 10.9409L55.1955 11.0191C54.9961 11.1821 54.7464 11.2712 54.4888 11.2712C54.2312 11.2712 53.9815 11.1821 53.7821 11.0191L53.6861 10.9298C49.9247 7.45138 45.7204 4.48507 41.1822 2.1078L41.133 2.08101C40.923 1.95877 40.7585 1.77131 40.6647 1.5471C40.5708 1.32289 40.5527 1.07419 40.6131 0.838755C40.6735 0.603321 40.809 0.394021 40.9992 0.24264C41.1894 0.0912583 41.4237 0.00606582 41.6667 0L67.3087 0C67.6048 0 67.8887 0.117623 68.0981 0.326992C68.3075 0.536362 68.4251 0.820329 68.4251 1.11642Z" fill="#F49E33"/>
<path d="M201.847 80.9608V106.06C201.847 106.356 201.73 106.64 201.52 106.85C201.311 107.059 201.027 107.177 200.731 107.177H175.631C175.385 107.176 175.146 107.095 174.951 106.945C174.756 106.795 174.616 106.585 174.553 106.347C174.49 106.109 174.507 105.857 174.602 105.63C174.697 105.403 174.864 105.213 175.078 105.091H175.091C175.102 105.083 175.114 105.076 175.127 105.071C185.644 99.5618 194.229 90.9744 199.735 80.4561C199.74 80.4435 199.747 80.4315 199.755 80.4204V80.407C199.877 80.1934 200.067 80.0262 200.294 79.9313C200.521 79.8364 200.773 79.8192 201.011 79.8824C201.248 79.9455 201.459 80.0855 201.609 80.2805C201.759 80.4755 201.84 80.7147 201.841 80.9608H201.847Z" fill="#04BFBF"/>
<path d="M116.993 53.5882C116.993 59.5101 114.64 65.1894 110.453 69.3768C106.266 73.5642 100.586 75.9167 94.6644 75.9167H94.6488C88.7269 75.9167 83.0476 73.5642 78.8602 69.3768C74.6728 65.1894 72.3203 59.5101 72.3203 53.5882C72.3203 47.6663 74.6728 41.987 78.8602 37.7996C83.0476 33.6122 88.7269 31.2598 94.6488 31.2598H94.6644C100.586 31.2598 106.266 33.6122 110.453 37.7996C114.64 41.987 116.993 47.6663 116.993 53.5882Z" fill="#04BFBF"/>
<path d="M117.001 71.7304V106.06C117.001 106.356 116.883 106.64 116.674 106.85C116.464 107.059 116.18 107.177 115.884 107.177H73.4602C73.1641 107.177 72.8801 107.059 72.6707 106.85C72.4614 106.64 72.3438 106.356 72.3438 106.06V71.7304C72.3437 71.5004 72.4146 71.2759 72.547 71.0878C72.6793 70.8996 72.8665 70.7569 73.083 70.6792C73.2995 70.6015 73.5348 70.5926 73.7566 70.6536C73.9783 70.7147 74.1758 70.8428 74.322 71.0204C76.8352 73.9597 79.9561 76.319 83.4694 77.9353C86.9828 79.5517 90.8049 80.3866 94.6722 80.3827C95.3584 80.3827 96.0365 80.3574 96.7063 80.3068C100.22 80.0417 103.646 79.0845 106.788 77.4904C109.931 75.8963 112.727 73.6967 115.016 71.0181C115.162 70.8405 115.359 70.7125 115.581 70.6514C115.803 70.5903 116.038 70.5993 116.255 70.677C116.471 70.7547 116.658 70.8974 116.791 71.0855C116.923 71.2737 116.994 71.4981 116.994 71.7282L117.001 71.7304Z" fill="#04BFBF"/>
<path d="M170.578 1.11642V53.5882C170.579 58.4759 168.976 63.229 166.016 67.118C163.055 71.007 158.9 73.8172 154.189 75.1173L154.057 75.153C153.984 75.1684 153.909 75.1759 153.834 75.1754C153.538 75.1754 153.254 75.0578 153.044 74.8484C152.835 74.639 152.717 74.355 152.717 74.059V53.5882C152.725 42.9874 149.828 32.5871 144.339 23.5176C138.851 14.4481 130.982 7.05641 121.587 2.14576C121.541 2.12628 121.496 2.10313 121.453 2.07654C121.243 1.95173 121.079 1.76129 120.987 1.53449C120.896 1.30769 120.881 1.05709 120.946 0.821203C121.011 0.585314 121.151 0.377195 121.345 0.228831C121.54 0.080468 121.778 7.19011e-05 122.022 0L169.461 0C169.757 0 170.041 0.117623 170.251 0.326992C170.46 0.536362 170.578 0.820328 170.578 1.11642Z" fill="#F49E33"/>
<path d="M18.7534 71.6161C18.7535 72.9154 18.6834 74.2139 18.5435 75.5057C17.9735 80.7544 16.2519 85.8126 13.5015 90.3192C10.751 94.8258 7.03965 98.6697 2.63224 101.576C2.46421 101.69 2.26841 101.756 2.06587 101.766C1.86333 101.777 1.66171 101.732 1.48266 101.637C1.3036 101.542 1.15388 101.4 1.04958 101.226C0.945271 101.052 0.89032 100.853 0.890626 100.65V42.5802C0.890519 42.3868 0.940666 42.1966 1.03615 42.0284C1.13164 41.8602 1.26919 41.7197 1.43533 41.6206C1.60147 41.5216 1.79049 41.4674 1.98387 41.4634C2.17725 41.4594 2.36836 41.5057 2.53847 41.5977L2.56079 41.6111C2.60098 41.6357 2.63894 41.6602 2.67913 41.6893C7.62385 44.9597 11.6804 49.4053 14.4856 54.6281C17.2909 59.8508 18.7572 65.6877 18.7534 71.6161Z" fill="#04BFBF"/>
<path d="M36.6224 53.5883V106.06C36.6224 106.356 36.5048 106.64 36.2954 106.85C36.086 107.059 35.8021 107.177 35.506 107.177H5.97437C5.7349 107.177 5.5016 107.101 5.30892 106.958C5.11624 106.816 4.97439 106.616 4.90431 106.387C4.83424 106.158 4.83965 105.912 4.91976 105.687C4.99986 105.461 5.15041 105.267 5.34917 105.133C10.5049 101.679 14.7935 97.0814 17.881 91.6981C20.9685 86.3148 22.7714 80.2913 23.1494 74.097C23.2 73.2797 23.2253 72.4566 23.2253 71.6274C23.233 65.7761 21.9653 59.9935 19.5105 54.682C17.0557 49.3705 13.4727 44.6579 9.01104 40.8722C7.08272 39.2318 5.00447 37.7763 2.80373 36.5249L2.58045 36.3976C2.43484 36.2945 2.31607 36.1579 2.23411 35.9994C2.15215 35.8409 2.10938 35.6651 2.10938 35.4866C2.10938 35.3082 2.15215 35.1323 2.23411 34.9738C2.31607 34.8153 2.43484 34.6788 2.58045 34.5756L2.70102 34.5042C6.08698 32.4472 9.95927 31.3282 13.9205 31.2619C17.8818 31.1957 21.7893 32.1846 25.2422 34.1271C28.695 36.0697 31.5689 38.896 33.5688 42.316C35.5686 45.736 36.6226 49.6265 36.6224 53.5883Z" fill="#04BFBF"/>
<path d="M233.106 3.6625V104.14C233.106 105.029 232.754 105.881 232.125 106.509C231.497 107.137 230.645 107.49 229.757 107.49H209.662C208.773 107.49 207.921 107.137 207.293 106.509C206.665 105.881 206.312 105.029 206.312 104.14V29.3402C206.312 28.748 206.077 28.1801 205.658 27.7613C205.24 27.3426 204.672 27.1074 204.079 27.1074C203.487 27.1074 202.919 27.3426 202.501 27.7613C202.082 28.1801 201.847 28.748 201.847 29.3402V54.2476C201.764 68.3428 196.128 81.8372 186.161 91.8042C176.194 101.771 162.7 107.407 148.604 107.49H124.813C123.94 107.49 123.101 107.149 122.475 106.54C121.85 105.93 121.487 105.101 121.464 104.228V53.9015C121.479 46.7952 118.671 39.9741 113.657 34.9385C108.642 29.903 101.833 27.0655 94.727 27.0504C91.2084 27.0429 87.7227 27.7286 84.469 29.0682C81.2153 30.4078 78.2574 32.3752 75.764 34.858C70.7285 39.8722 67.891 46.6814 67.8759 53.7876C67.8759 53.7095 67.8759 53.6313 67.8759 53.5643V104.14C67.8759 105.029 67.5231 105.881 66.895 106.509C66.2669 107.137 65.415 107.49 64.5267 107.49H44.4311C43.5428 107.49 42.6909 107.137 42.0628 106.509C41.4347 105.881 41.0818 105.029 41.0818 104.14V53.0932C41.0818 53.2473 41.0818 53.4013 41.0818 53.5554C41.0278 49.3052 39.9635 45.1288 37.9766 41.3711C35.9897 37.6135 33.1374 34.3825 29.6552 31.945C26.173 29.5074 22.1608 27.9334 17.9501 27.3527C13.7393 26.772 9.4509 27.2015 5.43893 28.6056L5.23574 28.6771C4.91302 28.7759 4.57741 28.8263 4.23989 28.8267C3.35161 28.8267 2.49971 28.4738 1.8716 27.8457C1.24349 27.2176 0.890625 26.3657 0.890625 25.4774V4.66505C0.890399 3.91092 1.14468 3.1788 1.61231 2.58717C2.07994 1.99554 2.73354 1.57904 3.46733 1.40509C3.53878 1.38946 3.61246 1.37383 3.69061 1.36267H3.7375C7.09733 0.686357 10.5144 0.334926 13.9416 0.313232L14.6338 0.313232C23.9233 0.358024 33.0401 2.82791 41.0818 7.47843C45.099 9.80363 48.7983 12.6391 52.0875 15.9141L52.1813 16.0057C52.7925 16.582 53.5979 16.9076 54.4379 16.9179C55.2778 16.9283 56.091 16.6226 56.7162 16.0615C56.801 15.9856 56.8814 15.9052 56.9596 15.8203C66.9003 5.95624 80.3155 0.387948 94.3195 0.313232L95.0117 0.313232C104.303 0.35735 113.421 2.82725 121.464 7.47843C129.614 12.1813 136.382 18.948 141.085 27.0975C145.789 35.2471 148.263 44.4919 148.258 53.9015V77.1097C148.258 77.998 148.611 78.8499 149.239 79.478C149.867 80.1061 150.719 80.4589 151.608 80.4589C151.724 80.4589 151.831 80.4589 151.949 80.4411C151.966 80.4434 151.982 80.4434 151.998 80.4411L152.186 80.4165C158.544 79.4744 164.351 76.278 168.549 71.4106C172.747 66.5432 175.055 60.329 175.052 53.9015V3.6625C175.052 2.77422 175.405 1.92232 176.033 1.29421C176.662 0.666101 177.513 0.313232 178.402 0.313232L229.757 0.313232C230.645 0.313232 231.497 0.666101 232.125 1.29421C232.754 1.92232 233.106 2.77422 233.106 3.6625Z" fill="#024F59"/>
<path d="M16.2575 117.028C16.4124 117.031 16.5648 117.067 16.7041 117.135C16.8517 117.201 16.9761 117.31 17.0613 117.448L21.5985 124.37L20.8304 124.334L25.4568 117.448C25.5337 117.323 25.6414 117.219 25.7696 117.147C25.8978 117.075 26.0422 117.037 26.1892 117.037C26.3067 117.036 26.4232 117.059 26.5321 117.103C26.6409 117.148 26.7399 117.213 26.8233 117.296C26.9135 117.379 26.9849 117.479 27.0326 117.592C27.0804 117.704 27.1034 117.826 27.1002 117.948V128.648C27.1044 128.768 27.0845 128.887 27.0415 128.999C26.9985 129.111 26.9334 129.214 26.8501 129.3C26.763 129.388 26.6582 129.456 26.5428 129.501C26.4274 129.545 26.3038 129.565 26.1803 129.559C26.0543 129.561 25.9293 129.537 25.8126 129.49C25.696 129.442 25.5901 129.371 25.5015 129.282C25.4165 129.196 25.3498 129.095 25.3053 128.982C25.2608 128.87 25.2394 128.751 25.2425 128.63V119.582L25.8141 119.708L21.8843 125.692C21.7958 125.804 21.6866 125.898 21.5627 125.968C21.4369 126.033 21.2976 126.066 21.1564 126.066C21.0151 126.066 20.8758 126.033 20.75 125.968C20.6231 125.898 20.5109 125.804 20.4195 125.692L16.6237 119.797L17.0524 119.082V128.639C17.0605 128.875 16.9773 129.105 16.8202 129.282C16.739 129.368 16.6404 129.435 16.5311 129.48C16.4217 129.525 16.3041 129.545 16.186 129.541C16.0708 129.544 15.9562 129.523 15.8499 129.478C15.7436 129.433 15.6481 129.367 15.5698 129.282C15.4072 129.105 15.3206 128.87 15.3286 128.63V117.939C15.3276 117.819 15.3517 117.699 15.3994 117.588C15.4471 117.478 15.5173 117.378 15.6055 117.296C15.6909 117.21 15.7925 117.142 15.9045 117.096C16.0164 117.05 16.1365 117.027 16.2575 117.028Z" fill="white"/>
<path d="M44.1435 119.367L40.1244 129.013C40.0626 129.19 39.9509 129.345 39.8029 129.46C39.6644 129.566 39.4947 129.622 39.3206 129.621C39.212 129.629 39.1029 129.613 39.001 129.575C38.8991 129.536 38.807 129.475 38.7311 129.397C38.5934 129.241 38.5145 129.042 38.5078 128.835C38.5104 128.737 38.5285 128.641 38.5614 128.549L43.0985 117.581C43.1703 117.392 43.2981 117.23 43.4647 117.117C43.6195 117.012 43.805 116.961 43.9917 116.974C44.1711 116.974 44.346 117.03 44.4918 117.135C44.6484 117.245 44.7669 117.401 44.8312 117.581L49.3237 128.388C49.3698 128.502 49.3941 128.623 49.3952 128.745C49.3978 128.858 49.3782 128.97 49.3374 129.075C49.2966 129.18 49.2354 129.276 49.1574 129.358C49.0794 129.439 48.986 129.504 48.8828 129.549C48.7795 129.594 48.6683 129.619 48.5556 129.621C48.3774 129.621 48.2043 129.561 48.0644 129.451C47.9145 129.336 47.8 129.181 47.7339 129.004L43.6791 119.403L44.1435 119.367ZM40.8389 126.477L41.6427 124.762H46.6979L47.0015 126.477H40.8389Z" fill="white"/>
<path d="M63.7434 129.728C63.0696 129.736 62.4052 129.569 61.8142 129.246C61.2358 128.929 60.7496 128.467 60.4031 127.906C60.3052 127.757 60.2496 127.584 60.2423 127.406C60.2404 127.287 60.2651 127.169 60.3145 127.061C60.364 126.953 60.4369 126.857 60.5281 126.781C60.6811 126.63 60.8848 126.54 61.0997 126.531C61.2584 126.531 61.4137 126.577 61.5463 126.665C61.688 126.758 61.8171 126.869 61.9303 126.995C62.1455 127.284 62.4194 127.525 62.7341 127.701C63.042 127.864 63.386 127.947 63.7345 127.942C64.1407 127.947 64.5412 127.846 64.8955 127.647C65.2353 127.456 65.5187 127.179 65.7172 126.843C65.9193 126.506 66.0244 126.12 66.0209 125.727V117.957C66.0182 117.834 66.0423 117.712 66.0917 117.599C66.1411 117.486 66.2144 117.386 66.3067 117.305C66.4878 117.134 66.7281 117.042 66.9765 117.046C67.1001 117.039 67.2237 117.059 67.3391 117.104C67.4545 117.148 67.5592 117.217 67.6464 117.305C67.7297 117.391 67.7948 117.493 67.8378 117.605C67.8808 117.717 67.9007 117.837 67.8965 117.957V125.727C67.9044 126.434 67.7158 127.13 67.3517 127.736C66.9816 128.359 66.4539 128.872 65.8219 129.225C65.1899 129.578 64.476 129.757 63.7523 129.746L63.7434 129.728Z" fill="white"/>
<path d="M82.3369 128.639C82.3332 128.76 82.3053 128.88 82.2546 128.99C82.204 129.1 82.1317 129.2 82.0421 129.282C81.8671 129.45 81.633 129.543 81.3901 129.541C81.2667 129.545 81.1437 129.525 81.0285 129.48C80.9133 129.436 80.8084 129.368 80.7203 129.282C80.6353 129.196 80.5686 129.094 80.5241 128.982C80.4796 128.87 80.4582 128.75 80.4613 128.63V117.957C80.4579 117.835 80.48 117.715 80.5261 117.602C80.5723 117.49 80.6415 117.389 80.7292 117.305C80.8224 117.218 80.9319 117.15 81.0515 117.105C81.1711 117.061 81.2984 117.041 81.4259 117.046C81.663 117.046 81.8908 117.139 82.06 117.305C82.1502 117.387 82.2215 117.488 82.2693 117.601C82.3171 117.713 82.3401 117.835 82.3369 117.957V128.639Z" fill="white"/>
<path d="M114.793 117.046C115.589 117.029 116.378 117.197 117.098 117.537C117.752 117.854 118.324 118.318 118.768 118.894C119.226 119.495 119.569 120.177 119.777 120.904C120.006 121.684 120.121 122.493 120.116 123.306C120.13 124.388 119.924 125.46 119.509 126.459C119.137 127.365 118.518 128.148 117.723 128.719C116.86 129.302 115.834 129.596 114.793 129.558H110.435C110.316 129.56 110.198 129.538 110.087 129.494C109.977 129.449 109.876 129.383 109.792 129.299C109.704 129.215 109.635 129.114 109.589 129.002C109.542 128.889 109.52 128.769 109.524 128.647V117.957C109.52 117.835 109.542 117.714 109.589 117.602C109.635 117.49 109.704 117.388 109.792 117.305C109.876 117.221 109.977 117.155 110.087 117.11C110.198 117.066 110.316 117.044 110.435 117.046H114.793ZM114.615 127.835C115.351 127.869 116.077 127.648 116.669 127.209C117.203 126.78 117.602 126.206 117.821 125.557C118.072 124.83 118.196 124.066 118.187 123.297C118.19 122.717 118.121 122.138 117.982 121.574C117.857 121.056 117.639 120.566 117.339 120.127C117.051 119.71 116.669 119.367 116.222 119.127C115.723 118.87 115.167 118.744 114.606 118.76H111.239L111.399 118.6V128.013L111.292 127.835H114.615Z" fill="white"/>
<path d="M132.88 117.045H139.061C139.178 117.042 139.294 117.063 139.403 117.106C139.512 117.149 139.611 117.213 139.695 117.295C139.779 117.376 139.846 117.473 139.89 117.581C139.935 117.688 139.956 117.804 139.954 117.92C139.958 118.034 139.937 118.148 139.892 118.253C139.847 118.358 139.78 118.452 139.695 118.528C139.519 118.679 139.293 118.759 139.061 118.751H133.666L133.845 118.447V122.449L133.684 122.27H138.257C138.374 122.267 138.49 122.288 138.599 122.331C138.708 122.374 138.807 122.438 138.891 122.52C138.976 122.603 139.044 122.704 139.088 122.814C139.133 122.925 139.154 123.044 139.15 123.163C139.154 123.277 139.133 123.391 139.088 123.496C139.043 123.601 138.976 123.694 138.891 123.77C138.715 123.922 138.489 124.002 138.257 123.994H133.72L133.845 123.833V127.959L133.72 127.816H139.061C139.178 127.814 139.295 127.836 139.404 127.881C139.513 127.925 139.612 127.991 139.695 128.075C139.776 128.152 139.841 128.245 139.886 128.348C139.93 128.451 139.954 128.562 139.954 128.674C139.957 128.789 139.936 128.904 139.891 129.01C139.846 129.116 139.779 129.212 139.695 129.29C139.523 129.451 139.295 129.537 139.061 129.531H132.88C132.761 129.533 132.643 129.511 132.532 129.467C132.422 129.422 132.322 129.356 132.237 129.272C132.149 129.188 132.08 129.087 132.034 128.975C131.988 128.862 131.966 128.742 131.969 128.62V117.956C131.966 117.835 131.988 117.714 132.034 117.602C132.08 117.489 132.149 117.388 132.237 117.304C132.322 117.22 132.422 117.154 132.532 117.11C132.643 117.065 132.761 117.043 132.88 117.045Z" fill="white"/>
<path d="M155.676 129.728C154.902 129.741 154.131 129.62 153.398 129.371C152.69 129.107 152.04 128.706 151.487 128.192C151.361 128.103 151.259 127.983 151.192 127.844C151.127 127.713 151.094 127.57 151.094 127.424C151.094 127.196 151.184 126.978 151.344 126.817C151.423 126.73 151.519 126.661 151.627 126.614C151.735 126.568 151.852 126.546 151.969 126.549C152.165 126.55 152.354 126.62 152.505 126.745C152.921 127.139 153.401 127.459 153.925 127.692C154.477 127.917 155.07 128.027 155.667 128.013C156.114 128.021 156.559 127.945 156.98 127.79C157.342 127.659 157.669 127.445 157.935 127.165C158.167 126.918 158.295 126.592 158.292 126.254C158.306 125.866 158.176 125.488 157.926 125.191C157.634 124.88 157.273 124.642 156.872 124.494C156.337 124.288 155.784 124.129 155.22 124.021C154.673 123.928 154.137 123.778 153.621 123.574C153.181 123.403 152.774 123.159 152.416 122.851C152.085 122.564 151.823 122.207 151.647 121.806C151.461 121.36 151.369 120.879 151.38 120.395C151.362 119.724 151.563 119.066 151.951 118.519C152.351 117.979 152.892 117.559 153.514 117.305C154.215 117.01 154.969 116.864 155.729 116.876C156.441 116.873 157.147 116.99 157.819 117.224C158.41 117.419 158.952 117.739 159.409 118.162C159.535 118.256 159.639 118.377 159.713 118.516C159.787 118.655 159.83 118.809 159.838 118.966C159.832 119.191 159.74 119.406 159.579 119.564C159.504 119.65 159.412 119.72 159.309 119.767C159.206 119.815 159.094 119.84 158.98 119.841C158.825 119.845 158.673 119.794 158.551 119.698C158.329 119.473 158.069 119.289 157.783 119.153C157.453 118.99 157.11 118.855 156.756 118.752C156.417 118.648 156.065 118.594 155.711 118.591C155.243 118.579 154.776 118.655 154.336 118.814C153.995 118.934 153.692 119.144 153.461 119.421C153.26 119.675 153.152 119.991 153.157 120.315C153.143 120.68 153.267 121.037 153.505 121.315C153.774 121.601 154.108 121.818 154.479 121.949C154.945 122.128 155.422 122.277 155.908 122.396C156.503 122.522 157.091 122.683 157.667 122.878C158.14 123.033 158.584 123.265 158.98 123.566C159.335 123.842 159.617 124.201 159.802 124.611C160.008 125.105 160.105 125.638 160.088 126.174C160.1 126.849 159.886 127.509 159.48 128.049C159.062 128.595 158.512 129.025 157.882 129.299C157.185 129.598 156.433 129.744 155.676 129.728Z" fill="white"/>
<path d="M173.821 128.639C173.813 128.884 173.709 129.116 173.532 129.286C173.356 129.456 173.12 129.55 172.875 129.55C172.751 129.554 172.628 129.534 172.513 129.489C172.398 129.445 172.293 129.377 172.205 129.291C172.119 129.206 172.052 129.104 172.007 128.992C171.963 128.879 171.942 128.759 171.946 128.639V117.957C171.942 117.835 171.964 117.715 172.011 117.602C172.057 117.49 172.126 117.389 172.214 117.305C172.307 117.218 172.416 117.15 172.536 117.105C172.656 117.061 172.783 117.041 172.91 117.046C173.147 117.046 173.375 117.139 173.545 117.305C173.634 117.387 173.705 117.488 173.753 117.601C173.801 117.713 173.824 117.835 173.821 117.957V128.639Z" fill="white"/>
<path d="M192.195 129.728C191.325 129.736 190.463 129.568 189.659 129.237C188.887 128.919 188.186 128.451 187.595 127.861C187.007 127.275 186.537 126.58 186.211 125.816C185.544 124.203 185.544 122.392 186.211 120.779C186.537 120.015 187.007 119.32 187.595 118.734C188.186 118.144 188.887 117.676 189.659 117.358C190.463 117.027 191.325 116.86 192.195 116.867C192.767 116.865 193.336 116.931 193.892 117.063C194.411 117.184 194.91 117.376 195.375 117.635C195.519 117.708 195.637 117.823 195.714 117.965C195.782 118.089 195.819 118.227 195.821 118.367C195.825 118.607 195.739 118.84 195.58 119.019C195.508 119.107 195.416 119.178 195.312 119.226C195.209 119.274 195.096 119.298 194.982 119.296C194.894 119.296 194.807 119.284 194.723 119.261C194.64 119.239 194.559 119.209 194.482 119.171C194.141 119.002 193.781 118.873 193.41 118.787C193.011 118.696 192.604 118.651 192.195 118.653C191.391 118.643 190.599 118.85 189.902 119.252C189.206 119.654 188.631 120.238 188.239 120.94C187.846 121.662 187.64 122.471 187.64 123.293C187.64 124.115 187.846 124.924 188.239 125.646C188.629 126.351 189.203 126.937 189.9 127.341C190.596 127.745 191.39 127.953 192.195 127.942C192.64 127.938 193.083 127.887 193.517 127.79C193.926 127.709 194.322 127.574 194.696 127.388L194.553 127.87V124.476L194.839 124.727H192.499C192.379 124.731 192.259 124.711 192.147 124.668C192.035 124.625 191.933 124.56 191.847 124.476C191.681 124.303 191.588 124.073 191.588 123.833C191.588 123.594 191.681 123.363 191.847 123.19C191.933 123.107 192.035 123.042 192.147 122.999C192.259 122.956 192.379 122.936 192.499 122.94H195.589C195.707 122.938 195.824 122.96 195.933 123.005C196.042 123.049 196.141 123.115 196.223 123.199C196.308 123.285 196.375 123.387 196.419 123.499C196.464 123.611 196.485 123.731 196.482 123.851V127.817C196.487 127.989 196.437 128.158 196.339 128.299C196.251 128.423 196.142 128.532 196.018 128.621C195.459 128.963 194.858 129.233 194.232 129.424C193.572 129.628 192.885 129.731 192.195 129.728Z" fill="white"/>
<path d="M217.855 117.045C217.963 117.042 218.071 117.062 218.171 117.103C218.271 117.145 218.361 117.207 218.435 117.287C218.584 117.45 218.664 117.664 218.658 117.885V128.638C218.661 128.759 218.639 128.878 218.594 128.99C218.549 129.102 218.482 129.203 218.397 129.288C218.312 129.373 218.21 129.44 218.099 129.485C217.987 129.53 217.868 129.552 217.747 129.549C217.616 129.547 217.486 129.523 217.363 129.478C217.243 129.442 217.135 129.374 217.051 129.281L209.709 119.761L210.12 119.537V128.737C210.123 128.843 210.105 128.95 210.066 129.049C210.028 129.149 209.97 129.24 209.897 129.317C209.821 129.396 209.729 129.458 209.627 129.5C209.526 129.541 209.417 129.561 209.307 129.558C209.196 129.564 209.085 129.545 208.982 129.503C208.878 129.461 208.785 129.398 208.709 129.317C208.561 129.16 208.481 128.952 208.486 128.737V117.956C208.479 117.832 208.5 117.708 208.546 117.592C208.592 117.477 208.663 117.372 208.753 117.287C208.926 117.122 209.158 117.032 209.397 117.037C209.54 117.039 209.682 117.066 209.816 117.117C209.95 117.16 210.066 117.244 210.147 117.358L217.301 126.691L217.033 126.941V117.894C217.028 117.784 217.046 117.675 217.084 117.572C217.122 117.469 217.181 117.375 217.256 117.296C217.332 117.213 217.425 117.149 217.528 117.106C217.631 117.062 217.743 117.042 217.855 117.045Z" fill="white"/>
</svg>
