<svg width="103" height="251" viewBox="0 0 103 251" fill="none" xmlns="http://www.w3.org/2000/svg">
<g opacity="0.97">
<path d="M102.422 244.558L102.422 6.28605C102.38 4.63984 101.721 3.07206 100.578 1.90353C99.4359 0.734988 97.8971 0.0540322 96.2768 0L6.8784 0C5.22856 0.054132 3.66418 0.75811 2.51627 1.96298C1.36835 3.16785 0.726974 4.77908 0.727837 6.45574L0.727837 244.396C0.727837 246.108 1.39745 247.75 2.58939 248.961C3.78133 250.172 5.39794 250.852 7.0836 250.852H96.0643C97.7229 250.853 99.3163 250.195 100.504 249.019C101.692 247.843 102.38 246.243 102.422 244.558ZM10.7173 202.919C9.03163 202.919 7.41501 202.239 6.22307 201.028C5.03114 199.817 4.36152 198.175 4.36152 196.463L4.36152 6.45205C4.36152 5.71827 4.64849 5.01453 5.15932 4.49567C5.67015 3.9768 6.36299 3.68531 7.08542 3.68531L96.0661 3.68531C96.7767 3.68507 97.4593 3.96693 97.9682 4.47073C98.4771 4.97453 98.772 5.66039 98.79 6.38196L98.79 196.463C98.79 198.175 98.1204 199.817 96.9284 201.028C95.7365 202.239 94.1199 202.919 92.4342 202.919H10.7173Z" fill="#FFF9F1"/>
<path d="M94.2405 63.1576C94.0786 63.1576 93.9197 63.1136 93.7802 63.0303C93.6406 62.9469 93.5256 62.8272 93.4469 62.6835C93.4306 62.655 93.416 62.6254 93.4033 62.595C91.4718 58.8597 89.065 55.3987 86.2449 52.3009L86.1814 52.2289C86.0487 52.0642 85.9763 51.8579 85.9763 51.6451C85.9763 51.4323 86.0487 51.2261 86.1814 51.0614L86.254 50.982C89.085 47.8687 91.4981 44.3887 93.4306 40.6326L93.4524 40.592C93.5517 40.4155 93.7057 40.2774 93.8904 40.199C94.0751 40.1206 94.28 40.1064 94.4735 40.1586C94.6669 40.2107 94.838 40.3264 94.96 40.4875C95.0821 40.6486 95.1483 40.8461 95.1484 41.0494V62.2353C95.1484 62.4799 95.0528 62.7145 94.8825 62.8874C94.7122 63.0604 94.4813 63.1576 94.2405 63.1576Z" fill="#FFF9F1"/>
<path d="M29.3113 173.378H8.8984C8.65759 173.378 8.42665 173.28 8.25637 173.107C8.08609 172.934 7.99043 172.7 7.99043 172.455V151.721C7.99054 151.518 8.05678 151.32 8.17884 151.159C8.3009 150.998 8.47194 150.883 8.66538 150.83C8.85881 150.778 9.06381 150.792 9.24847 150.871C9.43314 150.949 9.58712 151.087 9.68651 151.264V151.275C9.69301 151.284 9.6985 151.294 9.70285 151.304C14.1834 159.992 21.1674 167.084 29.7217 171.633C29.732 171.637 29.7417 171.643 29.7508 171.649H29.7616C29.9354 171.75 30.0714 171.907 30.1485 172.094C30.2257 172.282 30.2397 172.49 30.1883 172.686C30.137 172.883 30.0231 173.057 29.8645 173.181C29.7059 173.305 29.5114 173.372 29.3113 173.372V173.378Z" fill="#FFF9F1"/>
<path d="M51.5672 103.287C46.7511 103.287 42.1322 101.344 38.7267 97.885C35.3211 94.4259 33.4079 89.7343 33.4079 84.8424V84.8295C33.4079 79.9376 35.3211 75.246 38.7267 71.7869C42.1322 68.3278 46.7511 66.3845 51.5672 66.3845C56.3834 66.3845 61.0023 68.3278 64.4078 71.7869C67.8134 75.246 69.7266 79.9376 69.7266 84.8295V84.8443C69.7261 89.7359 67.8127 94.4269 64.4072 97.8856C61.0017 101.344 56.3831 103.287 51.5672 103.287Z" fill="#FFF9F1"/>
<path d="M36.8183 103.289H8.89829C8.65748 103.289 8.42654 103.192 8.25626 103.019C8.08599 102.846 7.99032 102.611 7.99032 102.367L7.99032 67.3212C7.99032 67.0766 8.08599 66.842 8.25626 66.669C8.42654 66.4961 8.65748 66.3989 8.89829 66.3989H36.8183C37.0053 66.3989 37.1879 66.4575 37.3409 66.5668C37.4939 66.6761 37.61 66.8308 37.6732 67.0096C37.7364 67.1885 37.7437 67.3828 37.694 67.566C37.6443 67.7492 37.5401 67.9124 37.3957 68.0331C35.0048 70.109 33.0858 72.6871 31.7709 75.5893C30.4561 78.4916 29.7767 81.6491 29.7797 84.8439C29.7797 85.4095 29.8003 85.9697 29.8414 86.5242C30.057 89.4266 30.8354 92.2571 32.1319 94.8528C33.4283 97.4485 35.2173 99.7582 37.3957 101.649C37.5401 101.77 37.6443 101.933 37.694 102.116C37.7437 102.299 37.7364 102.494 37.6732 102.673C37.61 102.851 37.4939 103.006 37.3409 103.115C37.1879 103.225 37.0053 103.283 36.8183 103.283V103.289Z" fill="#FFF9F1"/>
<path d="M94.2405 147.557H51.5661C47.591 147.558 43.7254 146.234 40.5626 143.789C37.3997 141.343 35.1142 137.911 34.0568 134.019L34.0278 133.91C34.0153 133.849 34.0092 133.787 34.0096 133.725C34.0096 133.481 34.1053 133.246 34.2756 133.073C34.4458 132.9 34.6768 132.803 34.9176 132.803H51.5661C60.1875 132.81 68.6459 130.416 76.022 125.882C83.398 121.349 89.4096 114.848 93.4033 107.087C93.4192 107.049 93.438 107.012 93.4596 106.977C93.5612 106.803 93.7163 106.667 93.9009 106.592C94.0855 106.516 94.2895 106.504 94.4814 106.558C94.6734 106.612 94.8426 106.728 94.9632 106.889C95.0837 107.05 95.1488 107.247 95.1484 107.449V146.637C95.148 146.881 95.0521 147.115 94.8819 147.288C94.7116 147.46 94.481 147.557 94.2405 147.557Z" fill="#FFF9F1"/>
<path d="M36.9068 22.1317C32.0775 22.1337 27.3233 20.9181 23.0706 18.5938C18.8178 16.2694 15.1997 12.9092 12.5406 8.81444C12.4483 8.67563 12.3949 8.51388 12.3862 8.34657C12.3775 8.17926 12.4138 8.01271 12.4913 7.86479C12.5688 7.71688 12.6845 7.5932 12.8259 7.50704C12.9674 7.42088 13.1293 7.37548 13.2943 7.37573L60.5212 7.37573C60.6785 7.37564 60.8332 7.41707 60.97 7.49595C61.1068 7.57483 61.221 7.68846 61.3016 7.8257C61.3822 7.96294 61.4262 8.11908 61.4295 8.27883C61.4328 8.43858 61.3951 8.59645 61.3202 8.73697L61.3093 8.75542C61.2894 8.78862 61.2694 8.81998 61.2458 8.85318C58.586 12.9379 54.9704 16.2889 50.7229 18.6062C46.4753 20.9236 41.7283 22.1349 36.9068 22.1317Z" fill="#FFF9F1"/>
<path d="M51.5552 36.8905H8.88081C8.64 36.8905 8.40905 36.7933 8.23877 36.6204C8.06849 36.4474 7.97284 36.2128 7.97284 35.9682V11.5729C7.9724 11.3751 8.0346 11.1824 8.15026 11.0232C8.26591 10.864 8.42888 10.7468 8.61511 10.689C8.80135 10.6311 9.00098 10.6355 9.18452 10.7017C9.36806 10.7679 9.52578 10.8923 9.63441 11.0564C12.4437 15.3154 16.183 18.8582 20.5612 21.4087C24.9394 23.9592 29.8381 25.4485 34.8759 25.7608C35.5405 25.8026 36.21 25.8235 36.8843 25.8235C42.6842 25.8217 48.3802 24.2599 53.393 21.2968C58.4059 18.3336 62.5567 14.0749 65.4235 8.95372L65.527 8.76927C65.6109 8.64898 65.722 8.55087 65.8509 8.48317C65.9798 8.41546 66.1228 8.38013 66.2679 8.38013C66.413 8.38013 66.556 8.41546 66.685 8.48317C66.8139 8.55087 66.9249 8.64898 67.0088 8.76927C67.0096 8.77229 67.0096 8.77546 67.0088 8.77849L67.0669 8.87809C68.7354 11.6752 69.6417 14.8725 69.693 18.1426C69.7443 21.4126 68.9387 24.6377 67.3587 27.4873C65.7787 30.3369 63.4813 32.7086 60.7017 34.3593C57.9222 36.01 54.7605 36.8804 51.5407 36.8813L51.5552 36.8905Z" fill="#FFF9F1"/>
<path d="M92.4245 199.204H10.7076C9.98514 199.204 9.2923 198.912 8.78147 198.393C8.27064 197.874 7.98366 197.171 7.98366 196.437V179.836C7.98366 179.102 8.27064 178.399 8.78147 177.88C9.2923 177.361 9.98514 177.07 10.7076 177.07H71.5413C72.0229 177.07 72.4848 176.875 72.8254 176.529C73.1659 176.183 73.3572 175.714 73.3572 175.225C73.3572 174.736 73.1659 174.267 72.8254 173.921C72.4848 173.575 72.0229 173.381 71.5413 173.381H51.2846C39.8212 173.312 28.8464 168.657 20.7405 160.423C12.6345 152.19 8.05085 141.042 7.98366 129.398L7.98366 109.745C7.98342 109.024 8.26067 108.331 8.75627 107.814C9.25188 107.297 9.92666 106.997 10.6367 106.979H51.566C57.3454 106.991 62.893 104.671 66.9883 100.529C71.0836 96.3869 73.3913 90.762 73.4036 84.8917C73.4158 79.0214 71.1318 73.3866 67.0538 69.2268C62.9758 65.0671 57.438 62.7231 51.6587 62.7107C51.7222 62.7107 51.7858 62.7107 51.8403 62.7107L10.7076 62.7107C9.98514 62.7107 9.2923 62.4192 8.78147 61.9003C8.27064 61.3814 7.98366 60.6777 7.98366 59.9439V43.3434C7.98366 42.6097 8.27064 41.9059 8.78147 41.3871C9.2923 40.8682 9.98514 40.5767 10.7076 40.5767L52.2234 40.5767C52.0981 40.5767 51.9728 40.5767 51.8475 40.5767C55.3042 40.5321 58.7008 39.6529 61.7568 38.0115C64.8128 36.3702 67.4405 34.014 69.4229 31.1374C71.4053 28.2609 72.6855 24.9465 73.1577 21.4681C73.6299 17.9898 73.2807 14.4472 72.1388 11.133L72.0806 10.9651C72.0002 10.6985 71.9592 10.4213 71.959 10.1425C71.959 9.40869 72.246 8.70496 72.7568 8.18609C73.2676 7.66723 73.9605 7.37573 74.6829 7.37573L91.6092 7.37573C92.2225 7.37555 92.8179 7.5856 93.2991 7.9719C93.7802 8.35819 94.119 8.89812 94.2604 9.50428C94.2732 9.56331 94.2859 9.62418 94.2949 9.68873V9.72747C94.8429 12.505 95.1263 15.3297 95.1412 18.1624V18.7341C95.0843 30.3378 90.5314 41.4521 82.4678 49.6719L82.3933 49.7494C81.9246 50.2543 81.6598 50.9196 81.6514 51.6135C81.643 52.3074 81.8916 52.9791 82.3479 53.4956C82.4097 53.5657 82.475 53.6321 82.544 53.6966C90.5628 61.9087 95.0887 72.989 95.1484 84.5551V85.1268C95.1122 92.8013 93.1035 100.333 89.3211 106.977C85.4965 113.709 79.9936 119.299 73.366 123.185C66.7385 127.071 59.2202 129.114 51.5679 129.111H32.6912C31.9688 129.111 31.276 129.402 30.7652 129.921C30.2543 130.44 29.9673 131.144 29.9673 131.877C29.9673 131.973 29.9673 132.062 29.9819 132.16C29.98 132.173 29.98 132.187 29.9819 132.2L30.0018 132.355C30.768 137.607 33.3667 142.403 37.3241 145.871C41.2816 149.338 46.3342 151.245 51.5606 151.245H92.4191C93.1415 151.245 93.8343 151.536 94.3452 152.055C94.856 152.574 95.143 153.278 95.143 154.011V196.435C95.1435 197.168 94.8575 197.871 94.3477 198.391C93.838 198.91 93.1463 199.202 92.4245 199.204Z" fill="#FFF9F1"/>
<path d="M26.3549 210.898C26.4922 210.901 26.6273 210.933 26.7508 210.994C26.88 211.052 26.9898 211.147 27.0668 211.267L31.08 217.478L30.4008 217.444L34.4921 211.267C34.5599 211.154 34.6551 211.061 34.7686 210.996C34.8822 210.932 35.0102 210.898 35.1404 210.898C35.3497 210.898 35.5506 210.982 35.6997 211.131C35.7793 211.205 35.8424 211.295 35.8847 211.396C35.927 211.497 35.9475 211.606 35.9449 211.715V221.329C35.9484 221.437 35.9307 221.544 35.8926 221.644C35.8545 221.745 35.797 221.836 35.7233 221.914C35.6475 221.992 35.5564 222.052 35.4561 222.092C35.3557 222.132 35.2482 222.151 35.1404 222.146C35.0288 222.151 34.9172 222.134 34.8126 222.094C34.708 222.054 34.6125 221.992 34.5321 221.914C34.4561 221.838 34.3964 221.746 34.3567 221.646C34.317 221.545 34.2982 221.437 34.3014 221.329V213.193L34.8081 213.305L31.3324 218.68C31.2534 218.78 31.1567 218.865 31.0473 218.929C30.9352 218.989 30.8106 219.02 30.6841 219.02C30.5576 219.02 30.433 218.989 30.3209 218.929C30.2087 218.866 30.1095 218.781 30.0286 218.68L26.68 213.385L27.0595 212.743V221.329C27.0666 221.545 26.9896 221.755 26.8452 221.914C26.7739 221.991 26.687 222.052 26.5905 222.092C26.494 222.132 26.3901 222.15 26.2859 222.146C26.1841 222.148 26.0831 222.129 25.9892 222.089C25.8954 222.049 25.8108 221.989 25.7411 221.914C25.5979 221.754 25.5216 221.545 25.5287 221.329V211.715C25.5277 211.607 25.5489 211.5 25.5911 211.4C25.6334 211.301 25.6956 211.212 25.7738 211.138C25.8498 211.06 25.9404 210.999 26.0403 210.958C26.1402 210.917 26.2472 210.896 26.3549 210.898Z" fill="black"/>
<path d="M48.6226 212.998L45.067 221.667C45.0126 221.826 44.9142 221.966 44.7837 222.069C44.661 222.164 44.5109 222.214 44.3569 222.213C44.2606 222.22 44.1638 222.206 44.0734 222.172C43.983 222.137 43.9013 222.082 43.834 222.012C43.7184 221.869 43.6543 221.691 43.6524 221.507C43.655 221.419 43.6709 221.333 43.6996 221.25L47.7128 211.397C47.777 211.228 47.8896 211.083 48.036 210.98C48.1732 210.886 48.3375 210.841 48.5027 210.853C48.6615 210.853 48.8163 210.903 48.9458 210.997C49.0839 211.096 49.1885 211.235 49.2454 211.397L53.2114 221.106C53.252 221.208 53.2729 221.317 53.2732 221.427C53.2758 221.528 53.2587 221.629 53.2228 221.723C53.1869 221.818 53.133 221.904 53.0641 221.977C52.9952 222.05 52.9127 222.109 52.8214 222.149C52.7301 222.19 52.6319 222.211 52.5323 222.213C52.3745 222.213 52.2211 222.16 52.0964 222.062C51.9655 221.96 51.8644 221.823 51.8041 221.667L48.2176 213.05L48.6226 212.998ZM45.6989 219.385L46.4108 217.845H50.8725L51.1413 219.385H45.6989Z" fill="black"/>
<path d="M63.5538 222.304C62.9579 222.31 62.3703 222.162 61.8468 221.873C61.3356 221.587 60.9059 221.172 60.5993 220.668C60.5128 220.534 60.4638 220.378 60.4576 220.218C60.4568 220.113 60.4791 220.008 60.5227 219.913C60.5664 219.817 60.6303 219.732 60.71 219.665C60.8456 219.53 61.0252 219.449 61.2149 219.44C61.3579 219.438 61.4982 219.48 61.618 219.56C61.7428 219.644 61.8569 219.744 61.9576 219.857C62.1478 220.117 62.3904 220.333 62.6694 220.491C62.9417 220.637 63.2458 220.711 63.5538 220.707C63.9133 220.712 64.2679 220.621 64.5816 220.443C64.882 220.271 65.1325 220.022 65.308 219.72C65.4863 219.417 65.5793 219.07 65.5767 218.717V211.737C65.5742 211.627 65.5954 211.517 65.639 211.416C65.6827 211.315 65.7475 211.225 65.8292 211.152C65.9872 211.001 66.1966 210.917 66.4139 210.918C66.522 210.914 66.6298 210.932 66.7305 210.973C66.8311 211.013 66.9224 211.074 66.9986 211.152C67.0716 211.23 67.1286 211.322 67.1663 211.422C67.2041 211.523 67.2217 211.63 67.2183 211.737V218.717C67.224 219.35 67.0575 219.972 66.7371 220.515C66.4185 221.058 65.9668 221.509 65.426 221.823C64.8557 222.151 64.2091 222.317 63.5538 222.304Z" fill="black"/>
<path d="M77.5935 221.329C77.5915 221.439 77.5675 221.547 77.5228 221.648C77.4782 221.748 77.4139 221.839 77.3338 221.913C77.1789 222.065 76.9714 222.148 76.7564 222.146C76.6473 222.15 76.5386 222.131 76.4368 222.091C76.335 222.051 76.2423 221.991 76.1644 221.913C76.089 221.837 76.0298 221.745 75.9905 221.645C75.9511 221.544 75.9324 221.437 75.9356 221.329V211.737C75.9325 211.628 75.9519 211.52 75.9926 211.419C76.0332 211.319 76.0942 211.228 76.1716 211.152C76.2541 211.074 76.3511 211.012 76.4571 210.972C76.5632 210.932 76.676 210.914 76.7891 210.918C76.9986 210.919 77.1995 211.003 77.3484 211.152C77.428 211.226 77.4911 211.317 77.5333 211.418C77.5756 211.519 77.5962 211.628 77.5935 211.737V221.329Z" fill="black"/>
<path d="M13.9628 232.233C14.6665 232.219 15.3639 232.37 16.0003 232.676C16.5791 232.96 17.0851 233.378 17.4784 233.895C17.8823 234.433 18.1847 235.042 18.37 235.691C18.5733 236.393 18.6749 237.12 18.6715 237.851C18.6815 238.823 18.4962 239.786 18.1267 240.683C17.7972 241.496 17.2499 242.198 16.5468 242.711C15.8507 243.213 14.987 243.464 13.9555 243.464H10.1075C10.0023 243.466 9.89783 243.446 9.80021 243.406C9.70259 243.366 9.61383 243.307 9.53916 243.232C9.46151 243.156 9.40022 243.066 9.35925 242.965C9.31828 242.864 9.29853 242.756 9.30127 242.647V233.055C9.29853 232.947 9.31828 232.838 9.35925 232.738C9.40022 232.637 9.46151 232.546 9.53916 232.471C9.61374 232.395 9.70244 232.336 9.80005 232.295C9.89767 232.255 10.0022 232.235 10.1075 232.237L13.9628 232.233ZM13.8048 241.926C14.5529 241.926 15.1583 241.741 15.6207 241.372C16.0921 240.989 16.4461 240.477 16.6413 239.897C16.8623 239.244 16.9717 238.558 16.9645 237.868C16.9677 237.346 16.9067 236.825 16.7829 236.318C16.6704 235.857 16.4779 235.42 16.2145 235.027C15.962 234.653 15.626 234.346 15.2339 234.129C14.7925 233.899 14.3008 233.786 13.8048 233.801H10.8194L10.961 233.655V242.112L10.8666 241.952L13.8048 241.926Z" fill="black"/>
<path d="M27.5715 232.232H33.0375C33.141 232.23 33.244 232.249 33.3403 232.287C33.4367 232.326 33.5245 232.384 33.5986 232.457C33.6721 232.528 33.7303 232.614 33.7697 232.71C33.8091 232.805 33.8287 232.907 33.8274 233.01C33.832 233.114 33.8139 233.218 33.7743 233.313C33.7347 233.409 33.6747 233.495 33.5986 233.564C33.4443 233.703 33.2438 233.777 33.0375 233.772H28.2652L28.4232 233.499V237.094L28.2816 236.934H32.3257C32.4291 236.931 32.532 236.95 32.6284 236.988C32.7247 237.026 32.8126 237.084 32.8868 237.157C32.9625 237.232 33.0219 237.322 33.0613 237.422C33.1007 237.522 33.1192 237.629 33.1156 237.736C33.1204 237.84 33.1024 237.943 33.0628 238.039C33.0232 238.135 32.9631 238.22 32.8868 238.289C32.7332 238.43 32.5323 238.505 32.3257 238.5H28.3143L28.4232 238.354V242.056L28.3143 241.927H33.0357C33.1399 241.925 33.2433 241.944 33.3398 241.984C33.4363 242.024 33.5237 242.084 33.5968 242.159C33.6692 242.228 33.7268 242.312 33.7662 242.404C33.8055 242.497 33.8258 242.597 33.8256 242.698C33.8288 242.801 33.8101 242.904 33.7706 243C33.7311 243.095 33.6718 243.181 33.5968 243.251C33.4446 243.395 33.2433 243.472 33.0357 243.467H27.5697C27.4642 243.469 27.3594 243.449 27.2615 243.409C27.1636 243.369 27.0745 243.31 26.9995 243.235C26.9221 243.159 26.8611 243.068 26.8204 242.968C26.7798 242.867 26.7604 242.759 26.7635 242.65V233.058C26.7604 232.95 26.7798 232.841 26.8204 232.741C26.8611 232.64 26.9221 232.549 26.9995 232.474C27.074 232.397 27.1631 232.335 27.2614 232.294C27.3596 232.252 27.4651 232.231 27.5715 232.232Z" fill="black"/>
<path d="M45.3415 243.62C44.6547 243.631 43.9712 243.522 43.3204 243.299C42.6945 243.06 42.1212 242.698 41.6334 242.233C41.5218 242.153 41.4319 242.046 41.3719 241.921C41.3164 241.807 41.2866 241.681 41.2847 241.553C41.2836 241.346 41.3632 241.147 41.5063 240.999C41.5763 240.921 41.662 240.86 41.7576 240.818C41.8531 240.777 41.9563 240.757 42.0601 240.759C42.2343 240.764 42.4017 240.829 42.5341 240.944C42.9027 241.296 43.3269 241.584 43.7889 241.794C44.2781 241.996 44.8028 242.094 45.3306 242.082C45.7269 242.087 46.1205 242.016 46.491 241.874C46.8112 241.758 47.1008 241.568 47.3372 241.32C47.5423 241.099 47.6555 240.805 47.6532 240.501C47.6654 240.153 47.5496 239.812 47.3281 239.546C47.0701 239.266 46.751 239.052 46.3966 238.92C45.9259 238.735 45.4397 238.593 44.9438 238.496C44.4601 238.411 43.9861 238.276 43.5292 238.094C43.1408 237.939 42.7806 237.72 42.4633 237.445C42.1716 237.187 41.9397 236.866 41.7841 236.506C41.6192 236.104 41.5388 235.672 41.548 235.237C41.5324 234.635 41.7095 234.044 42.0529 233.553C42.4062 233.07 42.8811 232.693 43.4275 232.461C44.0474 232.196 44.7146 232.065 45.3869 232.076C46.0211 232.071 46.6513 232.177 47.2501 232.389C47.7736 232.564 48.2538 232.851 48.6574 233.232C48.7687 233.317 48.8602 233.425 48.9255 233.55C48.9908 233.674 49.0282 233.812 49.0351 233.953C49.0311 234.156 48.949 234.35 48.8063 234.492C48.7409 234.569 48.6599 234.632 48.5687 234.675C48.4775 234.718 48.3784 234.74 48.2779 234.741C48.1404 234.744 48.006 234.699 47.8984 234.612C47.7023 234.409 47.4723 234.244 47.2192 234.123C46.9282 233.972 46.6243 233.849 46.3112 233.754C46.0115 233.661 45.7002 233.613 45.3869 233.61C44.9727 233.6 44.5603 233.667 44.1702 233.809C43.8683 233.92 43.6011 234.111 43.3967 234.363C43.2169 234.593 43.1219 234.88 43.1279 235.174C43.1154 235.502 43.225 235.823 43.4348 236.073C43.6732 236.329 43.9682 236.525 44.2955 236.642C44.7107 236.8 45.1353 236.932 45.5667 237.035C46.0934 237.148 46.6131 237.293 47.123 237.469C47.5418 237.607 47.9347 237.816 48.2851 238.087C48.5987 238.335 48.848 238.657 49.0115 239.026C49.193 239.467 49.279 239.943 49.2639 240.422C49.2736 241.029 49.0817 241.623 48.7192 242.106C48.3502 242.597 47.8639 242.983 47.3064 243.229C46.6867 243.501 46.0165 243.635 45.3415 243.62Z" fill="black"/>
<path d="M58.9763 242.643C58.9739 242.753 58.9497 242.862 58.9051 242.962C58.8604 243.063 58.7964 243.153 58.7167 243.228C58.5617 243.379 58.3543 243.463 58.1392 243.46C58.0301 243.464 57.9214 243.446 57.8196 243.406C57.7178 243.366 57.6251 243.305 57.5472 243.228C57.4718 243.151 57.4126 243.06 57.3733 242.959C57.3339 242.859 57.3152 242.751 57.3184 242.643V233.052C57.3153 232.943 57.3347 232.834 57.3754 232.734C57.416 232.633 57.4771 232.542 57.5545 232.467C57.6366 232.388 57.7334 232.327 57.8391 232.287C57.9448 232.247 58.0573 232.228 58.1701 232.233C58.3801 232.233 58.5816 232.317 58.7312 232.467C58.8108 232.541 58.8739 232.631 58.9162 232.732C58.9585 232.833 58.979 232.942 58.9763 233.052V242.643Z" fill="black"/>
<path d="M72.8251 243.626C72.0559 243.633 71.2933 243.482 70.5824 243.184C69.9028 242.897 69.2857 242.477 68.7665 241.948C68.2457 241.419 67.8302 240.792 67.5425 240.103C67.2496 239.386 67.0988 238.618 67.0988 237.841C67.0988 237.065 67.2496 236.296 67.5425 235.579C67.8302 234.89 68.2457 234.264 68.7665 233.734C69.2857 233.205 69.9028 232.785 70.5824 232.499C71.2933 232.2 72.0559 232.05 72.8251 232.056C73.331 232.058 73.835 232.12 74.3269 232.24C74.7855 232.349 75.2268 232.522 75.638 232.755C75.765 232.82 75.8695 232.923 75.9376 233.05C75.9988 233.163 76.0313 233.29 76.032 233.419C76.0355 233.634 75.9597 233.844 75.8196 234.005C75.7552 234.085 75.6741 234.148 75.5823 234.191C75.4905 234.234 75.3904 234.256 75.2893 234.254C75.2119 234.254 75.135 234.243 75.0605 234.221C74.9872 234.202 74.9161 234.176 74.848 234.142C74.5464 233.99 74.2282 233.874 73.9001 233.797C73.5477 233.714 73.1869 233.673 72.8251 233.675C72.1139 233.667 71.4136 233.853 70.7978 234.215C70.182 234.576 69.6735 235.1 69.3258 235.73C68.9787 236.379 68.7968 237.106 68.7968 237.844C68.7968 238.582 68.9787 239.309 69.3258 239.958C69.6706 240.591 70.1783 241.117 70.7946 241.48C71.4109 241.844 72.1127 242.03 72.8251 242.02C73.2185 242.017 73.6106 241.972 73.9946 241.885C74.3562 241.808 74.7066 241.684 75.0369 241.516L74.9116 241.95V238.901L75.164 239.124H73.0939C72.9881 239.127 72.8828 239.109 72.7839 239.071C72.6851 239.033 72.5948 238.975 72.5182 238.901C72.3714 238.745 72.2894 238.538 72.2894 238.323C72.2894 238.107 72.3714 237.9 72.5182 237.744C72.5946 237.67 72.6849 237.612 72.7837 237.573C72.8826 237.534 72.988 237.516 73.0939 237.519H75.8268C75.9312 237.517 76.0347 237.537 76.1312 237.577C76.2278 237.618 76.3151 237.678 76.388 237.754C76.4633 237.83 76.5225 237.921 76.5619 238.022C76.6012 238.122 76.6199 238.23 76.6168 238.338V241.9C76.622 242.054 76.5781 242.206 76.4915 242.333C76.413 242.445 76.3166 242.543 76.2064 242.623C75.7148 242.931 75.1863 243.174 74.6338 243.346C74.0483 243.532 73.4385 243.626 72.8251 243.626Z" fill="black"/>
<path d="M93.1178 232.232C93.2138 232.229 93.3093 232.247 93.398 232.285C93.4866 232.322 93.5663 232.378 93.6317 232.45C93.7633 232.596 93.8336 232.789 93.8278 232.987V242.648C93.8308 242.756 93.812 242.864 93.7727 242.964C93.7333 243.065 93.6742 243.156 93.5989 243.233C93.5236 243.309 93.4337 243.369 93.3347 243.409C93.2357 243.449 93.1298 243.468 93.0233 243.465C92.9069 243.464 92.7915 243.443 92.6819 243.403C92.5753 243.367 92.4799 243.304 92.4059 243.218L85.914 234.678L86.2771 234.47V242.733C86.2789 242.83 86.2616 242.925 86.2264 243.015C86.1911 243.105 86.1386 243.186 86.0719 243.255C86.0043 243.326 85.9229 243.382 85.8328 243.419C85.7428 243.456 85.6461 243.474 85.549 243.471C85.4508 243.475 85.3528 243.458 85.2617 243.421C85.1705 243.384 85.0883 243.327 85.0205 243.255C84.8896 243.114 84.8185 242.927 84.8226 242.733V233.057C84.8184 232.946 84.8375 232.836 84.8785 232.734C84.9195 232.631 84.9816 232.539 85.0605 232.463C85.2135 232.315 85.4177 232.234 85.6289 232.238C85.7533 232.24 85.8762 232.265 85.992 232.312C86.1103 232.349 86.2131 232.425 86.2844 232.527L92.6202 240.903L92.3841 241.128V232.992C92.3812 232.893 92.3978 232.795 92.433 232.703C92.4683 232.61 92.5214 232.526 92.5893 232.455C92.6567 232.382 92.7387 232.324 92.8298 232.286C92.921 232.247 93.0191 232.229 93.1178 232.232Z" fill="black"/>
</g>
</svg>
