<svg width="94" height="231" viewBox="0 0 94 231" fill="none" xmlns="http://www.w3.org/2000/svg">
<g opacity="0.97">
<path d="M93.6719 224.912L93.6719 5.78107C93.6334 4.26711 93.026 2.82528 91.9738 1.75061C90.9216 0.675944 89.5042 0.0496916 88.0117 0L5.66834 0C4.1487 0.0497834 2.70778 0.697208 1.65046 1.80529C0.59314 2.91337 0.00237274 4.39516 0.00315857 5.93713L0.00315857 224.763C0.00315857 226.337 0.619934 227.848 1.7178 228.961C2.81568 230.074 4.30473 230.7 5.85735 230.7H87.816C89.3438 230.701 90.8113 230.096 91.9054 229.015C92.9995 227.933 93.6335 226.461 93.6719 224.912ZM9.20428 186.618C7.65166 186.618 6.16261 185.992 5.06474 184.879C3.96686 183.765 3.35009 182.255 3.35009 180.68L3.35009 5.93374C3.35009 5.2589 3.61442 4.6117 4.08494 4.13452C4.55545 3.65733 5.19361 3.38925 5.85902 3.38925L87.8177 3.38925C88.4722 3.38904 89.1009 3.64825 89.5697 4.11158C90.0384 4.57491 90.31 5.20567 90.3266 5.86928L90.3266 180.68C90.3266 182.255 89.7098 183.765 88.612 184.879C87.5141 185.992 86.0251 186.618 84.4724 186.618H9.20428Z" fill="#FFF9F1"/>
<path d="M86.0777 58.0814C85.9287 58.0814 85.7823 58.041 85.6538 57.9644C85.5252 57.8877 85.4193 57.7776 85.3468 57.6455C85.3318 57.6192 85.3184 57.592 85.3067 57.5641C83.5275 54.1288 81.3107 50.9458 78.7132 48.0969L78.6546 48.0307C78.5325 47.8792 78.4658 47.6895 78.4658 47.4938C78.4658 47.2981 78.5325 47.1084 78.6546 46.9569L78.7215 46.884C81.3291 44.0208 83.5518 40.8203 85.3318 37.3659L85.3518 37.3286C85.4434 37.1663 85.5852 37.0393 85.7553 36.9672C85.9254 36.8951 86.1142 36.882 86.2924 36.93C86.4705 36.978 86.6281 37.0843 86.7405 37.2325C86.8529 37.3807 86.914 37.5623 86.9141 37.7493V57.2333C86.9141 57.4582 86.826 57.674 86.6691 57.833C86.5123 57.9921 86.2996 58.0814 86.0777 58.0814Z" fill="#FFF9F1"/>
<path d="M26.2501 159.447H7.44812C7.22632 159.447 7.0136 159.358 6.85676 159.199C6.69992 159.04 6.61181 158.824 6.61181 158.599V139.531C6.61191 139.344 6.67292 139.162 6.78535 139.014C6.89778 138.866 7.05532 138.759 7.23349 138.712C7.41166 138.664 7.60048 138.677 7.77057 138.749C7.94066 138.821 8.0825 138.948 8.17404 139.11V139.12C8.18003 139.129 8.18508 139.138 8.18909 139.147C12.3161 147.137 18.7489 153.659 26.6281 157.843C26.6376 157.847 26.6465 157.852 26.6549 157.858H26.6649C26.8249 157.951 26.9502 158.095 27.0213 158.267C27.0923 158.44 27.1052 158.631 27.0579 158.812C27.0106 158.992 26.9058 159.152 26.7597 159.266C26.6136 159.38 26.4344 159.442 26.2501 159.442V159.447Z" fill="#FFF9F1"/>
<path d="M46.7815 94.9877C42.3455 94.9877 38.0911 93.2005 34.9543 90.0193C31.8175 86.838 30.0553 82.5234 30.0553 78.0244V78.0126C30.0553 73.5136 31.8175 69.199 34.9543 66.0177C38.0911 62.8365 42.3455 61.0493 46.7815 61.0493C51.2176 61.0493 55.472 62.8365 58.6088 66.0177C61.7456 69.199 63.5078 73.5136 63.5078 78.0126V78.0261C63.5074 82.5248 61.7449 86.839 58.6082 90.0199C55.4715 93.2007 51.2173 94.9877 46.7815 94.9877Z" fill="#FFF9F1"/>
<path d="M33.1399 94.9884H7.42332C7.20152 94.9884 6.9888 94.8991 6.83196 94.74C6.67512 94.581 6.58701 94.3652 6.58701 94.1403L6.58701 61.9102C6.58701 61.6852 6.67512 61.4695 6.83196 61.3104C6.9888 61.1514 7.20152 61.062 7.42332 61.062H33.1399C33.3123 61.0619 33.4804 61.1159 33.6213 61.2164C33.7623 61.3169 33.8692 61.4592 33.9274 61.6236C33.9856 61.7881 33.9923 61.9668 33.9466 62.1353C33.9008 62.3038 33.8049 62.4539 33.6718 62.565C31.4696 64.4741 29.702 66.845 28.4909 69.5141C27.2798 72.1833 26.6541 75.0871 26.6568 78.0252C26.6568 78.5454 26.6758 79.0605 26.7137 79.5706C26.9123 82.2398 27.6293 84.8429 28.8234 87.23C30.0175 89.6172 31.6653 91.7414 33.6718 93.4804C33.8049 93.5915 33.9008 93.7415 33.9466 93.91C33.9923 94.0785 33.9856 94.2572 33.9274 94.4217C33.8692 94.5862 33.7623 94.7284 33.6213 94.829C33.4804 94.9295 33.3123 94.9834 33.1399 94.9834V94.9884Z" fill="#FFF9F1"/>
<path d="M86.0777 135.701H46.7711C43.1097 135.702 39.5492 134.484 36.6359 132.235C33.7226 129.986 31.6175 126.83 30.6436 123.25L30.6168 123.15C30.6053 123.094 30.5997 123.037 30.6001 122.981C30.6001 122.756 30.6882 122.54 30.8451 122.381C31.0019 122.222 31.2146 122.132 31.4364 122.132H46.7711C54.7122 122.139 62.503 119.937 69.297 115.768C76.0909 111.598 81.6281 105.62 85.3067 98.4822C85.3213 98.447 85.3386 98.4129 85.3585 98.3804C85.4521 98.2205 85.5949 98.0962 85.765 98.0266C85.935 97.9571 86.1229 97.9461 86.2997 97.9955C86.4765 98.0449 86.6324 98.1518 86.7434 98.2998C86.8544 98.4478 86.9144 98.6287 86.9141 98.8147V134.855C86.9136 135.079 86.8253 135.295 86.6685 135.453C86.5117 135.612 86.2993 135.701 86.0777 135.701Z" fill="#FFF9F1"/>
<path d="M33.2483 20.3518C28.8002 20.3537 24.4211 19.2357 20.504 17.0981C16.5869 14.9605 13.2542 11.8702 10.8051 8.10438C10.72 7.97672 10.6708 7.82797 10.6628 7.6741C10.6548 7.52023 10.6883 7.36705 10.7596 7.23102C10.831 7.09499 10.9375 6.98125 11.0678 6.90201C11.1982 6.82277 11.3473 6.78102 11.4992 6.78125L54.9992 6.78125C55.1441 6.78117 55.2865 6.81927 55.4125 6.89181C55.5385 6.96435 55.6438 7.06886 55.718 7.19507C55.7922 7.32129 55.8327 7.46489 55.8358 7.6118C55.8388 7.75872 55.8041 7.90391 55.7351 8.03314L55.7251 8.0501C55.7067 8.08064 55.6883 8.10947 55.6665 8.14001C53.2166 11.8966 49.8864 14.9784 45.9741 17.1096C42.0617 19.2407 37.6893 20.3547 33.2483 20.3518Z" fill="#FFF9F1"/>
<path d="M46.7602 33.9263H7.45353C7.23173 33.9263 7.019 33.837 6.86216 33.6779C6.70532 33.5188 6.61722 33.3031 6.61722 33.0781V10.6426C6.61682 10.4607 6.67411 10.2834 6.78063 10.137C6.88716 9.99065 7.03727 9.88288 7.20881 9.82965C7.38034 9.77641 7.56422 9.78053 7.73328 9.84138C7.90233 9.90224 8.04761 10.0166 8.14767 10.1676C10.7352 14.0845 14.1795 17.3426 18.2121 19.6882C22.2448 22.0338 26.757 23.4035 31.3972 23.6907C32.0093 23.7292 32.626 23.7484 33.2471 23.7484C38.5893 23.7468 43.8358 22.3104 48.453 19.5853C53.0702 16.8602 56.8935 12.9436 59.5341 8.23381L59.6294 8.06418C59.7067 7.95356 59.809 7.86333 59.9277 7.80106C60.0464 7.73879 60.1782 7.7063 60.3118 7.7063C60.4455 7.7063 60.5772 7.73879 60.696 7.80106C60.8147 7.86333 60.917 7.95356 60.9943 8.06418C60.995 8.06696 60.995 8.06988 60.9943 8.07266L61.0478 8.16426C62.5846 10.7366 63.4194 13.6772 63.4666 16.6845C63.5139 19.6918 62.7718 22.6578 61.3165 25.2785C59.8613 27.8992 57.7451 30.0804 55.1849 31.5985C52.6247 33.1166 49.7125 33.9171 46.7468 33.9178L46.7602 33.9263Z" fill="#FFF9F1"/>
<path d="M84.4051 183.199H9.137C8.47159 183.199 7.83343 182.931 7.36292 182.454C6.8924 181.976 6.62807 181.329 6.62807 180.654V165.387C6.62807 164.713 6.8924 164.065 7.36292 163.588C7.83343 163.111 8.47159 162.843 9.137 162.843H65.1699C65.6135 162.843 66.039 162.664 66.3527 162.346C66.6663 162.028 66.8426 161.597 66.8426 161.147C66.8426 160.697 66.6663 160.265 66.3527 159.947C66.039 159.629 65.6135 159.45 65.1699 159.45H46.5118C35.9531 159.388 25.8444 155.106 18.3781 147.534C10.9119 139.962 6.68996 129.71 6.62807 119.002V100.927C6.62785 100.264 6.88321 99.6263 7.33971 99.151C7.7962 98.6756 8.41772 98.4 9.07177 98.3827H46.7711C52.0944 98.3942 57.2041 96.2605 60.9762 92.4512C64.7484 88.6418 66.8739 83.4688 66.8852 78.0701C66.8965 72.6714 64.7927 67.4892 61.0366 63.6636C57.2804 59.8381 52.1797 57.6824 46.8564 57.6709C46.9149 57.6709 46.9734 57.6709 47.0236 57.6709L9.137 57.6709C8.47159 57.6709 7.83343 57.4029 7.36292 56.9257C6.8924 56.4485 6.62807 55.8013 6.62807 55.1265V39.8596C6.62807 39.1847 6.8924 38.5375 7.36292 38.0603C7.83343 37.5831 8.47159 37.3151 9.137 37.3151H47.3766C47.2611 37.3151 47.1457 37.3151 47.0303 37.3151C50.2142 37.2741 53.3427 36.4654 56.1576 34.956C58.9724 33.4465 61.3927 31.2796 63.2187 28.6341C65.0447 25.9886 66.2238 22.9405 66.6588 19.7416C67.0937 16.5426 66.772 13.2846 65.7202 10.2367L65.6667 10.0823C65.5927 9.83712 65.5549 9.58215 65.5546 9.32573C65.5546 8.6509 65.819 8.0037 66.2895 7.52651C66.76 7.04933 67.3982 6.78125 68.0636 6.78125L83.6541 6.78125C84.219 6.78108 84.7675 6.97426 85.2107 7.32952C85.6538 7.68479 85.9658 8.18134 86.0961 8.73881C86.1079 8.79309 86.1196 8.84907 86.1279 8.90844V8.94406C86.6326 11.4985 86.8936 14.0962 86.9074 16.7013V17.2272C86.855 27.8987 82.6614 38.1202 75.2341 45.6796L75.1655 45.7509C74.7338 46.2152 74.4899 46.8271 74.4822 47.4652C74.4744 48.1034 74.7034 48.7212 75.1237 49.1961C75.1806 49.2606 75.2408 49.3216 75.3044 49.381C82.6903 56.9334 86.859 67.1236 86.9141 77.7605V78.2864C86.8807 85.3443 85.0305 92.271 81.5466 98.381C78.0239 104.572 72.9552 109.714 66.8506 113.287C60.7461 116.861 53.8212 118.74 46.7727 118.737H29.3858C28.7204 118.737 28.0822 119.005 27.6117 119.482C27.1412 119.959 26.8769 120.607 26.8769 121.281C26.8769 121.37 26.8769 121.451 26.8902 121.541C26.8885 121.553 26.8885 121.566 26.8902 121.578L26.9086 121.721C27.6143 126.55 30.0079 130.962 33.6531 134.15C37.2982 137.339 41.9521 139.093 46.766 139.093H84.4001C85.0655 139.093 85.7037 139.361 86.1742 139.838C86.6447 140.315 86.909 140.962 86.909 141.637V180.653C86.9095 181.327 86.646 181.974 86.1766 182.451C85.7071 182.929 85.07 183.198 84.4051 183.199Z" fill="#FFF9F1"/>
<path d="M23.7289 193.955C23.8554 193.957 23.9798 193.988 24.0936 194.044C24.2126 194.097 24.3137 194.184 24.3846 194.295L28.0811 200.006L27.4556 199.976L31.224 194.295C31.2864 194.191 31.3741 194.105 31.4787 194.046C31.5833 193.986 31.7012 193.955 31.8211 193.955C32.0139 193.955 32.199 194.032 32.3363 194.169C32.4096 194.237 32.4677 194.32 32.5067 194.413C32.5456 194.506 32.5645 194.606 32.5621 194.707V203.548C32.5654 203.647 32.549 203.746 32.5139 203.838C32.4789 203.93 32.4259 204.015 32.358 204.086C32.2882 204.157 32.2043 204.213 32.1118 204.25C32.0194 204.287 31.9204 204.304 31.8211 204.3C31.7183 204.305 31.6156 204.288 31.5192 204.251C31.4229 204.215 31.3349 204.158 31.2608 204.086C31.1908 204.016 31.1358 203.932 31.0993 203.839C31.0627 203.747 31.0454 203.648 31.0484 203.548V196.066L31.515 196.169L28.3136 201.112C28.2408 201.204 28.1518 201.282 28.051 201.341C27.9478 201.396 27.833 201.424 27.7165 201.424C27.6 201.424 27.4852 201.396 27.382 201.341C27.2786 201.283 27.1872 201.205 27.1127 201.112L24.0283 196.242L24.3779 195.652V203.548C24.3845 203.747 24.3136 203.94 24.1806 204.086C24.1148 204.157 24.0348 204.213 23.9459 204.25C23.857 204.287 23.7614 204.304 23.6654 204.3C23.5716 204.302 23.4785 204.284 23.3921 204.247C23.3056 204.21 23.2278 204.155 23.1636 204.086C23.0317 203.939 22.9614 203.746 22.9679 203.548V194.707C22.967 194.607 22.9866 194.509 23.0254 194.417C23.0643 194.326 23.1216 194.244 23.1937 194.176C23.2637 194.105 23.3472 194.048 23.4392 194.01C23.5311 193.972 23.6297 193.954 23.7289 193.955Z" fill="black"/>
<path d="M44.2318 195.887L40.9568 203.86C40.9067 204.006 40.8161 204.134 40.6959 204.23C40.5828 204.317 40.4446 204.363 40.3028 204.362C40.214 204.369 40.1249 204.356 40.0416 204.324C39.9584 204.292 39.8831 204.242 39.8211 204.177C39.7146 204.046 39.6556 203.882 39.6538 203.712C39.6562 203.632 39.6709 203.552 39.6973 203.476L43.3938 194.415C43.453 194.26 43.5567 194.126 43.6915 194.031C43.8178 193.945 43.9692 193.903 44.1214 193.914C44.2676 193.915 44.4102 193.961 44.5295 194.047C44.6567 194.138 44.753 194.266 44.8055 194.415L48.4585 203.344C48.4958 203.438 48.5151 203.538 48.5154 203.639C48.5178 203.732 48.5021 203.825 48.469 203.912C48.4359 203.999 48.3863 204.078 48.3228 204.145C48.2593 204.212 48.1834 204.266 48.0993 204.303C48.0152 204.34 47.9247 204.36 47.8329 204.362C47.6876 204.362 47.5463 204.313 47.4315 204.223C47.3109 204.129 47.2178 204.003 47.1622 203.86L43.8588 195.935L44.2318 195.887ZM41.5389 201.762L42.1945 200.345H46.3042L46.5517 201.762H41.5389Z" fill="black"/>
<path d="M57.9993 204.446C57.4504 204.452 56.9092 204.315 56.427 204.049C55.9562 203.787 55.5603 203.405 55.2779 202.941C55.1982 202.818 55.1531 202.675 55.1474 202.528C55.1467 202.431 55.1672 202.335 55.2074 202.247C55.2476 202.159 55.3065 202.081 55.3799 202.019C55.5048 201.894 55.6702 201.821 55.8449 201.812C55.9767 201.811 56.1059 201.849 56.2162 201.922C56.3312 202 56.4363 202.091 56.529 202.195C56.7042 202.435 56.9277 202.634 57.1847 202.779C57.4355 202.913 57.7156 202.981 57.9993 202.977C58.3304 202.982 58.657 202.899 58.946 202.734C59.2227 202.576 59.4534 202.347 59.615 202.07C59.7793 201.791 59.8649 201.472 59.8626 201.147V194.728C59.8602 194.626 59.8798 194.526 59.92 194.433C59.9601 194.34 60.0199 194.257 60.0951 194.19C60.2407 194.051 60.4335 193.974 60.6336 193.975C60.7332 193.971 60.8325 193.988 60.9253 194.025C61.018 194.062 61.1021 194.118 61.1722 194.19C61.2395 194.262 61.292 194.346 61.3267 194.438C61.3615 194.531 61.3778 194.629 61.3746 194.728V201.147C61.3798 201.729 61.2264 202.301 60.9314 202.801C60.6379 203.3 60.2218 203.715 59.7237 204.003C59.1984 204.305 58.6028 204.458 57.9993 204.446Z" fill="black"/>
<path d="M70.8514 203.549C70.8495 203.65 70.8274 203.75 70.7862 203.843C70.7451 203.935 70.6859 204.018 70.6122 204.087C70.4694 204.226 70.2784 204.303 70.0803 204.3C69.9798 204.304 69.8797 204.287 69.7859 204.25C69.6922 204.214 69.6068 204.158 69.535 204.087C69.4656 204.016 69.411 203.932 69.3748 203.84C69.3386 203.747 69.3213 203.648 69.3242 203.549V194.728C69.3214 194.628 69.3393 194.528 69.3767 194.436C69.4142 194.343 69.4704 194.259 69.5417 194.19C69.6176 194.118 69.707 194.061 69.8047 194.024C69.9023 193.987 70.0062 193.971 70.1104 193.975C70.3033 193.975 70.4884 194.053 70.6256 194.19C70.6989 194.258 70.757 194.341 70.7959 194.434C70.8349 194.527 70.8538 194.627 70.8514 194.728V203.549Z" fill="black"/>
<path d="M12.2172 213.577C12.8654 213.564 13.5077 213.703 14.0939 213.984C14.6271 214.246 15.0931 214.63 15.4554 215.106C15.8275 215.6 16.1059 216.16 16.2767 216.758C16.4639 217.403 16.5575 218.072 16.5543 218.744C16.5636 219.638 16.3928 220.524 16.0525 221.348C15.7491 222.096 15.2449 222.742 14.5974 223.214C13.9562 223.675 13.1606 223.906 12.2105 223.906H8.66622C8.56931 223.908 8.47306 223.89 8.38314 223.853C8.29322 223.816 8.21146 223.762 8.14269 223.692C8.07117 223.623 8.01472 223.54 7.97698 223.447C7.93924 223.354 7.92105 223.255 7.92358 223.155V214.334C7.92105 214.234 7.93924 214.134 7.97698 214.041C8.01472 213.949 8.07117 213.865 8.14269 213.796C8.21138 213.727 8.29309 213.672 8.383 213.635C8.47291 213.598 8.5692 213.579 8.66622 213.581L12.2172 213.577ZM12.0717 222.491C12.7608 222.491 13.3184 222.322 13.7443 221.983C14.1785 221.63 14.5046 221.159 14.6843 220.625C14.888 220.025 14.9886 219.394 14.9821 218.76C14.985 218.279 14.9288 217.801 14.8148 217.335C14.7112 216.91 14.5339 216.508 14.2913 216.147C14.0587 215.803 13.7492 215.52 13.388 215.321C12.9815 215.109 12.5286 215.005 12.0717 215.019H9.32189L9.45236 214.885V222.663L9.36538 222.515L12.0717 222.491Z" fill="black"/>
<path d="M24.8465 213.577H29.8811C29.9765 213.575 30.0713 213.592 30.1601 213.627C30.2488 213.663 30.3297 213.716 30.398 213.784C30.4657 213.849 30.5193 213.928 30.5555 214.016C30.5918 214.103 30.6099 214.197 30.6087 214.292C30.613 214.388 30.5962 214.483 30.5598 214.571C30.5233 214.659 30.4681 214.738 30.398 214.801C30.2558 214.929 30.0711 214.998 29.8811 214.993H25.4855L25.631 214.742V218.048L25.5005 217.9H29.2255C29.3208 217.898 29.4156 217.915 29.5043 217.95C29.5931 217.986 29.674 218.038 29.7423 218.106C29.812 218.175 29.8668 218.258 29.9031 218.35C29.9393 218.441 29.9564 218.54 29.9531 218.638C29.9575 218.734 29.9409 218.829 29.9045 218.917C29.868 219.005 29.8126 219.084 29.7423 219.147C29.6009 219.277 29.4158 219.346 29.2255 219.341H25.5306L25.631 219.207V222.611L25.5306 222.492H29.8795C29.9754 222.491 30.0707 222.509 30.1596 222.545C30.2485 222.582 30.329 222.637 30.3963 222.706C30.463 222.77 30.5161 222.846 30.5523 222.932C30.5886 223.017 30.6072 223.109 30.6071 223.202C30.61 223.297 30.5927 223.391 30.5564 223.479C30.52 223.567 30.4654 223.646 30.3963 223.71C30.2561 223.842 30.0707 223.914 29.8795 223.909H24.8449C24.7477 223.911 24.6512 223.892 24.561 223.856C24.4708 223.819 24.3887 223.764 24.3197 223.695C24.2484 223.626 24.1922 223.542 24.1547 223.45C24.1173 223.357 24.0994 223.257 24.1022 223.157V214.337C24.0994 214.236 24.1173 214.137 24.1547 214.044C24.1922 213.952 24.2484 213.868 24.3197 213.799C24.3883 213.728 24.4703 213.672 24.5608 213.633C24.6513 213.595 24.7485 213.576 24.8465 213.577Z" fill="black"/>
<path d="M41.1981 224.048C40.5655 224.058 39.9359 223.958 39.3364 223.753C38.7599 223.533 38.2319 223.2 37.7826 222.772C37.6798 222.699 37.5969 222.6 37.5417 222.486C37.4906 222.38 37.4632 222.264 37.4614 222.146C37.4604 221.956 37.5337 221.773 37.6655 221.638C37.73 221.566 37.809 221.509 37.897 221.471C37.985 221.433 38.08 221.415 38.1756 221.417C38.3361 221.421 38.4902 221.481 38.6122 221.587C38.9518 221.911 39.3424 222.175 39.768 222.369C40.2186 222.554 40.7018 222.644 41.188 222.633C41.553 222.638 41.9156 222.573 42.2568 222.442C42.5518 222.335 42.8185 222.161 43.0363 221.933C43.2252 221.729 43.3294 221.459 43.3273 221.18C43.3386 220.859 43.2319 220.546 43.0279 220.301C42.7902 220.044 42.4963 219.847 42.1699 219.726C41.7364 219.555 41.2885 219.424 40.8318 219.336C40.3862 219.257 39.9496 219.134 39.5288 218.966C39.1711 218.824 38.8392 218.622 38.547 218.369C38.2783 218.131 38.0647 217.836 37.9214 217.505C37.7695 217.136 37.6954 216.738 37.704 216.338C37.6895 215.785 37.8527 215.241 38.1689 214.789C38.4944 214.345 38.9318 213.999 39.4351 213.785C40.006 213.542 40.6206 213.421 41.2399 213.431C41.824 213.427 42.4044 213.524 42.956 213.719C43.4382 213.879 43.8805 214.144 44.2523 214.494C44.3548 214.572 44.4391 214.672 44.4992 214.787C44.5593 214.901 44.5938 215.028 44.6002 215.158C44.5965 215.344 44.5208 215.522 44.3894 215.653C44.3292 215.724 44.2545 215.781 44.1706 215.821C44.0866 215.86 43.9953 215.881 43.9027 215.882C43.776 215.885 43.6523 215.843 43.5531 215.763C43.3725 215.577 43.1607 215.425 42.9276 215.314C42.6595 215.175 42.3796 215.062 42.0913 214.974C41.8152 214.889 41.5285 214.845 41.2399 214.842C40.8584 214.833 40.4785 214.895 40.1192 215.025C39.8411 215.127 39.595 215.303 39.4067 215.534C39.2411 215.746 39.1536 216.01 39.1591 216.281C39.1477 216.582 39.2486 216.877 39.4418 217.107C39.6614 217.343 39.9331 217.522 40.2346 217.631C40.617 217.776 41.0081 217.897 41.4055 217.992C41.8906 218.096 42.3693 218.229 42.8389 218.391C43.2247 218.518 43.5866 218.71 43.9094 218.959C44.1982 219.187 44.4278 219.484 44.5784 219.822C44.7456 220.229 44.8249 220.667 44.8109 221.107C44.8199 221.665 44.6431 222.211 44.3092 222.655C43.9693 223.107 43.5214 223.462 43.0078 223.688C42.4371 223.939 41.8198 224.061 41.1981 224.048Z" fill="black"/>
<path d="M53.7576 223.151C53.7554 223.252 53.733 223.352 53.692 223.445C53.6509 223.537 53.5918 223.62 53.5184 223.689C53.3757 223.828 53.1846 223.905 52.9865 223.903C52.8861 223.906 52.7859 223.889 52.6922 223.853C52.5984 223.816 52.513 223.76 52.4412 223.689C52.3718 223.618 52.3173 223.534 52.281 223.442C52.2448 223.35 52.2276 223.251 52.2305 223.151V214.33C52.2277 214.23 52.2455 214.131 52.283 214.038C52.3204 213.945 52.3766 213.862 52.4479 213.792C52.5236 213.72 52.6127 213.664 52.7101 213.627C52.8074 213.59 52.9111 213.573 53.015 213.577C53.2084 213.577 53.394 213.655 53.5318 213.792C53.6051 213.861 53.6632 213.944 53.7022 214.036C53.7411 214.129 53.76 214.229 53.7576 214.33V223.151Z" fill="black"/>
<path d="M66.5228 224.056C65.8143 224.061 65.1119 223.923 64.4571 223.648C63.8312 223.385 63.2627 222.999 62.7845 222.512C62.3048 222.025 61.9221 221.449 61.6571 220.816C61.3873 220.156 61.2484 219.449 61.2484 218.735C61.2484 218.021 61.3873 217.314 61.6571 216.654C61.9221 216.021 62.3048 215.445 62.7845 214.958C63.2627 214.471 63.8312 214.085 64.4571 213.822C65.1119 213.547 65.8143 213.409 66.5228 213.414C66.9888 213.416 67.453 213.473 67.9061 213.584C68.3285 213.684 68.735 213.843 69.1137 214.057C69.2307 214.117 69.3269 214.212 69.3897 214.329C69.4461 214.433 69.476 214.549 69.4767 214.668C69.4798 214.866 69.41 215.059 69.281 215.207C69.2216 215.28 69.147 215.339 69.0624 215.378C68.9779 215.418 68.8857 215.438 68.7925 215.436C68.7213 215.436 68.6504 215.426 68.5818 215.406C68.5143 215.388 68.4487 215.364 68.3861 215.333C68.1082 215.193 67.8152 215.087 67.513 215.016C67.1883 214.94 66.856 214.902 66.5228 214.904C65.8677 214.896 65.2227 215.068 64.6555 215.4C64.0883 215.733 63.62 216.214 63.2996 216.794C62.9799 217.39 62.8124 218.058 62.8124 218.738C62.8124 219.417 62.9799 220.085 63.2996 220.682C63.6173 221.264 64.0849 221.748 64.6525 222.082C65.2202 222.416 65.8666 222.587 66.5228 222.578C66.8852 222.576 67.2463 222.534 67.6 222.454C67.9331 222.384 68.2558 222.27 68.56 222.115L68.4446 222.514V219.71L68.6771 219.915H66.7703C66.673 219.918 66.5759 219.901 66.4849 219.866C66.3939 219.831 66.3106 219.778 66.2401 219.71C66.1049 219.566 66.0294 219.376 66.0294 219.178C66.0294 218.98 66.1049 218.789 66.2401 218.646C66.3105 218.577 66.3937 218.524 66.4847 218.488C66.5757 218.453 66.6728 218.436 66.7703 218.439H69.2876C69.3837 218.437 69.4791 218.455 69.568 218.492C69.6569 218.53 69.7374 218.585 69.8045 218.654C69.8739 218.725 69.9284 218.809 69.9647 218.901C70.0009 218.994 70.0181 219.093 70.0152 219.192V222.468C70.0201 222.61 69.9796 222.75 69.8998 222.866C69.8276 222.969 69.7388 223.059 69.6372 223.133C69.1845 223.416 68.6976 223.64 68.1887 223.798C67.6494 223.968 67.0878 224.055 66.5228 224.056Z" fill="black"/>
<path d="M85.1816 213.577C85.2701 213.574 85.3581 213.59 85.4397 213.625C85.5214 213.659 85.5948 213.711 85.655 213.777C85.7762 213.911 85.841 214.088 85.8356 214.271V223.156C85.8384 223.255 85.8211 223.354 85.7849 223.447C85.7486 223.539 85.6941 223.623 85.6248 223.694C85.5554 223.764 85.4726 223.819 85.3815 223.856C85.2903 223.893 85.1927 223.91 85.0947 223.907C84.9874 223.906 84.8811 223.887 84.7802 223.85C84.6819 223.817 84.5941 223.759 84.526 223.68L78.5463 215.826L78.8808 215.634V223.234C78.8824 223.323 78.8665 223.411 78.8341 223.493C78.8016 223.576 78.7533 223.651 78.6918 223.714C78.6296 223.779 78.5546 223.831 78.4716 223.865C78.3887 223.899 78.2996 223.915 78.2101 223.912C78.1197 223.917 78.0295 223.901 77.9455 223.867C77.8615 223.833 77.7858 223.78 77.7234 223.714C77.6028 223.584 77.5374 223.412 77.5411 223.234V214.335C77.5373 214.233 77.5548 214.132 77.5926 214.038C77.6304 213.944 77.6875 213.859 77.7602 213.789C77.9011 213.653 78.0892 213.578 78.2837 213.582C78.3983 213.584 78.5116 213.607 78.6182 213.65C78.7272 213.684 78.8219 213.754 78.8875 213.848L84.7233 221.551L84.5059 221.758V214.276C84.5032 214.185 84.5185 214.094 84.551 214.009C84.5834 213.925 84.6324 213.847 84.6949 213.782C84.757 213.715 84.8325 213.661 84.9164 213.626C85.0004 213.591 85.0908 213.574 85.1816 213.577Z" fill="black"/>
</g>
</svg>
