<svg width="271" height="152" viewBox="0 0 271 152" fill="none" xmlns="http://www.w3.org/2000/svg">
<path d="M78.5924 1.68099C78.5924 1.91259 78.5305 2.13999 78.4131 2.33963C78.2956 2.53927 78.127 2.70389 77.9246 2.81645C77.8844 2.83981 77.8427 2.86064 77.7999 2.87881C72.5385 5.64014 67.663 9.0812 63.2987 13.1135L63.1974 13.2045C62.9653 13.3942 62.6748 13.4979 62.375 13.4979C62.0753 13.4979 61.7847 13.3942 61.5527 13.2045L61.4409 13.1006C57.0639 9.05283 52.1714 5.60101 46.8904 2.83464L46.8332 2.80346C46.5888 2.66121 46.3974 2.44306 46.2882 2.18216C46.179 1.92126 46.158 1.63184 46.2282 1.35787C46.2985 1.08391 46.4562 0.840349 46.6775 0.66419C46.8988 0.488031 47.1715 0.388895 47.4542 0.381836L77.2932 0.381836C77.6378 0.381836 77.9682 0.518711 78.2118 0.762349C78.4555 1.00599 78.5924 1.33643 78.5924 1.68099Z" fill="#F49E33"/>
<path d="M233.852 94.5938V123.801C233.852 124.146 233.715 124.476 233.472 124.72C233.228 124.964 232.897 125.101 232.553 125.101H203.345C203.059 125.1 202.781 125.006 202.554 124.831C202.327 124.656 202.164 124.412 202.09 124.135C202.017 123.858 202.037 123.565 202.147 123.301C202.258 123.036 202.452 122.816 202.701 122.674H202.717C202.729 122.664 202.743 122.657 202.758 122.65C214.996 116.239 224.986 106.246 231.394 94.0066C231.4 93.9919 231.408 93.978 231.417 93.965V93.9494C231.56 93.7009 231.78 93.5063 232.044 93.3959C232.308 93.2854 232.602 93.2654 232.878 93.3389C233.155 93.4124 233.4 93.5753 233.575 93.8022C233.749 94.0292 233.844 94.3075 233.844 94.5938H233.852Z" fill="#04BFBF"/>
<path d="M135.102 62.7411C135.102 69.6323 132.364 76.2412 127.491 81.1139C122.618 85.9867 116.01 88.7242 109.118 88.7242H109.1C102.209 88.7242 95.6002 85.9867 90.7275 81.1139C85.8547 76.2412 83.1172 69.6323 83.1172 62.7411C83.1172 55.85 85.8547 49.2411 90.7275 44.3683C95.6002 39.4956 102.209 36.7581 109.1 36.7581H109.118C116.01 36.7581 122.618 39.4956 127.491 44.3683C132.364 49.2411 135.102 55.85 135.102 62.7411Z" fill="#04BFBF"/>
<path d="M135.107 83.853V123.802C135.107 124.147 134.97 124.477 134.726 124.721C134.483 124.964 134.152 125.101 133.808 125.101H84.4398C84.0952 125.101 83.7648 124.964 83.5211 124.721C83.2775 124.477 83.1406 124.147 83.1406 123.802V83.853C83.1405 83.5853 83.2231 83.3242 83.3771 83.1052C83.5311 82.8862 83.749 82.7202 84.0009 82.6298C84.2529 82.5393 84.5266 82.5289 84.7847 82.6C85.0427 82.6711 85.2726 82.8201 85.4427 83.0268C88.3672 86.4473 91.999 89.1926 96.0873 91.0735C100.176 92.9544 104.623 93.9261 109.124 93.9215C109.922 93.9215 110.711 93.892 111.491 93.8331C115.579 93.5246 119.566 92.4109 123.223 90.5558C126.879 88.7008 130.133 86.1412 132.797 83.0242C132.967 82.8175 133.197 82.6685 133.455 82.5974C133.713 82.5263 133.987 82.5367 134.239 82.6272C134.491 82.7176 134.709 82.8836 134.863 83.1026C135.016 83.3216 135.099 83.5827 135.099 83.8504L135.107 83.853Z" fill="#04BFBF"/>
<path d="M197.466 1.68099V62.7412C197.467 68.4289 195.602 73.9599 192.157 78.4854C188.712 83.011 183.877 86.2812 178.394 87.7941L178.241 87.8357C178.155 87.8536 178.068 87.8623 177.981 87.8616C177.636 87.8616 177.306 87.7248 177.062 87.4811C176.819 87.2375 176.682 86.907 176.682 86.5625V62.7412C176.691 50.4053 173.319 38.3027 166.933 27.7487C160.546 17.1948 151.389 8.59322 140.456 2.87881C140.402 2.85614 140.35 2.8292 140.3 2.79826C140.055 2.65302 139.865 2.4314 139.759 2.16749C139.652 1.90357 139.635 1.61195 139.71 1.33745C139.786 1.06295 139.949 0.820769 140.175 0.648122C140.401 0.475475 140.678 0.38192 140.963 0.381836L196.166 0.381836C196.511 0.381836 196.841 0.518711 197.085 0.762349C197.329 1.00599 197.466 1.33643 197.466 1.68099Z" fill="#F49E33"/>
<path d="M20.7865 83.7199C20.7866 85.2319 20.7051 86.7429 20.5422 88.2461C19.879 94.3539 17.8755 100.24 14.6749 105.484C11.4743 110.728 7.15548 115.201 2.02668 118.584C1.83114 118.716 1.60329 118.793 1.36761 118.805C1.13192 118.817 0.897293 118.765 0.688932 118.655C0.480572 118.544 0.306346 118.378 0.184968 118.176C0.0635904 117.973 -0.000354473 117.742 1.47798e-06 117.506V49.9315C-0.000123398 49.7064 0.058232 49.4851 0.169349 49.2894C0.280466 49.0936 0.440532 48.9301 0.633862 48.8149C0.827191 48.6996 1.04715 48.6365 1.27218 48.6319C1.49722 48.6272 1.7196 48.6811 1.91755 48.7882L1.94354 48.8038C1.9903 48.8324 2.03448 48.861 2.08125 48.8947C7.8353 52.7005 12.5558 57.8738 15.8202 63.9513C19.0846 70.0289 20.7909 76.8211 20.7865 83.7199Z" fill="#04BFBF"/>
<path d="M41.576 62.7411V123.801C41.576 124.146 41.4392 124.476 41.1955 124.72C40.9519 124.964 40.6214 125.101 40.2769 125.101H5.91166C5.633 125.101 5.36151 125.012 5.13729 124.847C4.91307 124.681 4.74801 124.448 4.66646 124.182C4.58492 123.915 4.59122 123.629 4.68444 123.367C4.77765 123.104 4.95284 122.878 5.18414 122.723C11.1837 118.703 16.1743 113.353 19.7671 107.089C23.3599 100.824 25.458 93.8148 25.8978 86.6066C25.9567 85.6556 25.9862 84.6977 25.9862 83.7329C25.9951 76.9238 24.52 70.1947 21.6633 64.0139C18.8067 57.833 14.6373 52.3491 9.44536 47.9438C7.20142 46.0349 4.78302 44.3411 2.22207 42.8849L1.96224 42.7368C1.79279 42.6167 1.65459 42.4578 1.55922 42.2734C1.46384 42.0889 1.41406 41.8843 1.41406 41.6767C1.41406 41.469 1.46384 41.2644 1.55922 41.0799C1.65459 40.8955 1.79279 40.7366 1.96224 40.6166L2.10255 40.5334C6.04271 38.1398 10.5488 36.8376 15.1584 36.7605C19.768 36.6834 24.3151 37.8341 28.3331 40.0947C32.3512 42.3552 35.6954 45.6441 38.0226 49.6238C40.3498 53.6036 41.5762 58.1309 41.576 62.7411Z" fill="#04BFBF"/>
<path d="M270.224 4.64355V121.567C270.224 122.601 269.813 123.592 269.082 124.323C268.352 125.054 267.36 125.465 266.327 125.465H242.942C241.908 125.465 240.917 125.054 240.186 124.323C239.455 123.592 239.044 122.601 239.044 121.567V34.5241C239.044 33.835 238.771 33.1741 238.283 32.6868C237.796 32.1995 237.135 31.9258 236.446 31.9258C235.757 31.9258 235.096 32.1995 234.609 32.6868C234.121 33.1741 233.848 33.835 233.848 34.5241V63.5082C233.752 79.9105 227.193 95.6136 215.595 107.212C203.996 118.81 188.293 125.369 171.891 125.465H144.206C143.19 125.465 142.213 125.069 141.485 124.359C140.757 123.65 140.335 122.685 140.309 121.669V63.1055C140.326 54.8361 137.058 46.8984 131.223 41.0387C125.388 35.1789 117.465 31.8771 109.195 31.8595C105.101 31.8508 101.044 32.6487 97.2582 34.2076C93.4719 35.7665 90.0298 38.0558 87.1284 40.945C81.2686 46.7799 77.9668 54.7036 77.9492 62.973C77.9492 62.882 77.9492 62.7911 77.9492 62.7131V121.567C77.9492 122.601 77.5386 123.592 76.8077 124.323C76.0768 125.054 75.0854 125.465 74.0518 125.465H50.667C49.6333 125.465 48.642 125.054 47.9111 124.323C47.1802 123.592 46.7695 122.601 46.7695 121.567V62.1649C46.7695 62.3442 46.7695 62.5235 46.7695 62.7027C46.7067 57.7568 45.4681 52.8969 43.1561 48.5242C40.844 44.1515 37.5248 40.3917 33.4726 37.5552C29.4205 34.7187 24.7516 32.887 19.8517 32.2113C14.9518 31.5356 9.96138 32.0353 5.29275 33.6692L5.05631 33.7524C4.68076 33.8674 4.29023 33.9261 3.89746 33.9265C2.86379 33.9265 1.87246 33.5159 1.14154 32.7849C0.410624 32.054 1.76097e-07 31.0627 1.76097e-07 30.029V5.81019C-0.000263522 4.93264 0.295637 4.08068 0.839805 3.39222C1.38397 2.70376 2.14456 2.21909 2.99845 2.01667C3.08159 1.99848 3.16734 1.98029 3.25828 1.9673H3.31284C7.2226 1.18029 11.199 0.771337 15.1871 0.746094L15.9926 0.746094C26.8026 0.798216 37.4115 3.67236 46.7695 9.08406C51.4443 11.7898 55.749 15.0894 59.5766 18.9005L59.6857 19.007C60.3969 19.6776 61.3342 20.0565 62.3116 20.0686C63.2891 20.0806 64.2354 19.7249 64.9629 19.072C65.0616 18.9836 65.1552 18.8901 65.2461 18.7913C76.8139 7.31273 92.4248 0.833038 108.721 0.746094L109.526 0.746094C120.338 0.797432 130.949 3.6716 140.309 9.08406C149.793 14.5566 157.668 22.4309 163.141 31.9144C168.615 41.3978 171.494 52.1558 171.488 63.1055V90.1123C171.488 91.146 171.899 92.1373 172.63 92.8682C173.361 93.5991 174.352 94.0097 175.386 94.0097C175.521 94.0097 175.646 94.0097 175.783 93.989C175.802 93.9917 175.821 93.9917 175.84 93.989L176.059 93.9604C183.457 92.864 190.215 89.1445 195.1 83.4804C199.985 77.8163 202.671 70.585 202.668 63.1055V4.64355C202.668 3.60988 203.079 2.61855 203.81 1.88763C204.54 1.15672 205.532 0.746094 206.565 0.746094L266.327 0.746094C267.36 0.746094 268.352 1.15672 269.082 1.88763C269.813 2.61855 270.224 3.60988 270.224 4.64355Z" fill="#024F59"/>
<path d="M17.8784 136.565C18.0586 136.568 18.236 136.611 18.398 136.69C18.5698 136.767 18.7146 136.893 18.8138 137.053L24.0935 145.108L23.1997 145.067L28.5834 137.053C28.6729 136.908 28.7982 136.787 28.9473 136.704C29.0965 136.62 29.2646 136.576 29.4356 136.575C29.5724 136.575 29.708 136.601 29.8346 136.653C29.9613 136.704 30.0764 136.78 30.1736 136.877C30.2785 136.973 30.3615 137.09 30.4171 137.221C30.4727 137.352 30.4995 137.493 30.4957 137.635V150.087C30.5007 150.226 30.4775 150.365 30.4275 150.496C30.3775 150.626 30.3017 150.745 30.2047 150.845C30.1033 150.948 29.9815 151.027 29.8471 151.079C29.7128 151.131 29.5691 151.154 29.4252 151.147C29.2787 151.149 29.1332 151.122 28.9974 151.066C28.8617 151.011 28.7385 150.929 28.6354 150.824C28.5365 150.725 28.4588 150.606 28.407 150.476C28.3552 150.346 28.3304 150.206 28.3339 150.066V139.537L28.9991 139.683L24.4261 146.646C24.3231 146.777 24.1961 146.886 24.0519 146.969C23.9055 147.043 23.7435 147.082 23.579 147.082C23.4146 147.082 23.2526 147.043 23.1062 146.969C22.9585 146.887 22.8279 146.777 22.7216 146.646L18.3045 139.787L18.8034 138.955V150.076C18.8128 150.351 18.716 150.619 18.5331 150.824C18.4386 150.924 18.3239 151.003 18.1967 151.055C18.0694 151.107 17.9326 151.131 17.7952 151.126C17.6611 151.13 17.5277 151.105 17.404 151.053C17.2803 151.001 17.1692 150.923 17.0781 150.824C16.8889 150.618 16.7882 150.346 16.7975 150.066V137.625C16.7963 137.485 16.8244 137.346 16.8798 137.217C16.9353 137.088 17.017 136.972 17.1197 136.877C17.219 136.777 17.3373 136.698 17.4675 136.644C17.5978 136.591 17.7375 136.564 17.8784 136.565Z" fill="white"/>
<path d="M50.3316 139.287L45.6546 150.511C45.5827 150.717 45.4528 150.898 45.2805 151.031C45.1194 151.154 44.9219 151.22 44.7192 151.218C44.5928 151.228 44.4659 151.21 44.3473 151.165C44.2288 151.12 44.1216 151.049 44.0333 150.958C43.8731 150.777 43.7812 150.545 43.7734 150.304C43.7765 150.19 43.7975 150.078 43.8358 149.971L49.1156 137.208C49.199 136.989 49.3477 136.8 49.5417 136.668C49.7218 136.546 49.9377 136.487 50.1549 136.501C50.3637 136.502 50.5672 136.567 50.7369 136.688C50.9191 136.817 51.057 136.998 51.1318 137.208L56.3596 149.784C56.4133 149.916 56.4415 150.057 56.4428 150.2C56.4459 150.331 56.423 150.461 56.3756 150.584C56.3281 150.706 56.2569 150.817 56.1661 150.912C56.0753 151.007 55.9667 151.083 55.8465 151.135C55.7263 151.188 55.597 151.216 55.4658 151.218C55.2585 151.219 55.057 151.149 54.8942 151.021C54.7198 150.887 54.5866 150.707 54.5096 150.501L49.7911 139.328L50.3316 139.287ZM46.4861 147.56L47.4215 145.564H53.304L53.6574 147.56H46.4861Z" fill="white"/>
<path d="M73.1368 151.343C72.3527 151.352 71.5796 151.159 70.8918 150.782C70.2188 150.413 69.653 149.876 69.2497 149.223C69.1358 149.05 69.0711 148.849 69.0626 148.641C69.0604 148.503 69.0892 148.366 69.1467 148.24C69.2042 148.114 69.2891 148.003 69.3952 147.914C69.5732 147.738 69.8103 147.634 70.0604 147.623C70.2451 147.623 70.4257 147.677 70.58 147.779C70.745 147.887 70.8952 148.016 71.0269 148.163C71.2773 148.5 71.5961 148.78 71.9623 148.984C72.3206 149.174 72.7209 149.271 73.1264 149.265C73.5991 149.271 74.0651 149.153 74.4775 148.922C74.8729 148.7 75.2027 148.377 75.4337 147.986C75.6688 147.594 75.7911 147.145 75.787 146.687V137.645C75.7839 137.502 75.812 137.36 75.8694 137.229C75.9269 137.098 76.0123 136.981 76.1196 136.886C76.3304 136.689 76.61 136.58 76.8991 136.585C77.0429 136.578 77.1867 136.601 77.321 136.653C77.4553 136.705 77.5772 136.784 77.6786 136.886C77.7756 136.987 77.8513 137.106 77.9013 137.236C77.9513 137.367 77.9746 137.506 77.9696 137.645V146.687C77.9789 147.51 77.7594 148.32 77.3356 149.026C76.905 149.75 76.2909 150.347 75.5555 150.758C74.8201 151.168 73.9893 151.378 73.1472 151.364L73.1368 151.343Z" fill="white"/>
<path d="M94.7689 150.076C94.7647 150.217 94.7321 150.356 94.6732 150.485C94.6143 150.613 94.5302 150.729 94.4259 150.824C94.2223 151.02 93.9499 151.128 93.6672 151.126C93.5236 151.131 93.3804 151.107 93.2464 151.055C93.1123 151.003 92.9903 150.925 92.8877 150.824C92.7889 150.725 92.7112 150.606 92.6594 150.476C92.6076 150.345 92.5828 150.206 92.5863 150.065V137.646C92.5824 137.504 92.6081 137.364 92.6618 137.233C92.7155 137.102 92.796 136.984 92.8981 136.887C93.0065 136.785 93.134 136.706 93.2732 136.655C93.4124 136.603 93.5604 136.579 93.7088 136.585C93.9848 136.585 94.2498 136.693 94.4467 136.887C94.5516 136.983 94.6347 137.1 94.6903 137.231C94.7459 137.362 94.7727 137.503 94.7689 137.646V150.076Z" fill="white"/>
<path d="M132.546 136.585C133.472 136.566 134.39 136.762 135.228 137.157C135.989 137.525 136.655 138.066 137.171 138.736C137.705 139.436 138.103 140.229 138.346 141.075C138.613 141.983 138.746 142.924 138.741 143.871C138.757 145.129 138.517 146.377 138.034 147.539C137.601 148.593 136.881 149.504 135.955 150.169C134.951 150.848 133.758 151.19 132.546 151.146H127.475C127.336 151.148 127.198 151.123 127.07 151.071C126.941 151.019 126.825 150.942 126.726 150.845C126.624 150.747 126.544 150.629 126.49 150.498C126.436 150.368 126.411 150.227 126.414 150.086V137.645C126.411 137.504 126.436 137.363 126.49 137.233C126.544 137.102 126.624 136.984 126.726 136.886C126.825 136.789 126.941 136.712 127.07 136.66C127.198 136.608 127.336 136.583 127.475 136.585H132.546ZM132.339 149.14C133.195 149.18 134.04 148.923 134.729 148.412C135.35 147.913 135.815 147.245 136.07 146.49C136.362 145.644 136.506 144.755 136.496 143.86C136.499 143.184 136.419 142.511 136.257 141.854C136.112 141.252 135.858 140.682 135.509 140.171C135.174 139.685 134.729 139.286 134.209 139.007C133.628 138.708 132.981 138.562 132.328 138.58H128.41L128.597 138.393V149.348L128.472 149.14H132.339Z" fill="white"/>
<path d="M153.592 136.585H160.784C160.92 136.582 161.056 136.606 161.182 136.656C161.309 136.706 161.424 136.78 161.522 136.876C161.62 136.969 161.697 137.082 161.749 137.208C161.801 137.333 161.826 137.468 161.823 137.603C161.828 137.736 161.803 137.868 161.751 137.99C161.699 138.112 161.621 138.221 161.522 138.31C161.317 138.486 161.054 138.579 160.784 138.57H154.506L154.714 138.216V142.873L154.527 142.665H159.848C159.985 142.662 160.12 142.686 160.247 142.736C160.374 142.786 160.489 142.861 160.586 142.956C160.686 143.053 160.764 143.169 160.816 143.298C160.868 143.427 160.892 143.565 160.888 143.704C160.892 143.837 160.868 143.969 160.816 144.091C160.764 144.213 160.685 144.322 160.586 144.411C160.382 144.587 160.118 144.68 159.848 144.671H154.569L154.714 144.484V149.285L154.569 149.119H160.784C160.921 149.117 161.057 149.142 161.184 149.194C161.311 149.246 161.426 149.323 161.522 149.42C161.617 149.51 161.692 149.618 161.744 149.737C161.796 149.857 161.823 149.986 161.823 150.117C161.827 150.251 161.802 150.384 161.75 150.508C161.698 150.632 161.62 150.743 161.522 150.834C161.322 151.021 161.057 151.122 160.784 151.114H153.592C153.453 151.117 153.316 151.091 153.187 151.039C153.059 150.988 152.942 150.911 152.843 150.813C152.741 150.715 152.661 150.597 152.607 150.467C152.553 150.336 152.528 150.196 152.532 150.054V137.645C152.528 137.504 152.553 137.363 152.607 137.232C152.661 137.102 152.741 136.984 152.843 136.886C152.942 136.789 153.059 136.712 153.187 136.66C153.316 136.608 153.453 136.583 153.592 136.585Z" fill="white"/>
<path d="M180.113 151.344C179.212 151.358 178.316 151.217 177.463 150.928C176.639 150.621 175.883 150.155 175.239 149.556C175.092 149.452 174.974 149.313 174.896 149.151C174.82 148.999 174.781 148.832 174.781 148.662C174.781 148.397 174.886 148.144 175.072 147.955C175.164 147.854 175.277 147.774 175.402 147.72C175.528 147.666 175.663 147.64 175.8 147.644C176.028 147.646 176.248 147.727 176.423 147.872C176.908 148.331 177.466 148.703 178.076 148.974C178.719 149.237 179.408 149.364 180.103 149.348C180.624 149.357 181.142 149.269 181.63 149.088C182.052 148.935 182.433 148.686 182.742 148.361C183.012 148.074 183.161 147.694 183.158 147.301C183.174 146.85 183.023 146.409 182.732 146.064C182.392 145.702 181.972 145.424 181.506 145.253C180.882 145.013 180.239 144.828 179.583 144.702C178.947 144.594 178.323 144.419 177.723 144.183C177.21 143.984 176.736 143.699 176.319 143.341C175.935 143.007 175.63 142.591 175.426 142.125C175.208 141.605 175.102 141.046 175.114 140.483C175.094 139.702 175.327 138.937 175.779 138.3C176.245 137.672 176.874 137.183 177.598 136.887C178.413 136.543 179.291 136.374 180.175 136.388C181.003 136.384 181.826 136.521 182.607 136.793C183.295 137.02 183.926 137.392 184.457 137.884C184.604 137.994 184.725 138.135 184.811 138.296C184.897 138.458 184.947 138.637 184.956 138.82C184.95 139.082 184.842 139.332 184.655 139.516C184.568 139.616 184.461 139.697 184.341 139.752C184.221 139.808 184.091 139.837 183.958 139.838C183.778 139.842 183.602 139.784 183.46 139.672C183.201 139.41 182.898 139.196 182.566 139.038C182.182 138.847 181.782 138.691 181.371 138.57C180.976 138.45 180.567 138.387 180.155 138.383C179.61 138.369 179.067 138.458 178.554 138.643C178.157 138.783 177.805 139.027 177.535 139.35C177.302 139.645 177.177 140.012 177.182 140.389C177.166 140.814 177.31 141.23 177.587 141.553C177.901 141.886 178.289 142.139 178.72 142.291C179.263 142.499 179.818 142.673 180.383 142.811C181.076 142.958 181.76 143.145 182.431 143.372C182.981 143.552 183.497 143.823 183.958 144.172C184.371 144.494 184.699 144.912 184.915 145.388C185.154 145.964 185.268 146.584 185.247 147.207C185.262 147.993 185.013 148.761 184.54 149.39C184.054 150.025 183.414 150.526 182.68 150.845C181.87 151.192 180.994 151.362 180.113 151.344Z" fill="white"/>
<path d="M201.23 150.076C201.22 150.361 201.099 150.631 200.894 150.829C200.688 151.027 200.414 151.137 200.128 151.136C199.985 151.141 199.842 151.118 199.707 151.066C199.573 151.014 199.451 150.935 199.349 150.835C199.249 150.736 199.171 150.617 199.119 150.487C199.067 150.356 199.043 150.216 199.047 150.076V137.646C199.043 137.504 199.069 137.364 199.123 137.233C199.177 137.102 199.257 136.984 199.359 136.887C199.468 136.785 199.595 136.706 199.734 136.655C199.873 136.603 200.022 136.579 200.17 136.585C200.446 136.586 200.711 136.694 200.908 136.887C201.012 136.983 201.095 137.101 201.151 137.231C201.206 137.362 201.233 137.503 201.23 137.646V150.076Z" fill="white"/>
<path d="M222.616 151.343C221.604 151.352 220.6 151.158 219.664 150.772C218.766 150.402 217.95 149.858 217.263 149.171C216.579 148.489 216.032 147.681 215.652 146.791C214.876 144.914 214.876 142.806 215.652 140.929C216.032 140.04 216.579 139.232 217.263 138.549C217.95 137.863 218.766 137.319 219.664 136.949C220.6 136.563 221.604 136.369 222.616 136.377C223.281 136.375 223.944 136.452 224.591 136.606C225.194 136.746 225.775 136.97 226.316 137.271C226.483 137.356 226.621 137.49 226.711 137.656C226.79 137.799 226.833 137.96 226.835 138.123C226.84 138.402 226.74 138.673 226.555 138.882C226.47 138.984 226.364 139.067 226.243 139.122C226.123 139.178 225.991 139.206 225.859 139.204C225.757 139.204 225.655 139.19 225.557 139.163C225.46 139.137 225.366 139.102 225.277 139.059C224.88 138.862 224.461 138.712 224.029 138.612C223.566 138.506 223.091 138.453 222.616 138.456C221.68 138.444 220.758 138.684 219.948 139.153C219.137 139.621 218.468 140.3 218.012 141.117C217.555 141.957 217.315 142.898 217.315 143.855C217.315 144.812 217.555 145.753 218.012 146.594C218.466 147.414 219.134 148.095 219.944 148.566C220.755 149.036 221.679 149.278 222.616 149.265C223.133 149.261 223.649 149.201 224.154 149.088C224.63 148.994 225.091 148.836 225.526 148.62L225.36 149.182V145.232L225.692 145.523H222.969C222.83 145.528 222.691 145.505 222.56 145.455C222.43 145.405 222.311 145.329 222.21 145.232C222.017 145.031 221.91 144.763 221.91 144.484C221.91 144.205 222.017 143.937 222.21 143.736C222.311 143.639 222.43 143.563 222.56 143.513C222.691 143.463 222.83 143.44 222.969 143.445H226.565C226.702 143.442 226.838 143.468 226.965 143.52C227.092 143.571 227.207 143.648 227.303 143.746C227.402 143.846 227.48 143.964 227.532 144.095C227.583 144.225 227.608 144.364 227.605 144.505V149.119C227.61 149.319 227.552 149.516 227.438 149.681C227.335 149.825 227.209 149.952 227.064 150.055C226.414 150.453 225.715 150.767 224.985 150.99C224.218 151.227 223.419 151.346 222.616 151.343Z" fill="white"/>
<path d="M252.474 136.585C252.6 136.581 252.726 136.604 252.842 136.652C252.959 136.7 253.064 136.773 253.15 136.865C253.323 137.055 253.416 137.305 253.41 137.562V150.075C253.412 150.215 253.387 150.354 253.335 150.484C253.282 150.614 253.204 150.732 253.105 150.831C253.006 150.93 252.888 151.008 252.758 151.06C252.629 151.113 252.489 151.138 252.349 151.135C252.197 151.133 252.046 151.105 251.903 151.052C251.763 151.01 251.637 150.931 251.539 150.824L242.996 139.744L243.474 139.485V150.19C243.477 150.314 243.456 150.437 243.411 150.553C243.366 150.669 243.299 150.775 243.214 150.865C243.125 150.957 243.019 151.029 242.9 151.078C242.782 151.126 242.655 151.149 242.528 151.146C242.398 151.152 242.269 151.13 242.149 151.081C242.029 151.033 241.921 150.959 241.831 150.865C241.66 150.683 241.566 150.44 241.572 150.19V137.645C241.564 137.5 241.588 137.356 241.642 137.221C241.696 137.086 241.778 136.965 241.883 136.865C242.085 136.674 242.354 136.569 242.632 136.574C242.799 136.577 242.964 136.609 243.12 136.668C243.275 136.717 243.41 136.816 243.505 136.949L251.83 147.81L251.518 148.101V137.572C251.513 137.445 251.533 137.317 251.577 137.198C251.622 137.078 251.69 136.969 251.778 136.876C251.866 136.78 251.974 136.705 252.094 136.655C252.214 136.604 252.344 136.581 252.474 136.585Z" fill="white"/>
</svg>
