<svg width="24" height="20" viewBox="0 0 24 20" fill="none" xmlns="http://www.w3.org/2000/svg">
<path d="M20.7273 0H3.27273C1.46536 0 0 1.4925 0 3.33333V16.6667C0 18.5075 1.46536 20 3.27273 20H20.7273C22.5346 20 24 18.5075 24 16.6667V3.33333C24 1.4925 22.5346 0 20.7273 0ZM20.7273 2.22222C20.8533 2.22222 20.9744 2.24389 21.0867 2.28417L12 9.68833L2.91327 2.28417C3.02878 2.24294 3.15033 2.222 3.27273 2.22222H20.7273ZM20.7273 17.7778H3.27273C2.9834 17.7778 2.70592 17.6607 2.50134 17.4523C2.29675 17.244 2.18182 16.9614 2.18182 16.6667V4.53389L11.3185 11.9786C11.5175 12.1411 11.7586 12.2222 12 12.2222C12.2414 12.2222 12.4825 12.1411 12.6815 11.9786L21.8182 4.53389V16.6667C21.8182 16.9614 21.7032 17.244 21.4987 17.4523C21.2941 17.6607 21.0166 17.7778 20.7273 17.7778Z" fill="#F29727"/>
</svg>
