<svg width="241" height="111" viewBox="0 0 241 111" fill="none" xmlns="http://www.w3.org/2000/svg">
<path d="M103.657 5.57529C103.657 5.73843 103.613 5.89861 103.531 6.03924C103.448 6.17986 103.329 6.29583 103.186 6.37511C103.158 6.39157 103.129 6.40624 103.099 6.41904C99.3922 8.36584 95.9578 10.7916 92.8839 13.6339L92.8125 13.698C92.6491 13.8317 92.4444 13.9047 92.2332 13.9047C92.0221 13.9047 91.8174 13.8317 91.654 13.698L91.5753 13.6248C88.486 10.7714 85.0328 8.33929 81.3057 6.39159L81.2654 6.36962C81.0903 6.26946 80.9532 6.11425 80.8754 5.92812C80.7977 5.742 80.7836 5.5354 80.8353 5.34044C80.8871 5.14547 81.0018 4.97308 81.1617 4.85005C81.3216 4.72703 81.5176 4.66027 81.7193 4.66016H102.742C102.984 4.66016 103.217 4.75657 103.389 4.92819C103.56 5.09981 103.657 5.33258 103.657 5.57529Z" fill="#F29727"/>
<path d="M213.021 71.024V91.598C213.021 91.8407 212.925 92.0734 212.753 92.2451C212.581 92.4167 212.348 92.5131 212.106 92.5131H191.532C191.33 92.513 191.134 92.4462 190.974 92.3232C190.814 92.2002 190.7 92.0278 190.648 91.8328C190.596 91.6379 190.61 91.4313 190.688 91.2451C190.766 91.059 190.903 90.9038 191.078 90.8036H191.089C191.098 90.7971 191.108 90.7916 191.118 90.7872C199.739 86.2713 206.776 79.2322 211.289 70.6104C211.294 70.6 211.299 70.5902 211.306 70.5811V70.5701C211.406 70.395 211.561 70.2579 211.747 70.1801C211.934 70.1024 212.14 70.0883 212.335 70.14C212.53 70.1918 212.702 70.3065 212.826 70.4664C212.949 70.6262 213.015 70.8223 213.015 71.024H213.021Z" fill="#04BFBF"/>
<path d="M143.47 48.5888C143.47 53.4429 141.541 58.0983 138.109 61.5307C134.677 64.9631 130.021 66.8914 125.167 66.8914H125.154C120.3 66.8914 115.645 64.9631 112.212 61.5307C108.78 58.0983 106.852 53.4429 106.852 48.5888C106.852 43.7346 108.78 39.0793 112.212 35.6468C115.645 32.2144 120.3 30.2861 125.154 30.2861H125.169C130.023 30.2866 134.678 32.2151 138.11 35.6475C141.542 39.0799 143.47 43.7349 143.47 48.5888Z" fill="#04BFBF"/>
<path d="M143.472 63.458V91.5982C143.472 91.841 143.376 92.0737 143.204 92.2453C143.033 92.417 142.8 92.5134 142.557 92.5134H107.782C107.54 92.5134 107.307 92.417 107.135 92.2453C106.964 92.0737 106.867 91.841 106.867 91.5982V63.458C106.867 63.2694 106.925 63.0854 107.034 62.9312C107.142 62.7769 107.296 62.66 107.473 62.5963C107.651 62.5326 107.843 62.5253 108.025 62.5753C108.207 62.6254 108.369 62.7304 108.489 62.8759C110.549 65.2857 113.107 67.2199 115.987 68.5451C118.867 69.8704 122 70.5551 125.17 70.5521C125.731 70.5521 126.287 70.5313 126.837 70.4898C129.717 70.2725 132.526 69.488 135.101 68.1813C137.677 66.8746 139.969 65.0716 141.845 62.8759C141.965 62.7304 142.127 62.6254 142.309 62.5753C142.491 62.5253 142.683 62.5326 142.861 62.5963C143.038 62.66 143.192 62.7769 143.3 62.9312C143.409 63.0854 143.467 63.2694 143.467 63.458H143.472Z" fill="#04BFBF"/>
<path d="M187.388 5.57529V48.5865C187.389 52.5929 186.075 56.489 183.648 59.6768C181.221 62.8646 177.816 65.1682 173.953 66.2339L173.846 66.2631C173.785 66.2758 173.724 66.2819 173.662 66.2814C173.42 66.2814 173.187 66.185 173.015 66.0134C172.844 65.8418 172.747 65.609 172.747 65.3663V48.5865C172.754 39.897 170.379 31.3718 165.88 23.9376C161.381 16.5033 154.931 10.4443 147.23 6.41904C147.192 6.40307 147.155 6.3841 147.12 6.3623C146.947 6.25991 146.813 6.10364 146.738 5.91756C146.663 5.73147 146.651 5.52587 146.705 5.33241C146.758 5.13896 146.873 4.96837 147.033 4.8469C147.193 4.72543 147.388 4.65981 147.589 4.66016H186.474C186.717 4.66064 186.949 4.75727 187.12 4.92884C187.291 5.10041 187.388 5.3329 187.388 5.57529Z" fill="#F29727"/>
<path d="M62.939 63.3638C62.941 68.2312 61.7347 73.023 59.4283 77.3093C57.1219 81.5956 53.7876 85.2423 49.7245 87.9223C49.5867 88.0154 49.4262 88.0692 49.2602 88.078C49.0942 88.0867 48.9289 88.0501 48.7822 87.972C48.6354 87.8939 48.5127 87.7773 48.4272 87.6347C48.3417 87.4922 48.2966 87.329 48.2969 87.1627V39.5631C48.2968 39.4046 48.3379 39.2487 48.4162 39.1108C48.4944 38.9729 48.6072 38.8578 48.7434 38.7766C48.8796 38.6954 49.0345 38.6509 49.193 38.6477C49.3515 38.6444 49.5082 38.6823 49.6476 38.7578L49.6659 38.7688C49.6989 38.7889 49.73 38.809 49.7629 38.8328C53.8161 41.5136 57.1413 45.1577 59.4407 49.4388C61.7401 53.7198 62.9421 58.5043 62.939 63.3638Z" fill="#04BFBF"/>
<path d="M77.5794 48.5845V91.5957C77.5794 91.8384 77.483 92.0712 77.3113 92.2428C77.1397 92.4144 76.907 92.5108 76.6643 92.5108H52.4572C52.2609 92.5112 52.0697 92.4486 51.9117 92.332C51.7538 92.2154 51.6375 92.0512 51.5801 91.8635C51.5226 91.6758 51.5271 91.4746 51.5927 91.2896C51.6584 91.1046 51.7818 90.9456 51.9447 90.8361C56.1709 88.0047 59.6862 84.2358 62.2171 79.8231C64.7479 75.4104 66.2257 70.473 66.5356 65.3955C66.5771 64.7256 66.5978 64.0508 66.5978 63.3712C66.5961 57.5255 65.0463 51.7846 62.106 46.7322C59.1657 41.6798 54.9399 37.4962 49.8582 34.6068L49.6752 34.5025C49.5558 34.4179 49.4585 34.306 49.3913 34.1761C49.3241 34.0461 49.2891 33.902 49.2891 33.7557C49.2891 33.6094 49.3241 33.4653 49.3913 33.3354C49.4585 33.2055 49.5558 33.0935 49.6752 33.009C49.6782 33.0082 49.6813 33.0082 49.6843 33.009L49.7832 32.9504C52.5587 31.2687 55.7314 30.3553 58.9762 30.3036C62.2209 30.2519 65.4211 31.0639 68.2488 32.6563C71.0764 34.2487 73.4298 36.5644 75.0677 39.3658C76.7057 42.1673 77.5694 45.3539 77.5702 48.5991L77.5794 48.5845Z" fill="#04BFBF"/>
<path d="M238.644 7.40555V89.7674C238.644 90.4955 238.355 91.1938 237.84 91.7087C237.325 92.2235 236.627 92.5128 235.899 92.5128H219.426C218.698 92.5128 218 92.2235 217.485 91.7087C216.97 91.1938 216.681 90.4955 216.681 89.7674V28.4536C216.681 27.9682 216.488 27.5026 216.145 27.1594C215.802 26.8161 215.336 26.6233 214.851 26.6233C214.365 26.6233 213.9 26.8161 213.557 27.1594C213.213 27.5026 213.021 27.9682 213.021 28.4536V48.8702C212.953 60.424 208.333 71.4854 200.163 79.6553C191.993 87.8253 180.932 92.4451 169.378 92.5128H149.876C149.161 92.513 148.473 92.2336 147.96 91.7341C147.447 91.2345 147.15 90.5544 147.131 89.8388V48.5865C147.143 42.7615 144.841 37.1701 140.731 33.0425C136.621 28.9149 131.04 26.589 125.215 26.5766C119.39 26.5643 113.798 28.8664 109.671 32.9765C105.543 37.0866 103.217 42.6681 103.205 48.4931C103.205 48.4291 103.205 48.365 103.205 48.3101V89.7674C103.205 90.4955 102.916 91.1938 102.401 91.7087C101.886 92.2235 101.187 92.5128 100.459 92.5128H83.987C83.2589 92.5128 82.5606 92.2235 82.0457 91.7087C81.5309 91.1938 81.2416 90.4955 81.2416 89.7674V47.9239C81.2416 48.0502 81.2416 48.1765 81.2416 48.3028C81.1974 44.8189 80.3249 41.3955 78.6963 38.3153C77.0676 35.2352 74.7296 32.5867 71.8752 30.5887C69.0208 28.5907 65.732 27.3004 62.2805 26.8244C58.829 26.3485 55.3137 26.7005 52.0251 27.8514L51.8586 27.91C51.594 27.991 51.3189 28.0323 51.0423 28.0326C50.3141 28.0326 49.6158 27.7434 49.101 27.2285C48.5861 26.7136 48.2969 26.0153 48.2969 25.2872V8.22734C48.2967 7.60919 48.5051 7.00906 48.8884 6.5241C49.2718 6.03915 49.8075 5.69774 50.409 5.55516C50.4676 5.54234 50.528 5.52953 50.592 5.52038H50.6305C53.3866 4.96812 56.1894 4.6825 59.0003 4.66748H59.5676C71.0818 4.72483 82.1103 9.31363 90.2666 17.4409L90.3435 17.5159C90.8445 17.9883 91.5047 18.2552 92.1932 18.2637C92.8817 18.2722 93.5483 18.0216 94.0608 17.5617C94.1303 17.4995 94.1962 17.4336 94.2603 17.364C102.409 9.28198 113.404 4.72041 124.881 4.66016H125.448C133.063 4.69664 140.537 6.72121 147.129 10.5335C153.81 14.3882 159.357 19.9346 163.212 26.6145C167.068 33.2943 169.096 40.8719 169.092 48.5846V67.6102C169.092 68.3383 169.382 69.0366 169.897 69.5515C170.411 70.0664 171.11 70.3556 171.838 70.3556C171.933 70.3556 172.021 70.3556 172.118 70.341C172.131 70.3429 172.145 70.3429 172.158 70.341L172.312 70.3208C177.523 69.5487 182.282 66.9295 185.723 62.9408C189.164 58.9521 191.056 53.8596 191.056 48.592V7.41104C191.056 6.68292 191.345 5.98462 191.86 5.46975C192.375 4.95489 193.073 4.66565 193.801 4.66565H235.897C236.624 4.66516 237.322 4.95344 237.838 5.46717C238.353 5.98089 238.643 6.67806 238.644 7.40555Z" fill="#025959"/>
<path d="M60.8937 100.589C61.0206 100.592 61.1455 100.622 61.2597 100.677C61.379 100.731 61.4806 100.817 61.5526 100.926L65.2717 106.6L64.6421 106.57L68.4344 100.933C68.4974 100.831 68.5857 100.746 68.6907 100.687C68.7958 100.628 68.9142 100.597 69.0347 100.597C69.229 100.597 69.4155 100.673 69.5545 100.809C69.6279 100.877 69.6861 100.96 69.7252 101.052C69.7644 101.144 69.7835 101.243 69.7814 101.343V110.114C69.7849 110.212 69.7686 110.31 69.7333 110.402C69.6981 110.494 69.6448 110.578 69.5764 110.648C69.5051 110.721 69.4193 110.777 69.3247 110.813C69.23 110.85 69.1287 110.866 69.0274 110.861C68.9239 110.866 68.8204 110.85 68.7234 110.813C68.6265 110.777 68.538 110.72 68.4636 110.648C68.3933 110.579 68.3381 110.495 68.3016 110.403C68.2651 110.311 68.248 110.213 68.2513 110.114V102.683L68.7199 102.786L65.4986 107.691C65.4257 107.782 65.3363 107.859 65.2351 107.918C65.1319 107.97 65.0178 107.998 64.902 107.998C64.7861 107.998 64.672 107.97 64.5688 107.918C64.4638 107.862 64.3715 107.784 64.298 107.691L61.1865 102.859L61.5379 102.273V110.107C61.5449 110.304 61.4739 110.496 61.3403 110.641C61.274 110.712 61.1933 110.767 61.1035 110.804C61.0138 110.841 60.9173 110.857 60.8205 110.853C60.7259 110.856 60.6318 110.839 60.5446 110.802C60.4574 110.766 60.3792 110.711 60.3153 110.641C60.1817 110.496 60.1107 110.304 60.1177 110.107V101.336C60.1164 101.237 60.1359 101.139 60.175 101.048C60.2141 100.957 60.2719 100.876 60.3446 100.809C60.4162 100.736 60.5018 100.68 60.5963 100.642C60.6908 100.604 60.792 100.586 60.8937 100.589Z" fill="#013A40"/>
<path d="M83.7602 102.507L80.4657 110.414C80.4156 110.559 80.3239 110.686 80.2022 110.78C80.0887 110.867 79.9496 110.913 79.8068 110.912C79.7178 110.919 79.6282 110.906 79.5447 110.874C79.4611 110.843 79.3856 110.793 79.3237 110.729C79.21 110.601 79.1452 110.438 79.1406 110.267C79.143 110.188 79.1572 110.109 79.1827 110.033L82.9036 101.043C82.9629 100.889 83.0676 100.756 83.2038 100.662C83.3306 100.576 83.4827 100.535 83.6358 100.545C83.7828 100.545 83.926 100.592 84.0457 100.677C84.174 100.767 84.2712 100.895 84.3239 101.043L87.9991 109.901C88.0367 109.994 88.0566 110.094 88.0577 110.194C88.0598 110.287 88.0438 110.378 88.0103 110.465C87.9769 110.551 87.9267 110.629 87.8628 110.696C87.7988 110.763 87.7223 110.816 87.6376 110.853C87.553 110.89 87.4619 110.91 87.3695 110.912C87.2234 110.912 87.0814 110.863 86.9668 110.773C86.8436 110.678 86.7492 110.552 86.6941 110.407L83.3795 102.549L83.7602 102.507ZM81.0514 108.335L81.7103 106.929H85.854L86.1029 108.335H81.0514Z" fill="#013A40"/>
<path d="M99.8152 111C99.263 111.006 98.7185 110.869 98.2339 110.605C97.7598 110.345 97.3612 109.966 97.0772 109.506C96.9967 109.384 96.9511 109.243 96.9454 109.096C96.9439 108.999 96.9641 108.902 97.0046 108.814C97.0452 108.725 97.1049 108.647 97.1797 108.584C97.3061 108.462 97.4725 108.389 97.6482 108.379C97.7783 108.379 97.9056 108.417 98.0143 108.489C98.1304 108.565 98.2362 108.656 98.3291 108.76C98.5054 108.997 98.73 109.194 98.988 109.338C99.2404 109.472 99.5224 109.54 99.8079 109.536C100.141 109.541 100.469 109.457 100.76 109.294C101.039 109.138 101.271 108.911 101.433 108.635C101.599 108.359 101.685 108.042 101.682 107.72V101.351C101.68 101.25 101.7 101.15 101.74 101.058C101.781 100.966 101.841 100.883 101.916 100.816C102.065 100.677 102.262 100.601 102.465 100.604C102.567 100.599 102.668 100.615 102.763 100.651C102.857 100.688 102.943 100.744 103.015 100.816C103.083 100.887 103.136 100.971 103.171 101.063C103.207 101.155 103.223 101.253 103.22 101.351V107.72C103.226 108.3 103.072 108.87 102.773 109.367C102.478 109.864 102.059 110.275 101.558 110.561C101.027 110.861 100.425 111.013 99.8152 111Z" fill="#013A40"/>
<path d="M115.038 110.106C115.029 110.256 114.979 110.4 114.892 110.522C114.804 110.644 114.684 110.739 114.545 110.795C114.406 110.851 114.254 110.866 114.106 110.839C113.959 110.812 113.822 110.743 113.713 110.641C113.643 110.571 113.588 110.487 113.552 110.395C113.515 110.303 113.498 110.205 113.5 110.106V101.35C113.498 101.251 113.516 101.152 113.554 101.06C113.592 100.968 113.648 100.885 113.72 100.816C113.796 100.745 113.886 100.689 113.984 100.652C114.082 100.616 114.186 100.599 114.291 100.604C114.387 100.603 114.483 100.622 114.572 100.658C114.661 100.694 114.742 100.748 114.811 100.816C114.885 100.884 114.943 100.966 114.982 101.059C115.021 101.151 115.04 101.25 115.038 101.35V110.106Z" fill="#013A40"/>
<path d="M141.663 100.604C142.316 100.591 142.962 100.729 143.552 101.007C144.088 101.267 144.557 101.648 144.921 102.119C145.297 102.612 145.577 103.171 145.749 103.767C145.937 104.406 146.031 105.069 146.027 105.736C146.039 106.622 145.87 107.502 145.529 108.32C145.224 109.063 144.717 109.705 144.065 110.172C143.358 110.651 142.517 110.892 141.663 110.861H138.091C137.993 110.862 137.896 110.844 137.806 110.808C137.715 110.771 137.633 110.717 137.564 110.648C137.492 110.58 137.435 110.497 137.397 110.404C137.359 110.312 137.341 110.213 137.344 110.114V101.351C137.341 101.251 137.36 101.152 137.398 101.06C137.435 100.968 137.492 100.885 137.564 100.816C137.633 100.747 137.715 100.693 137.806 100.657C137.896 100.62 137.993 100.602 138.091 100.604H141.663ZM141.517 109.448C142.121 109.476 142.716 109.295 143.201 108.935C143.639 108.584 143.967 108.114 144.145 107.581C144.354 106.986 144.457 106.359 144.451 105.729C144.454 105.252 144.398 104.778 144.283 104.316C144.179 103.892 144.001 103.49 143.755 103.13C143.52 102.788 143.206 102.507 142.84 102.31C142.431 102.1 141.975 101.996 141.515 102.009H138.75L138.881 101.878V109.594L138.794 109.448H141.517Z" fill="#013A40"/>
<path d="M156.489 100.603H161.555C161.749 100.6 161.936 100.674 162.075 100.808C162.144 100.874 162.199 100.954 162.235 101.042C162.272 101.13 162.29 101.225 162.288 101.321C162.291 101.414 162.273 101.507 162.237 101.593C162.2 101.679 162.145 101.756 162.075 101.818C161.932 101.944 161.746 102.009 161.555 102.001H157.133L157.28 101.753V105.032L157.148 104.886H160.897C161.09 104.883 161.277 104.957 161.416 105.091C161.486 105.159 161.541 105.241 161.578 105.332C161.615 105.423 161.632 105.52 161.629 105.618C161.632 105.712 161.614 105.805 161.578 105.891C161.541 105.977 161.486 106.053 161.416 106.116C161.273 106.241 161.087 106.307 160.897 106.299H157.177L157.28 106.167V109.549L157.177 109.432H161.555C161.652 109.43 161.748 109.448 161.837 109.485C161.927 109.521 162.008 109.576 162.075 109.645C162.142 109.708 162.195 109.784 162.232 109.868C162.268 109.952 162.287 110.043 162.288 110.135C162.29 110.23 162.273 110.324 162.236 110.411C162.199 110.498 162.145 110.576 162.075 110.64C161.935 110.772 161.748 110.843 161.555 110.838H156.489C156.392 110.839 156.295 110.821 156.204 110.785C156.114 110.749 156.031 110.694 155.962 110.626C155.89 110.557 155.833 110.474 155.795 110.382C155.758 110.29 155.74 110.191 155.742 110.091V101.35C155.74 101.25 155.758 101.152 155.796 101.06C155.834 100.967 155.89 100.884 155.962 100.815C156.031 100.747 156.114 100.693 156.204 100.656C156.295 100.62 156.392 100.602 156.489 100.603Z" fill="#013A40"/>
<path d="M175.169 110.999C174.532 111.01 173.898 110.911 173.295 110.706C172.714 110.491 172.181 110.163 171.728 109.74C171.624 109.667 171.541 109.569 171.487 109.454C171.435 109.347 171.407 109.229 171.406 109.11C171.406 108.924 171.48 108.745 171.611 108.612C171.676 108.541 171.755 108.485 171.844 108.447C171.932 108.409 172.028 108.391 172.124 108.393C172.284 108.395 172.439 108.452 172.563 108.554C172.905 108.876 173.298 109.138 173.727 109.33C174.18 109.515 174.666 109.604 175.155 109.593C175.522 109.6 175.887 109.538 176.231 109.41C176.529 109.303 176.797 109.128 177.014 108.898C177.205 108.696 177.31 108.429 177.307 108.151C177.318 107.833 177.211 107.523 177.007 107.28C176.767 107.025 176.472 106.829 176.143 106.709C175.704 106.54 175.251 106.41 174.789 106.321C174.34 106.245 173.901 106.122 173.478 105.955C173.117 105.815 172.783 105.614 172.49 105.362C172.219 105.127 172.004 104.834 171.86 104.505C171.707 104.139 171.632 103.745 171.641 103.348C171.626 102.799 171.791 102.259 172.109 101.811C172.438 101.37 172.881 101.026 173.39 100.815C173.965 100.574 174.583 100.454 175.206 100.464C175.794 100.459 176.378 100.556 176.934 100.749C177.418 100.909 177.863 101.171 178.237 101.518C178.34 101.595 178.425 101.695 178.486 101.808C178.547 101.922 178.582 102.048 178.588 102.177C178.584 102.362 178.508 102.538 178.376 102.668C178.315 102.738 178.24 102.795 178.155 102.834C178.071 102.873 177.979 102.894 177.885 102.895C177.758 102.897 177.634 102.856 177.534 102.777C177.352 102.593 177.139 102.442 176.904 102.331C176.634 102.196 176.352 102.086 176.062 102.001C175.785 101.917 175.496 101.872 175.206 101.87C174.822 101.861 174.44 101.923 174.078 102.053C173.799 102.151 173.551 102.322 173.359 102.549C173.195 102.757 173.107 103.015 173.11 103.281C173.099 103.58 173.201 103.873 173.396 104.101C173.616 104.336 173.89 104.514 174.194 104.62C174.576 104.768 174.967 104.89 175.365 104.987C175.853 105.09 176.335 105.222 176.807 105.382C177.195 105.509 177.558 105.699 177.884 105.946C178.174 106.173 178.405 106.466 178.557 106.802C178.726 107.208 178.806 107.644 178.791 108.083C178.801 108.637 178.626 109.178 178.294 109.621C177.952 110.069 177.5 110.422 176.983 110.646C176.411 110.893 175.792 111.013 175.169 110.999Z" fill="#013A40"/>
<path d="M190.038 110.106C190.036 110.207 190.013 110.307 189.972 110.398C189.93 110.49 189.87 110.573 189.796 110.641C189.653 110.78 189.461 110.856 189.262 110.853C189.16 110.858 189.059 110.841 188.965 110.805C188.87 110.768 188.784 110.712 188.713 110.641C188.643 110.571 188.588 110.487 188.552 110.395C188.515 110.303 188.498 110.205 188.5 110.106V101.35C188.498 101.251 188.516 101.152 188.554 101.06C188.592 100.968 188.648 100.885 188.72 100.816C188.796 100.745 188.886 100.689 188.984 100.652C189.082 100.616 189.186 100.599 189.291 100.604C189.485 100.604 189.672 100.68 189.811 100.816C189.885 100.884 189.943 100.966 189.982 101.059C190.021 101.151 190.04 101.25 190.038 101.35V110.106Z" fill="#013A40"/>
<path d="M205.104 110.999C204.391 111.005 203.684 110.868 203.025 110.597C202.392 110.337 201.817 109.953 201.334 109.469C200.852 108.989 200.466 108.419 200.199 107.793C199.652 106.471 199.652 104.986 200.199 103.664C200.467 103.038 200.852 102.469 201.334 101.987C201.818 101.504 202.393 101.121 203.025 100.86C203.685 100.589 204.391 100.452 205.104 100.457C205.573 100.457 206.039 100.511 206.495 100.618C206.92 100.717 207.329 100.874 207.71 101.087C207.828 101.147 207.925 101.242 207.989 101.358C208.044 101.459 208.074 101.572 208.077 101.687C208.08 101.884 208.009 102.074 207.879 102.222C207.819 102.294 207.744 102.352 207.66 102.391C207.575 102.43 207.482 102.45 207.388 102.448C207.317 102.448 207.245 102.438 207.176 102.419C207.108 102.402 207.041 102.378 206.978 102.346C206.699 102.207 206.404 102.102 206.1 102.031C205.773 101.956 205.439 101.92 205.104 101.921C204.435 101.913 203.777 102.087 203.201 102.427C202.642 102.757 202.18 103.229 201.861 103.796C201.539 104.388 201.371 105.051 201.371 105.725C201.371 106.399 201.539 107.062 201.861 107.654C202.181 108.231 202.651 108.712 203.222 109.043C203.794 109.374 204.444 109.544 205.104 109.535C205.469 109.533 205.832 109.492 206.188 109.411C206.523 109.344 206.848 109.233 207.154 109.081L207.037 109.477V106.695L207.271 106.9H205.353C205.255 106.903 205.157 106.887 205.065 106.852C204.973 106.816 204.889 106.763 204.819 106.695C204.683 106.553 204.607 106.364 204.607 106.168C204.607 105.971 204.683 105.782 204.819 105.64C204.89 105.573 204.974 105.52 205.065 105.484C205.157 105.449 205.255 105.433 205.353 105.435H207.886C207.983 105.434 208.079 105.451 208.168 105.488C208.257 105.524 208.338 105.579 208.406 105.648C208.476 105.718 208.53 105.801 208.567 105.893C208.603 105.985 208.621 106.083 208.618 106.182V109.433C208.624 109.574 208.582 109.713 208.501 109.828C208.429 109.93 208.339 110.019 208.238 110.092C207.78 110.374 207.288 110.596 206.773 110.751C206.233 110.918 205.67 111.002 205.104 110.999Z" fill="#013A40"/>
<path d="M226.142 100.604C226.23 100.601 226.319 100.617 226.401 100.651C226.483 100.685 226.557 100.737 226.617 100.802C226.74 100.935 226.806 101.111 226.8 101.292V110.107C226.802 110.205 226.785 110.303 226.748 110.395C226.711 110.486 226.656 110.57 226.586 110.639C226.516 110.709 226.433 110.764 226.342 110.801C226.25 110.838 226.152 110.856 226.054 110.854C225.946 110.852 225.84 110.833 225.739 110.795C225.641 110.765 225.552 110.71 225.483 110.634L219.465 102.83L219.802 102.647V110.187C219.804 110.275 219.789 110.362 219.758 110.444C219.726 110.525 219.679 110.6 219.619 110.663C219.488 110.79 219.313 110.861 219.132 110.861C218.95 110.861 218.775 110.79 218.645 110.663C218.524 110.535 218.458 110.364 218.462 110.187V101.351C218.457 101.249 218.474 101.147 218.512 101.052C218.549 100.958 218.607 100.872 218.681 100.802C218.824 100.667 219.013 100.594 219.209 100.597C219.326 100.599 219.443 100.621 219.553 100.663C219.662 100.697 219.757 100.767 219.824 100.86L225.695 108.504L225.475 108.708V101.292C225.469 101.111 225.535 100.935 225.658 100.802C225.721 100.737 225.796 100.686 225.879 100.651C225.962 100.617 226.052 100.601 226.142 100.604Z" fill="#013A40"/>
<path d="M125.168 66.8897C135.275 66.8897 143.469 58.6961 143.469 48.5889C143.469 38.4816 135.275 30.2881 125.168 30.2881C115.061 30.2881 106.867 38.4816 106.867 48.5889C106.867 58.6961 115.061 66.8897 125.168 66.8897Z" stroke="black" stroke-width="0.5" stroke-miterlimit="10"/>
<path d="M59.2774 66.8858C69.3846 66.8858 77.5782 58.6922 77.5782 48.585C77.5782 38.4777 69.3846 30.2842 59.2774 30.2842C49.1701 30.2842 40.9766 38.4777 40.9766 48.585C40.9766 58.6922 49.1701 66.8858 59.2774 66.8858Z" stroke="black" stroke-width="0.5" stroke-miterlimit="10"/>
<path d="M59.2821 96.1737C85.5636 96.1737 106.869 74.8683 106.869 48.5868C106.869 22.3054 85.5636 1 59.2821 1C33.0007 1 11.6953 22.3054 11.6953 48.5868C11.6953 74.8683 33.0007 96.1737 59.2821 96.1737Z" stroke="black" stroke-width="0.5" stroke-miterlimit="10"/>
<path d="M125.171 96.172C151.451 96.172 172.756 74.8674 172.756 48.587C172.756 22.3065 151.451 1.00195 125.171 1.00195C98.8905 1.00195 77.5859 22.3065 77.5859 48.587C77.5859 74.8674 98.8905 96.172 125.171 96.172Z" stroke="black" stroke-width="0.5" stroke-miterlimit="10"/>
<path d="M143.484 94.3436V2.82861" stroke="black" stroke-width="0.5" stroke-miterlimit="10"/>
<path d="M106.867 94.3436V2.82861" stroke="black" stroke-width="0.5" stroke-miterlimit="10"/>
<path d="M77.5859 94.3436V2.82861" stroke="black" stroke-width="0.5" stroke-miterlimit="10"/>
<path d="M125.166 70.5523C137.296 70.5523 147.129 60.719 147.129 48.5891C147.129 36.4592 137.296 26.626 125.166 26.626C113.036 26.626 103.203 36.4592 103.203 48.5891C103.203 60.719 113.036 70.5523 125.166 70.5523Z" stroke="black" stroke-width="0.5" stroke-miterlimit="10"/>
<path d="M238.644 4.66064H48.2969V92.5133H238.644V4.66064Z" stroke="black" stroke-width="0.5" stroke-miterlimit="10"/>
<path d="M142.571 64.3747C143.077 64.3747 143.487 63.965 143.487 63.4596C143.487 62.9542 143.077 62.5444 142.571 62.5444C142.066 62.5444 141.656 62.9542 141.656 63.4596C141.656 63.965 142.066 64.3747 142.571 64.3747Z" stroke="black" stroke-width="0.5" stroke-miterlimit="10"/>
<path d="M102.735 6.49091C103.241 6.49091 103.651 6.08119 103.651 5.57578C103.651 5.07036 103.241 4.66064 102.735 4.66064C102.23 4.66064 101.82 5.07036 101.82 5.57578C101.82 6.08119 102.23 6.49091 102.735 6.49091Z" stroke="black" stroke-width="0.5" stroke-miterlimit="10"/>
<path d="M186.493 6.49091C186.999 6.49091 187.408 6.08119 187.408 5.57578C187.408 5.07036 186.999 4.66064 186.493 4.66064C185.988 4.66064 185.578 5.07036 185.578 5.57578C185.578 6.08119 185.988 6.49091 186.493 6.49091Z" stroke="black" stroke-width="0.5" stroke-miterlimit="10"/>
<path d="M186.493 6.49091C186.999 6.49091 187.408 6.08119 187.408 5.57578C187.408 5.07036 186.999 4.66064 186.493 4.66064C185.988 4.66064 185.578 5.07036 185.578 5.57578C185.578 6.08119 185.988 6.49091 186.493 6.49091Z" stroke="black" stroke-width="0.5" stroke-miterlimit="10"/>
<path d="M212.103 92.5129C212.608 92.5129 213.018 92.1032 213.018 91.5977C213.018 91.0923 212.608 90.6826 212.103 90.6826C211.597 90.6826 211.188 91.0923 211.188 91.5977C211.188 92.1032 211.597 92.5129 212.103 92.5129Z" stroke="black" stroke-width="0.5" stroke-miterlimit="10"/>
<path d="M191.54 92.5129C192.046 92.5129 192.455 92.1032 192.455 91.5977C192.455 91.0923 192.046 90.6826 191.54 90.6826C191.035 90.6826 190.625 91.0923 190.625 91.5977C190.625 92.1032 191.035 92.5129 191.54 92.5129Z" stroke="black" stroke-width="0.5" stroke-miterlimit="10"/>
<path d="M212.103 71.9387C212.608 71.9387 213.018 71.5289 213.018 71.0235C213.018 70.5181 212.608 70.1084 212.103 70.1084C211.597 70.1084 211.188 70.5181 211.188 71.0235C211.188 71.5289 211.597 71.9387 212.103 71.9387Z" stroke="black" stroke-width="0.5" stroke-miterlimit="10"/>
<path d="M173.681 66.2824C174.186 66.2824 174.596 65.8727 174.596 65.3673C174.596 64.8619 174.186 64.4521 173.681 64.4521C173.175 64.4521 172.766 64.8619 172.766 65.3673C172.766 65.8727 173.175 66.2824 173.681 66.2824Z" stroke="black" stroke-width="0.5" stroke-miterlimit="10"/>
<path d="M147.61 6.49091C148.116 6.49091 148.526 6.08119 148.526 5.57578C148.526 5.07036 148.116 4.66064 147.61 4.66064C147.105 4.66064 146.695 5.07036 146.695 5.57578C146.695 6.08119 147.105 6.49091 147.61 6.49091Z" stroke="black" stroke-width="0.5" stroke-miterlimit="10"/>
<path d="M92.2354 13.9074C92.7409 13.9074 93.1506 13.4977 93.1506 12.9923C93.1506 12.4869 92.7409 12.0771 92.2354 12.0771C91.73 12.0771 91.3203 12.4869 91.3203 12.9923C91.3203 13.4977 91.73 13.9074 92.2354 13.9074Z" stroke="black" stroke-width="0.5" stroke-miterlimit="10"/>
<path d="M81.7198 6.49091C82.2252 6.49091 82.635 6.08119 82.635 5.57578C82.635 5.07036 82.2252 4.66064 81.7198 4.66064C81.2144 4.66064 80.8047 5.07036 80.8047 5.57578C80.8047 6.08119 81.2144 6.49091 81.7198 6.49091Z" stroke="black" stroke-width="0.5" stroke-miterlimit="10"/>
<path d="M142.571 92.5129C143.077 92.5129 143.487 92.1032 143.487 91.5977C143.487 91.0923 143.077 90.6826 142.571 90.6826C142.066 90.6826 141.656 91.0923 141.656 91.5977C141.656 92.1032 142.066 92.5129 142.571 92.5129Z" stroke="black" stroke-width="0.5" stroke-miterlimit="10"/>
<path d="M107.782 92.5129C108.288 92.5129 108.697 92.1032 108.697 91.5977C108.697 91.0923 108.288 90.6826 107.782 90.6826C107.277 90.6826 106.867 91.0923 106.867 91.5977C106.867 92.1032 107.277 92.5129 107.782 92.5129Z" stroke="black" stroke-width="0.5" stroke-miterlimit="10"/>
<path d="M107.782 64.3747C108.288 64.3747 108.697 63.965 108.697 63.4596C108.697 62.9542 108.288 62.5444 107.782 62.5444C107.277 62.5444 106.867 62.9542 106.867 63.4596C106.867 63.965 107.277 64.3747 107.782 64.3747Z" stroke="black" stroke-width="0.5" stroke-miterlimit="10"/>
<path d="M169.092 66.8894C179.2 66.8894 187.394 58.6951 187.394 48.5868C187.394 38.4785 179.2 30.2842 169.092 30.2842C158.983 30.2842 150.789 38.4785 150.789 48.5868C150.789 58.6951 158.983 66.8894 169.092 66.8894Z" stroke="black" stroke-width="0.5" stroke-miterlimit="10"/>
<path d="M187.406 94.3436V2.82861" stroke="black" stroke-width="0.5" stroke-miterlimit="10"/>
<path d="M172.766 94.3436V2.82861" stroke="black" stroke-width="0.5" stroke-miterlimit="10"/>
<path d="M169.095 96.1737C195.376 96.1737 216.681 74.8683 216.681 48.5868C216.681 22.3054 195.376 1 169.095 1C142.813 1 121.508 22.3054 121.508 48.5868C121.508 74.8683 142.813 96.1737 169.095 96.1737Z" stroke="black" stroke-width="0.5" stroke-miterlimit="10"/>
<path d="M213.031 94.3436V2.82861" stroke="black" stroke-width="0.5" stroke-miterlimit="10"/>
<path d="M169.096 70.5498C181.226 70.5498 191.059 60.7166 191.059 48.5867C191.059 36.4568 181.226 26.6235 169.096 26.6235C156.966 26.6235 147.133 36.4568 147.133 48.5867C147.133 60.7166 156.966 70.5498 169.096 70.5498Z" stroke="black" stroke-width="0.5" stroke-miterlimit="10"/>
<path d="M33.5212 92.7861C49.7692 92.7861 62.9409 79.6144 62.9409 63.3664C62.9409 47.1184 49.7692 33.9468 33.5212 33.9468C17.2732 33.9468 4.10156 47.1184 4.10156 63.3664C4.10156 79.6144 17.2732 92.7861 33.5212 92.7861Z" stroke="black" stroke-width="0.5" stroke-miterlimit="10"/>
<path d="M33.5296 96.4421C51.7973 96.4421 66.6061 81.6332 66.6061 63.3656C66.6061 45.0979 51.7973 30.2891 33.5296 30.2891C15.262 30.2891 0.453125 45.0979 0.453125 63.3656C0.453125 81.6332 15.262 96.4421 33.5296 96.4421Z" stroke="black" stroke-width="0.5" stroke-miterlimit="10"/>
<path d="M43.1155 105.027C62.1554 105.027 77.5903 89.5919 77.5903 70.552C77.5903 51.5121 62.1554 36.0771 43.1155 36.0771C24.0755 36.0771 8.64062 51.5121 8.64062 70.552C8.64062 89.5919 24.0755 105.027 43.1155 105.027Z" stroke="black" stroke-width="0.5" stroke-miterlimit="10"/>
<path d="M50.2042 34.6691C50.7096 34.6691 51.1193 34.2594 51.1193 33.754C51.1193 33.2486 50.7096 32.8389 50.2042 32.8389C49.6988 32.8389 49.2891 33.2486 49.2891 33.754C49.2891 34.2594 49.6988 34.6691 50.2042 34.6691Z" stroke="black" stroke-width="0.5" stroke-miterlimit="10"/>
<path d="M49.212 40.4787C49.7174 40.4787 50.1271 40.069 50.1271 39.5636C50.1271 39.0582 49.7174 38.6484 49.212 38.6484C48.7066 38.6484 48.2969 39.0582 48.2969 39.5636C48.2969 40.069 48.7066 40.4787 49.212 40.4787Z" stroke="black" stroke-width="0.5" stroke-miterlimit="10"/>
<path d="M49.212 88.0803C49.7174 88.0803 50.1271 87.6705 50.1271 87.1651C50.1271 86.6597 49.7174 86.25 49.212 86.25C48.7066 86.25 48.2969 86.6597 48.2969 87.1651C48.2969 87.6705 48.7066 88.0803 49.212 88.0803Z" stroke="black" stroke-width="0.5" stroke-miterlimit="10"/>
<path d="M52.4776 92.5129C52.983 92.5129 53.3928 92.1032 53.3928 91.5977C53.3928 91.0923 52.983 90.6826 52.4776 90.6826C51.9722 90.6826 51.5625 91.0923 51.5625 91.5977C51.5625 92.1032 51.9722 92.5129 52.4776 92.5129Z" stroke="black" stroke-width="0.5" stroke-miterlimit="10"/>
<path d="M76.6808 92.5129C77.1862 92.5129 77.5959 92.1032 77.5959 91.5977C77.5959 91.0923 77.1862 90.6826 76.6808 90.6826C76.1753 90.6826 75.7656 91.0923 75.7656 91.5977C75.7656 92.1032 76.1753 92.5129 76.6808 92.5129Z" stroke="black" stroke-width="0.5" stroke-miterlimit="10"/>
<path d="M81.2578 94.3431V2.82812" stroke="black" stroke-width="0.5" stroke-miterlimit="10"/>
<path d="M103.227 94.3431V2.82812" stroke="black" stroke-width="0.5" stroke-miterlimit="10"/>
<path d="M191.078 94.5847V2.82812" stroke="black" stroke-width="0.5" stroke-miterlimit="10"/>
<path d="M169.102 94.3431V2.82812" stroke="black" stroke-width="0.5" stroke-miterlimit="10"/>
<path d="M147.148 94.3431V2.82812" stroke="black" stroke-width="0.5" stroke-miterlimit="10"/>
<path d="M213.031 94.3431V2.82812" stroke="black" stroke-width="0.5" stroke-miterlimit="10"/>
<path d="M216.703 94.3431V2.82812" stroke="black" stroke-width="0.5" stroke-miterlimit="10"/>
<path d="M238.672 94.3431V2.82812" stroke="black" stroke-width="0.5" stroke-miterlimit="10"/>
<path d="M180.086 4.66016H240.485" stroke="black" stroke-width="0.5" stroke-miterlimit="10"/>
<path d="M189.258 26.6255H240.505" stroke="black" stroke-width="0.5" stroke-miterlimit="10"/>
<path d="M240.485 92.5132H191.469" stroke="black" stroke-width="0.5" stroke-miterlimit="10"/>
<path d="M238.668 4.66016H48.3203V92.5128H238.668V4.66016Z" stroke="black" stroke-width="0.5" stroke-miterlimit="10"/>
<path d="M193.824 10.1509C195.34 10.1509 196.569 8.92179 196.569 7.40555C196.569 5.88931 195.34 4.66016 193.824 4.66016C192.307 4.66016 191.078 5.88931 191.078 7.40555C191.078 8.92179 192.307 10.1509 193.824 10.1509Z" stroke="black" stroke-width="0.5" stroke-miterlimit="10"/>
<path d="M235.909 10.1509C237.426 10.1509 238.655 8.92179 238.655 7.40555C238.655 5.88931 237.426 4.66016 235.909 4.66016C234.393 4.66016 233.164 5.88931 233.164 7.40555C233.164 8.92179 234.393 10.1509 235.909 10.1509Z" stroke="black" stroke-width="0.5" stroke-miterlimit="10"/>
<path d="M235.909 92.5132C237.426 92.5132 238.655 91.2841 238.655 89.7678C238.655 88.2516 237.426 87.0225 235.909 87.0225C234.393 87.0225 233.164 88.2516 233.164 89.7678C233.164 91.2841 234.393 92.5132 235.909 92.5132Z" stroke="black" stroke-width="0.5" stroke-miterlimit="10"/>
<path d="M219.449 92.5132C220.965 92.5132 222.194 91.2841 222.194 89.7678C222.194 88.2516 220.965 87.0225 219.449 87.0225C217.932 87.0225 216.703 88.2516 216.703 89.7678C216.703 91.2841 217.932 92.5132 219.449 92.5132Z" stroke="black" stroke-width="0.5" stroke-miterlimit="10"/>
<path d="M214.862 30.2836C215.872 30.2836 216.692 29.4641 216.692 28.4533C216.692 27.4425 215.872 26.623 214.862 26.623C213.851 26.623 213.031 27.4425 213.031 28.4533C213.031 29.4641 213.851 30.2836 214.862 30.2836Z" stroke="black" stroke-width="0.5" stroke-miterlimit="10"/>
<path d="M169.108 92.5145C193.369 92.5145 213.036 72.8472 213.036 48.5863C213.036 24.3255 193.369 4.6582 169.108 4.6582C144.847 4.6582 125.18 24.3255 125.18 48.5863C125.18 72.8472 144.847 92.5145 169.108 92.5145Z" stroke="black" stroke-width="0.5" stroke-miterlimit="10"/>
<path d="M125.186 92.5145C149.447 92.5145 169.114 72.8472 169.114 48.5863C169.114 24.3255 149.447 4.6582 125.186 4.6582C100.925 4.6582 81.2578 24.3255 81.2578 48.5863C81.2578 72.8472 100.925 92.5145 125.186 92.5145Z" stroke="black" stroke-width="0.5" stroke-miterlimit="10"/>
<path d="M125.19 70.5518C137.32 70.5518 147.153 60.7186 147.153 48.5886C147.153 36.4587 137.32 26.6255 125.19 26.6255C113.06 26.6255 103.227 36.4587 103.227 48.5886C103.227 60.7186 113.06 70.5518 125.19 70.5518Z" stroke="black" stroke-width="0.5" stroke-miterlimit="10"/>
<path d="M59.2991 70.5518C71.429 70.5518 81.2622 60.7186 81.2622 48.5886C81.2622 36.4587 71.429 26.6255 59.2991 26.6255C47.1692 26.6255 37.3359 36.4587 37.3359 48.5886C37.3359 60.7186 47.1692 70.5518 59.2991 70.5518Z" stroke="black" stroke-width="0.5" stroke-miterlimit="10"/>
<path d="M59.2953 92.5145C83.5562 92.5145 103.223 72.8472 103.223 48.5863C103.223 24.3255 83.5562 4.6582 59.2953 4.6582C35.0345 4.6582 15.3672 24.3255 15.3672 48.5863C15.3672 72.8472 35.0345 92.5145 59.2953 92.5145Z" stroke="black" stroke-width="0.5" stroke-miterlimit="10"/>
<path d="M171.847 70.356C173.363 70.356 174.592 69.1269 174.592 67.6106C174.592 66.0944 173.363 64.8652 171.847 64.8652C170.331 64.8652 169.102 66.0944 169.102 67.6106C169.102 69.1269 170.331 70.356 171.847 70.356Z" stroke="black" stroke-width="0.5" stroke-miterlimit="10"/>
<path d="M149.894 92.5132C151.41 92.5132 152.639 91.2841 152.639 89.7678C152.639 88.2516 151.41 87.0225 149.894 87.0225C148.378 87.0225 147.148 88.2516 147.148 89.7678C147.148 91.2841 148.378 92.5132 149.894 92.5132Z" stroke="black" stroke-width="0.5" stroke-miterlimit="10"/>
<path d="M100.48 92.5132C101.996 92.5132 103.225 91.2841 103.225 89.7678C103.225 88.2516 101.996 87.0225 100.48 87.0225C98.9635 87.0225 97.7344 88.2516 97.7344 89.7678C97.7344 91.2841 98.9635 92.5132 100.48 92.5132Z" stroke="black" stroke-width="0.5" stroke-miterlimit="10"/>
<path d="M84.0032 92.5132C85.5194 92.5132 86.7486 91.2841 86.7486 89.7678C86.7486 88.2516 85.5194 87.0225 84.0032 87.0225C82.487 87.0225 81.2578 88.2516 81.2578 89.7678C81.2578 91.2841 82.487 92.5132 84.0032 92.5132Z" stroke="black" stroke-width="0.5" stroke-miterlimit="10"/>
<path d="M92.2376 18.2701C93.7538 18.2701 94.983 17.0409 94.983 15.5247C94.983 14.0085 93.7538 12.7793 92.2376 12.7793C90.7213 12.7793 89.4922 14.0085 89.4922 15.5247C89.4922 17.0409 90.7213 18.2701 92.2376 18.2701Z" stroke="black" stroke-width="0.5" stroke-miterlimit="10"/>
<path d="M51.0657 10.9742C52.5819 10.9742 53.8111 9.74503 53.8111 8.22879C53.8111 6.71255 52.5819 5.4834 51.0657 5.4834C49.5495 5.4834 48.3203 6.71255 48.3203 8.22879C48.3203 9.74503 49.5495 10.9742 51.0657 10.9742Z" stroke="black" stroke-width="0.5" stroke-miterlimit="10"/>
<path d="M51.0657 28.0328C52.5819 28.0328 53.8111 26.8036 53.8111 25.2874C53.8111 23.7711 52.5819 22.542 51.0657 22.542C49.5495 22.542 48.3203 23.7711 48.3203 25.2874C48.3203 26.8036 49.5495 28.0328 51.0657 28.0328Z" stroke="black" stroke-width="0.5" stroke-miterlimit="10"/>
</svg>
