<svg width="40" height="41" viewBox="0 0 40 41" fill="none" xmlns="http://www.w3.org/2000/svg">
<path d="M35.9278 40.9053C35.62 40.9631 35.3074 40.992 34.9942 40.9916H25.9946L20.4922 33.656L25.4919 26.9902L30.5399 33.7196L35.9278 40.9053Z" fill="#122C69"/>
<path d="M19.499 33.6568L13.9965 40.9916H4.93246C4.6405 40.9883 4.3494 40.9594 4.0625 40.9052L9.45132 33.7195L14.4965 26.9929L19.499 33.6568Z" fill="#122C69"/>
<path d="M19.499 8.32308L14.4992 14.9934L9.45223 8.26763L4.0625 1.08651C4.3495 1.03033 4.64095 0.999905 4.93337 0.995605L14.0038 0.995605L19.499 8.32308Z" fill="#122C69"/>
<path d="M35.9407 1.08651L30.5519 8.26763L25.5076 14.9943L20.5078 8.3249L26.0003 0.995605H35.0707C35.3628 0.999867 35.654 1.03029 35.9407 1.08651Z" fill="#122C69"/>
<path d="M9.99949 20.9935L13.9993 26.3267L8.99955 32.9924L3.23893 40.6744C2.28678 40.3161 1.46658 39.6759 0.887845 38.8393C0.309109 38.0026 -0.000623474 37.0094 9.42252e-07 35.9921V31.6789L8.01323 20.9935L9.42252e-07 10.3109V5.99498C-6.86065e-05 4.97816 0.309922 3.9855 0.888621 3.1494C1.46732 2.31331 2.28721 1.67353 3.23893 1.31543L8.99955 8.99469L13.9993 15.6613L9.99949 20.9935Z" fill="#F5B317"/>
<path d="M7.01328 20.9955L0 30.3464V11.6445L7.01328 20.9955Z" fill="#254107"/>
<path d="M39.9986 11.6438V30.3465L32.9844 20.9947L39.9986 11.6438Z" fill="#254107"/>
<path d="M39.9915 5.99498V10.31L31.9773 20.9935L39.9915 31.6789V35.9921C39.9915 37.009 39.6814 38.0018 39.1025 38.8379C38.5236 39.674 37.7035 40.3137 36.7516 40.6717L30.9919 32.9924L25.9922 26.3258L29.992 20.9935L25.9922 15.6604L30.9919 8.99469L36.7526 1.31543C37.7043 1.67353 38.5242 2.31331 39.1029 3.1494C39.6816 3.9855 39.9915 4.97816 39.9915 5.99498Z" fill="#F5B317"/>
<path d="M20.9997 20.9945L24.9995 26.3276L19.9997 32.9933L15 26.3276L18.9998 20.9954L15 15.6622L19.9997 8.99561L24.9995 15.6613L20.9997 20.9945Z" fill="#AA0211"/>
</svg>
